<svg xmlns="http://www.w3.org/2000/svg" width="264.531" height="54.549" viewBox="0 0 264.531 54.549">
  <g id="Frada_logo" data-name="Frada logo" transform="translate(-50.782 -60.149)">
    <g id="frada" transform="translate(90.762 62.257)">
      <path id="Path_20" data-name="Path 20" d="M13.213,175.615v9q0,3.333,1.246,4.851t6.572,1.518v.93H0v-.884q4.08,0,5.36-1.54a7.571,7.571,0,0,0,1.281-4.873V167.569A7.57,7.57,0,0,0,5.36,162.7q-1.281-1.54-5.36-1.541v-.883H34.653V173.96h-.861q-1.587-7.636-4.771-10.244t-10.776-2.606H13.213v13.71q4.395,0,6.289-1.4t3.16-7.343h.84V184.25h-.84q-1.269-5.938-3.5-7.287a11.444,11.444,0,0,0-5.949-1.348" transform="translate(0 -159.66)" fill="#332c32"/>
      <path id="Path_21" data-name="Path 21" d="M60.212,175.591h8.135q6.074,0,8.091-2.005a6.629,6.629,0,0,0,2.017-4.883V168a6.513,6.513,0,0,0-2.085-4.9q-2.086-1.993-8.318-1.994H60.212ZM72.88,160.272q7.388,0,10.278,2.4t2.889,5.257v1q0,3.2-3.977,5.349a20.275,20.275,0,0,1-9.757,2.153H68.279a61.58,61.58,0,0,0,5.462,2.911,26.777,26.777,0,0,0,4.328,1.349l5.439,7.637a5.907,5.907,0,0,0,2.879,2.2,12.6,12.6,0,0,0,3.762.5v.884H78.161L67.169,176.431H60.212v8.181a7.568,7.568,0,0,0,1.28,4.873q1.28,1.541,5.359,1.54v.884H46.909v-.884q4.08,0,5.359-1.54a7.563,7.563,0,0,0,1.282-4.873V167.569a7.56,7.56,0,0,0-1.282-4.872q-1.279-1.542-5.359-1.541v-.883Z" transform="translate(-8.858 -159.66)" fill="#332c32"/>
      <path id="Path_22" data-name="Path 22" d="M114.092,181.024h12.42l-6.233-13.937Zm8.431-21.506h1l13.236,28.69a4.342,4.342,0,0,0,2.4,2.165,9.792,9.792,0,0,0,3.173.509v.884H123.906v-.884q3.92,0,4.883-.509a1.694,1.694,0,0,0,.965-1.6q-.049-1.157-2.79-6.912h-13.19l-1.382,3.1a5.58,5.58,0,0,0-.226,1.858,4.181,4.181,0,0,0,1.484,3.071,4.886,4.886,0,0,0,3.071.985v.884H103.735v-.884q5.529,0,9.655-10.72Z" transform="translate(-19.588 -159.518)" fill="#332c32"/>
      <path id="Path_23" data-name="Path 23" d="M169.8,161.11v29.87h5.121q9.339,0,12.058-4.124a17.265,17.265,0,0,0,2.72-9.724v-1.7q0-6.956-3.366-10.639T174.7,161.11Zm8.59-.838q9.247,0,14.221,5.042t4.973,10.663v1a13.164,13.164,0,0,1-5.347,10.617,19.449,19.449,0,0,1-12.6,4.318H156.2v-.884q4.4,0,5.678-1.54a7.583,7.583,0,0,0,1.279-4.873V167.569a7.58,7.58,0,0,0-1.279-4.872q-1.283-1.542-5.678-1.541v-.883Z" transform="translate(-29.495 -159.66)" fill="#332c32"/>
      <path id="Path_24" data-name="Path 24" d="M220.679,181.024H233.1l-6.232-13.937Zm8.43-21.506h1l13.235,28.69a4.339,4.339,0,0,0,2.4,2.165,9.8,9.8,0,0,0,3.172.509v.884H230.491v-.884q3.918,0,4.883-.509a1.69,1.69,0,0,0,.963-1.6q-.045-1.157-2.786-6.912H220.36l-1.381,3.1a5.552,5.552,0,0,0-.228,1.858,4.178,4.178,0,0,0,1.484,3.071,4.886,4.886,0,0,0,3.071.985v.884H210.32v-.884q5.531,0,9.654-10.72Z" transform="translate(-39.714 -159.518)" fill="#332c32"/>
      <text id="KSA" transform="translate(211.551 10.893)" fill="#d17a52" font-size="14" font-family="Cambria-Bold, Cambria" font-weight="700"><tspan x="-12.821" y="0">KSA</tspan></text>
    </g>
    <g id="draw" transform="translate(50.782 61.149)">
      <path id="Path_25" data-name="Path 25" d="M90.038,5.841,99.653,0,120.707,11.8V23.732l-10.345,5.233L110,17.525Z" transform="translate(-90.038 0.001)" fill="#d17a52"/>
      <path id="Path_26" data-name="Path 26" d="M90.038,45.4l29.939,17.282-9.615,6.085L90.038,56.472Z" transform="translate(-90.038 -27.506)" fill="#d17a52"/>
      <path id="Path_27" data-name="Path 27" d="M90.038,95.342l10.271-6.08V100.94l-10.271,6.694Z" transform="translate(-90.038 -54.084)" fill="#d17a52"/>
    </g>
    <g id="slogan" transform="translate(-8.841 92.307)">
      <text id="Keep_calm_and_stay_classy" data-name="Keep calm and stay classy" transform="translate(122.123 19.391)" fill="#332c32" font-size="11" font-family="SegoeUI-Semibold, Segoe UI" font-weight="600"><tspan x="0" y="0">KEEP CALM AND STAY CLASSY</tspan></text>
    </g>
  </g>
</svg>
