<svg xmlns="http://www.w3.org/2000/svg" width="21.202" height="22.085" viewBox="0 0 21.202 22.085">
  <path id="Icon_material-add-shopping-cart" data-name="Icon material-add-shopping-cart" d="M12.017,9.914h2.1V6.758h3.155v-2.1H14.12V1.5h-2.1V4.655H8.862v2.1h3.155ZM7.81,19.379a2.1,2.1,0,1,0,2.1,2.1A2.1,2.1,0,0,0,7.81,19.379Zm10.517,0a2.1,2.1,0,1,0,2.1,2.1A2.1,2.1,0,0,0,18.327,19.379ZM7.989,15.961l.032-.126.947-1.714H16.8a2.093,2.093,0,0,0,1.84-1.083L22.7,5.665l-1.83-1.01h-.011L19.7,6.758l-2.9,5.258H9.419l-.137-.284L6.927,6.758l-1-2.1-.989-2.1H1.5v2.1H3.6l3.786,7.982L5.97,15.214a2.033,2.033,0,0,0-.263,1.01,2.11,2.11,0,0,0,2.1,2.1H20.43v-2.1H8.252A.267.267,0,0,1,7.989,15.961Z" transform="translate(-1.5 -1.5)" fill="#d17a52"/>
</svg>
