<svg xmlns="http://www.w3.org/2000/svg" width="22.265" height="20.006" viewBox="0 0 22.265 20.006">
  <path id="Icon_ionic-ios-heart-empty" data-name="Icon ionic-ios-heart-empty" d="M19.646,3.937h-.054a6.2,6.2,0,0,0-5.085,2.6,6.2,6.2,0,0,0-5.085-2.6H9.369A5.859,5.859,0,0,0,3.375,9.589a11.677,11.677,0,0,0,2.558,6.637,43.784,43.784,0,0,0,8.574,7.717,43.784,43.784,0,0,0,8.574-7.717A11.677,11.677,0,0,0,25.64,9.589,5.859,5.859,0,0,0,19.646,3.937ZM21.872,15.4a39.921,39.921,0,0,1-7.365,6.782A39.978,39.978,0,0,1,7.143,15.4,10.35,10.35,0,0,1,4.874,9.589,4.1,4.1,0,0,1,6.19,6.6,4.682,4.682,0,0,1,9.38,5.343h.048a4.734,4.734,0,0,1,2.2.54,4.565,4.565,0,0,1,1.627,1.425,1.563,1.563,0,0,0,2.516,0A4.611,4.611,0,0,1,17.4,5.883a4.734,4.734,0,0,1,2.2-.54h.048A4.692,4.692,0,0,1,22.835,6.6a4.083,4.083,0,0,1,1.317,2.991A10.482,10.482,0,0,1,21.872,15.4Z" transform="translate(-3.375 -3.938)" fill="#d17a52"/>
</svg>
