<svg xmlns="http://www.w3.org/2000/svg" width="21.904" height="21.906" viewBox="0 0 21.904 21.906">
  <path id="home_icon" d="M21.815,9.527l0,0L12.878.59a2.016,2.016,0,0,0-2.852,0L1.095,9.521l-.009.009a2.016,2.016,0,0,0,1.342,3.436c.021,0,.041,0,.062,0h.356v6.576a2.363,2.363,0,0,0,2.36,2.36H8.7a.642.642,0,0,0,.642-.642V16.108a1.078,1.078,0,0,1,1.077-1.077h2.062a1.078,1.078,0,0,1,1.077,1.077v5.156a.642.642,0,0,0,.642.642h3.5a2.363,2.363,0,0,0,2.36-2.36V12.969h.33a2.017,2.017,0,0,0,1.427-3.442Zm-.909,1.943a.729.729,0,0,1-.518.215h-.972a.642.642,0,0,0-.642.642v7.218A1.078,1.078,0,0,1,17.7,20.622H14.843V16.108a2.363,2.363,0,0,0-2.36-2.36H10.421a2.363,2.363,0,0,0-2.361,2.36v4.514H5.206a1.078,1.078,0,0,1-1.077-1.077V12.328a.642.642,0,0,0-.642-.642H2.5A.732.732,0,0,1,2,10.434H2L10.933,1.5a.733.733,0,0,1,1.037,0L20.9,10.431l0,0a.735.735,0,0,1,0,1.036Zm0,0" transform="translate(-0.5 0.001)" fill="#4f4f4f"/>
</svg>
