<svg xmlns="http://www.w3.org/2000/svg" width="22.285" height="24.146" viewBox="0 0 22.285 24.146">
  <g id="My_account_icon" transform="translate(-943.048 -170.077)">
    <path id="Path_670" data-name="Path 670" d="M44.879,87.666c-2.6,0-5.2,0-7.806,0a2.646,2.646,0,0,1-2.791-2.218,7.9,7.9,0,0,1,.137-2.54,10.14,10.14,0,0,1,5.913-7.416.558.558,0,0,1,.594.046,6.979,6.979,0,0,0,7.661-.079.516.516,0,0,1,.553-.08,10.147,10.147,0,0,1,6.3,8.338,5.788,5.788,0,0,1,.014,1.748,2.672,2.672,0,0,1-2.62,2.2c-.14,0-.281,0-.421,0H44.879" transform="translate(909.316 106.055)" fill="none" stroke="#332c32" stroke-width="1"/>
    <path id="Path_671" data-name="Path 671" d="M59.882,44.435a5,5,0,1,1,4.99-5.031,5.013,5.013,0,0,1-4.99,5.031" transform="translate(894.141 136.137)" fill="none" stroke="#332c32" stroke-width="1"/>
  </g>
</svg>
