<svg xmlns="http://www.w3.org/2000/svg" width="22.167" height="22.166" viewBox="0 0 22.167 22.166">
  <path id="Profile" d="M20.6,15.934a14.246,14.246,0,0,0-3.475-2.088,18.9,18.9,0,0,1-2.669-1.49,9.372,9.372,0,0,0,2.323-5.634A8.856,8.856,0,0,0,16.1,2.655C15.488,1.444,14.121,0,11.083,0S6.678,1.444,6.067,2.655a8.846,8.846,0,0,0-.679,4.066,9.365,9.365,0,0,0,2.324,5.634,18.806,18.806,0,0,1-2.67,1.49,14.256,14.256,0,0,0-3.475,2.088A6.814,6.814,0,0,0,0,20.291a1.847,1.847,0,0,0,1.846,1.875H20.319a1.847,1.847,0,0,0,1.847-1.876A6.816,6.816,0,0,0,20.6,15.934Zm.049,4.709a.462.462,0,0,1-.33.138H1.846a.462.462,0,0,1-.328-.138.468.468,0,0,1-.133-.331,5.532,5.532,0,0,1,1.161-3.4,14.075,14.075,0,0,1,3.115-1.829,15.194,15.194,0,0,0,3-1.723l.935-.884-.812-1a8.017,8.017,0,0,1-2.013-4.76A7.658,7.658,0,0,1,7.3,3.28c.635-1.257,1.906-1.894,3.78-1.894s3.145.637,3.779,1.894a7.663,7.663,0,0,1,.53,3.443,8.012,8.012,0,0,1-2.014,4.76l-.812,1,.935.884a15.226,15.226,0,0,0,3,1.723,14.013,14.013,0,0,1,3.115,1.829,5.4,5.4,0,0,1,1.161,3.4A.462.462,0,0,1,20.648,20.643Z" transform="translate(0)" fill="#888"/>
</svg>
