<svg xmlns="http://www.w3.org/2000/svg" width="35.444" height="28.136" viewBox="0 0 35.444 28.136">
  <path id="My_Wishes_Button_icon" d="M0,9.242V7.807c.044-.255.087-.51.132-.765.951-5.356,6.424-8,11.246-6.727A9.14,9.14,0,0,1,16.5,4c.153.211.3.428.463.669.183-.264.337-.5.506-.728A8.94,8.94,0,0,1,26.009.066a8.488,8.488,0,0,1,7.831,9.717,9.665,9.665,0,0,1-2.212,4.67,29.056,29.056,0,0,1-4.983,4.684c-2.647,2.043-5.334,4.04-8,6.057-.557.421-1.113.845-1.663,1.262-.054-.032-.084-.045-.109-.065-2.588-1.946-5.183-3.885-7.763-5.841A44.942,44.942,0,0,1,3.061,15.33,11.3,11.3,0,0,1,.376,10.973C.206,10.407.123,9.82,0,9.242" transform="translate(0.75 0.779)" fill="none" stroke="#888" stroke-width="1.5"/>
</svg>
