<svg xmlns="http://www.w3.org/2000/svg" xmlns:xlink="http://www.w3.org/1999/xlink" width="30.574" height="28.795" viewBox="0 0 30.574 28.795">
  <defs>
    <clipPath id="clip-path">
      <rect id="Rectangle_1" data-name="Rectangle 1" width="30.574" height="28.795" fill="#888"/>
    </clipPath>
  </defs>
  <g id="suport_icon" data-name="suport icon" clip-path="url(#clip-path)">
    <path id="Path_1" data-name="Path 1" d="M0,13.679c.048-.2.09-.406.144-.606A4.183,4.183,0,0,1,4.089,9.99c.108,0,.217,0,.343,0a10.807,10.807,0,0,1,4.54-7.97A10.468,10.468,0,0,1,15.312,0a10.576,10.576,0,0,1,7.344,2.883A10.73,10.73,0,0,1,26.123,9.95c.412.051.8.071,1.178.15a4.13,4.13,0,0,1,3.258,3.943,28.656,28.656,0,0,1-.066,3.307,4.065,4.065,0,0,1-3.78,3.5c-.486.026-.975.017-1.462.014a.928.928,0,0,1-1.009-1.028q0-4.447,0-8.893A8.544,8.544,0,0,0,22.259,5.26,8.554,8.554,0,0,0,13.01,2.228,8.587,8.587,0,0,0,6.45,9.417a8.615,8.615,0,0,0-.121,1.6c-.011,2.9-.005,5.81-.006,8.714,0,.731-.228,1.047-.942,1.129-2.245.26-4.169-.513-5.052-2.557A9.4,9.4,0,0,1,0,17.2V13.679" transform="translate(0 0)" fill="#888"/>
    <path id="Path_2" data-name="Path 2" d="M156.023,316.775c-.4,0-.8.007-1.193,0a1.908,1.908,0,0,1-.051-3.814c.824-.025,1.651-.026,2.475,0a1.907,1.907,0,0,1-.039,3.813c-.4.009-.8,0-1.193,0" transform="translate(-140.73 -287.982)" fill="#888"/>
    <path id="Path_3" data-name="Path 3" d="M57.922,280.074V281.1a6.45,6.45,0,0,1-7.085-5.391h1.026a5.559,5.559,0,0,0,6.059,4.368" transform="translate(-46.783 -253.718)" fill="#888"/>
  </g>
</svg>
