<svg xmlns="http://www.w3.org/2000/svg" width="59.808" height="31.047" viewBox="0 0 59.808 31.047">
  <g id="moste_card" data-name="moste card" transform="translate(-62.941 0.28)">
    <rect id="mastercard" width="59.248" height="30.487" rx="6.32" transform="translate(63.221)" fill="#fff" stroke="#e7e7e7" stroke-width="0.56"/>
    <rect id="svg_11" width="33.311" height="27.326" transform="translate(75.582 1.571)" fill="none"/>
    <path id="svg_12" d="M139.134,45.152V43.788a.8.8,0,0,0-.747-.863h-.1a.838.838,0,0,0-.766.39.805.805,0,0,0-.714-.39.747.747,0,0,0-.649.318v-.266h-.474v2.162h.474V43.944a.5.5,0,0,1,.435-.571h.091c.312,0,.474.2.474.571v1.208h.474v-1.2a.519.519,0,0,1,.448-.571.37.37,0,0,1,.084,0c.325,0,.474.208.474.571v1.208Zm7.051-2.168h-.773v-.649h-.474v.649h-.448v.435h.448v.987c0,.506.195.805.753.805a1.156,1.156,0,0,0,.591-.162l-.137-.409a.857.857,0,0,1-.416.123c-.234,0-.312-.143-.312-.364v-.98h.773v-.435Zm4.025-.045a.649.649,0,0,0-.571.318V43h-.467v2.162h.474V43.944c0-.357.156-.565.467-.565a.7.7,0,0,1,.286.058l.149-.441a1.026,1.026,0,0,0-.338-.058Zm-6.083.221a1.571,1.571,0,0,0-.883-.221c-.552,0-.9.26-.9.695s.266.571.747.649h.221c.266.039.383.1.383.221s-.175.26-.493.26a1.123,1.123,0,0,1-.727-.221l-.221.37a1.571,1.571,0,0,0,.935.279c.649,0,.987-.292.987-.708s-.292-.578-.753-.649H143.2c-.208,0-.37-.071-.37-.214s.156-.253.415-.253a1.357,1.357,0,0,1,.649.188Zm12.64-.221a.649.649,0,0,0-.571.318V43h-.467v2.162h.474V43.944c0-.357.156-.565.467-.565a.76.76,0,0,1,.292.058L157.1,43a1.026,1.026,0,0,0-.338-.058Zm-6.083,1.13a1.091,1.091,0,0,0,1.052,1.143h.1a1.182,1.182,0,0,0,.786-.26l-.221-.377a.928.928,0,0,1-.571.188.649.649,0,0,1-.649-.734.688.688,0,0,1,.649-.649.961.961,0,0,1,.571.195l.221-.377a1.136,1.136,0,0,0-.786-.26,1.1,1.1,0,0,0-1.188,1.052v.1Zm4.415,0V42.983h-.474v.26a.838.838,0,0,0-.682-.318,1.143,1.143,0,0,0,0,2.285.838.838,0,0,0,.682-.318v.26h.474Zm-1.759,0a.672.672,0,1,1,0,.045Zm-5.687-1.13a1.13,1.13,0,0,0-1.071,1.195,1.143,1.143,0,0,0,1.11,1.084,1.344,1.344,0,0,0,.889-.3l-.227-.344a1.019,1.019,0,0,1-.649.221.6.6,0,0,1-.649-.532h1.617v-.182a1.052,1.052,0,0,0-1.045-1.143Zm0,.415a.539.539,0,0,1,.552.519H147.08a.539.539,0,0,1,.571-.519Zm11.835.714V42.12h-.474v1.13a.838.838,0,0,0-.682-.318,1.143,1.143,0,1,0,0,2.285.838.838,0,0,0,.682-.318v.26h.474Zm.786.773h.084a.2.2,0,0,1,.071.052.149.149,0,0,1,.045.065.234.234,0,0,1,0,.162.137.137,0,0,1-.045.071.221.221,0,0,1-.071.045.2.2,0,0,1-.084,0,.214.214,0,0,1-.2-.136.234.234,0,0,1,0-.162.149.149,0,0,1,.045-.065l.071-.052h.084Zm0,.39a.117.117,0,0,0,.065,0,.1.1,0,0,0,.052-.039.175.175,0,0,0,0-.24l-.052-.039h-.13l-.058.039a.162.162,0,0,0,0,.24s0,.032.058.039Zm0-.273a.039.039,0,1,1,.058.052h0a.052.052,0,0,1-.045,0l.065.078H160.3l-.058-.078h0v.078h-.039v-.2Zm-.045.039v.058h.045Zm-2.506-.928a.672.672,0,1,1,0,.045Zm-15.925,0V42.983h-.474v.26a.851.851,0,0,0-.688-.318,1.143,1.143,0,1,0,0,2.285.85.85,0,0,0,.688-.318v.26h.474Zm-1.766,0a.672.672,0,1,1,0,.045v-.045Z" transform="translate(-55.268 -19.702)" fill="#231f20"/>
    <rect id="svg_13" width="7.148" height="12.842" transform="translate(88.67 6.752)" fill="#ff5f00"/>
    <path id="svg_14" d="M143.629,23.472a8.193,8.193,0,0,1,3.123-6.414,8.167,8.167,0,1,0,0,12.848A8.193,8.193,0,0,1,143.629,23.472Z" transform="translate(-54.518 -10.3)" fill="#eb001b"/>
    <path id="svg_15" d="M167.1,23.473A8.167,8.167,0,0,1,153.88,29.9a8.167,8.167,0,0,0,1.376-11.472,8.362,8.362,0,0,0-1.376-1.37A8.174,8.174,0,0,1,167.1,23.479Z" transform="translate(-61.652 -10.3)" fill="#f79e1b"/>
    <path id="svg_16" d="M172.962,35.518v-.26h.11V35.2H172.8v.058h.13v.26Zm.526,0V35.2H173.4l-.1.221-.091-.221h-.091v.318h.058v-.24l.084.2h.058l.091-.2v.24Z" transform="translate(-68.289 -17.275)" fill="#f79e1b"/>
  </g>
</svg>
