<svg xmlns="http://www.w3.org/2000/svg" width="244.421" height="181.804" viewBox="0 0 244.421 181.804">
  <g id="Frada_logo" data-name="Frada logo" transform="translate(0 -51.149)">
    <g id="frada" transform="translate(0 195.275)">
      <path id="Path_20" data-name="Path 20" d="M15.438,178.2v10.511q0,3.894,1.456,5.667t7.679,1.773v1.086H0V196.2q4.767,0,6.263-1.8t1.5-5.694V168.8q0-3.891-1.5-5.692T0,161.3v-1.032H40.487v15.992H39.48q-1.854-8.922-5.574-11.968t-12.59-3.044H15.438v16.019q5.135,0,7.348-1.641t3.692-8.579h.981v21.236h-.981q-1.483-6.937-4.089-8.514a13.371,13.371,0,0,0-6.951-1.575" transform="translate(0 -159.557)" fill="#fff"/>
      <path id="Path_21" data-name="Path 21" d="M62.452,178.17h9.5q7.1,0,9.453-2.343a7.745,7.745,0,0,0,2.357-5.705V169.3a7.61,7.61,0,0,0-2.436-5.72q-2.437-2.329-9.718-2.33H62.452Zm14.8-17.9q8.632,0,12.008,2.806t3.376,6.142v1.166q0,3.733-4.647,6.249a23.688,23.688,0,0,1-11.4,2.515H71.877a71.932,71.932,0,0,0,6.382,3.4,31.285,31.285,0,0,0,5.056,1.576l6.355,8.923a6.9,6.9,0,0,0,3.364,2.569,14.725,14.725,0,0,0,4.4.581v1.033H83.423L70.58,179.151H62.452v9.558q0,3.892,1.5,5.694t6.262,1.8v1.033h-23.3V196.2q4.767,0,6.261-1.8t1.5-5.694V168.8q0-3.891-1.5-5.692t-6.261-1.8v-1.032Z" transform="translate(-2.451 -159.557)" fill="#fff"/>
      <path id="Path_22" data-name="Path 22" d="M115.836,184.644h14.511l-7.282-16.283Zm9.851-25.126h1.164l15.464,33.521a5.073,5.073,0,0,0,2.805,2.53,11.44,11.44,0,0,0,3.707.594V197.2H127.3v-1.033q4.58,0,5.705-.594a1.979,1.979,0,0,0,1.128-1.867q-.057-1.352-3.259-8.076h-15.41l-1.615,3.627a6.519,6.519,0,0,0-.264,2.171,4.884,4.884,0,0,0,1.733,3.588,5.709,5.709,0,0,0,3.588,1.151V197.2H103.735v-1.033q6.46,0,11.281-12.524Z" transform="translate(-5.421 -159.518)" fill="#fff"/>
      <path id="Path_23" data-name="Path 23" d="M172.09,161.251v34.9h5.983q10.911,0,14.088-4.818a20.171,20.171,0,0,0,3.178-11.361v-1.986q0-8.127-3.933-12.431t-13.6-4.3Zm10.036-.979q10.8,0,16.616,5.891t5.811,12.458v1.165q0,7.361-6.247,12.4a22.723,22.723,0,0,1-14.722,5.045H156.2V196.2q5.139,0,6.634-1.8t1.495-5.694V168.8q0-3.891-1.495-5.692t-6.634-1.8v-1.032Z" transform="translate(-8.163 -159.557)" fill="#fff"/>
      <path id="Path_24" data-name="Path 24" d="M222.423,184.644h14.508l-7.281-16.283Zm9.849-25.126h1.166L248.9,193.039a5.069,5.069,0,0,0,2.805,2.53,11.443,11.443,0,0,0,3.706.594V197.2H233.887v-1.033q4.578,0,5.705-.594a1.975,1.975,0,0,0,1.125-1.867q-.053-1.352-3.256-8.076H222.05l-1.614,3.627a6.488,6.488,0,0,0-.266,2.171,4.882,4.882,0,0,0,1.734,3.588,5.709,5.709,0,0,0,3.588,1.151V197.2H210.32v-1.033q6.463,0,11.279-12.524Z" transform="translate(-10.991 -159.518)" fill="#fff"/>
    </g>
    <g id="draw" transform="translate(85.333 51.149)">
      <path id="Path_25" data-name="Path 25" d="M90.038,14.049,113.16,0l50.634,28.39V57.073L138.916,69.658l-.878-27.512Z" transform="translate(-90.038 0.001)" fill="#fff"/>
      <path id="Path_26" data-name="Path 26" d="M90.038,45.4l72,41.561-23.123,14.634L90.038,72.031Z" transform="translate(-90.038 -2.372)" fill="#fff"/>
      <path id="Path_27" data-name="Path 27" d="M90.038,103.884l24.7-14.623v28.086l-24.7,16.1Z" transform="translate(-90.038 -4.664)" fill="#fff"/>
    </g>
  </g>
</svg>
