<svg xmlns="http://www.w3.org/2000/svg" width="59.808" height="31.047" viewBox="0 0 59.808 31.047">
  <g id="home" transform="translate(-28.235 -34.233)">
    <rect id="svg_9" width="59.248" height="30.487" rx="6.32" transform="translate(28.515 34.513)" fill="#fff" stroke="#e7e7e7" stroke-width="0.56"/>
    <g id="svg_44" transform="translate(46.405 39.478)">
      <path id="svg_46" d="M83.82,77.132,94.8,68.4l11.032,8.733ZM94.8,72.8a.859.859,0,1,1-.885.86.872.872,0,0,1,.885-.86Zm0-.871a1.73,1.73,0,1,1-1.783,1.731A1.757,1.757,0,0,1,94.8,71.93v0Zm1.623.33a2.057,2.057,0,0,1,.11,2.669,2.214,2.214,0,0,1-2.678.626A2.085,2.085,0,0,1,92.7,73.131a2.165,2.165,0,0,1,2.226-1.573,2.2,2.2,0,0,1,1.5.7ZM94.8,71.093a2.568,2.568,0,1,1-2.646,2.568A2.607,2.607,0,0,1,94.8,71.093ZM83.3,88.147H85V87h.247v-.545h.719V79.874H84.492V78.3H105.1v1.575h-1.469V86.45h.719v.545h.247v1.149h1.7v1.2h-23v-1.2ZM89.4,87h.825v-.545h.721V79.874H88.677V86.45H89.4V87Zm4.984,0h.831v-.545h.721V79.874H93.661V86.45h.72V87Zm4.985,0h.831v-.545h.721V79.874H98.645V86.45h.721V87Z" transform="translate(-83.298 -68.398)" stroke="#000" stroke-width="1" fill-rule="evenodd"/>
    </g>
  </g>
</svg>
