<svg xmlns="http://www.w3.org/2000/svg" width="28.422" height="23.084" viewBox="0 0 28.422 23.084">
  <path id="Icon_awesome-twitter" data-name="Icon awesome-twitter" d="M25.5,9.134c.018.252.018.5.018.757,0,7.7-5.861,16.574-16.574,16.574A16.461,16.461,0,0,1,0,23.85a12.051,12.051,0,0,0,1.407.072,11.666,11.666,0,0,0,7.232-2.489,5.835,5.835,0,0,1-5.446-4.04,7.346,7.346,0,0,0,1.1.09,6.161,6.161,0,0,0,1.533-.2,5.826,5.826,0,0,1-4.671-5.717V11.5a5.867,5.867,0,0,0,2.633.739,5.834,5.834,0,0,1-1.8-7.791,16.558,16.558,0,0,0,12.011,6.1,6.576,6.576,0,0,1-.144-1.335A5.831,5.831,0,0,1,23.932,5.22a11.469,11.469,0,0,0,3.7-1.407,5.809,5.809,0,0,1-2.561,3.21,11.678,11.678,0,0,0,3.354-.9A12.522,12.522,0,0,1,25.5,9.134Z" transform="translate(0 -3.381)" fill="#fff"/>
</svg>
