<svg xmlns="http://www.w3.org/2000/svg" width="23.09" height="23.085" viewBox="0 0 23.09 23.085">
  <path id="Icon_awesome-instagram" data-name="Icon awesome-instagram" d="M11.542,7.862a5.919,5.919,0,1,0,5.919,5.919A5.909,5.909,0,0,0,11.542,7.862Zm0,9.767A3.848,3.848,0,1,1,15.39,13.78a3.855,3.855,0,0,1-3.848,3.848ZM19.084,7.619A1.381,1.381,0,1,1,17.7,6.239,1.377,1.377,0,0,1,19.084,7.619ZM23,9.021a6.832,6.832,0,0,0-1.865-4.837A6.877,6.877,0,0,0,16.3,2.319c-1.906-.108-7.619-.108-9.525,0a6.867,6.867,0,0,0-4.837,1.86A6.854,6.854,0,0,0,.076,9.015c-.108,1.906-.108,7.619,0,9.525a6.832,6.832,0,0,0,1.865,4.837,6.886,6.886,0,0,0,4.837,1.865c1.906.108,7.619.108,9.525,0a6.832,6.832,0,0,0,4.837-1.865A6.877,6.877,0,0,0,23,18.54c.108-1.906.108-7.613,0-9.519ZM20.542,20.585a3.9,3.9,0,0,1-2.194,2.194c-1.52.6-5.125.464-6.8.464s-5.29.134-6.8-.464a3.9,3.9,0,0,1-2.194-2.194c-.6-1.52-.464-5.125-.464-6.8s-.134-5.29.464-6.8A3.9,3.9,0,0,1,4.738,4.781c1.52-.6,5.125-.464,6.8-.464s5.29-.134,6.8.464a3.9,3.9,0,0,1,2.194,2.194c.6,1.52.464,5.125.464,6.8S21.144,19.07,20.542,20.585Z" transform="translate(0.005 -2.238)" fill="#fff"/>
</svg>
