<svg xmlns="http://www.w3.org/2000/svg" width="24.557" height="23.086" viewBox="0 0 24.557 23.086">
  <path id="Icon_awesome-snapchat-ghost" data-name="Icon awesome-snapchat-ghost" d="M24.5,19.177c-.25.583-1.306,1.011-3.231,1.31a9,9,0,0,0-.312,1.149.555.555,0,0,1-.582.425h-.014c-.451,0-.921-.207-1.863-.207a3.8,3.8,0,0,0-2.7.987,5.4,5.4,0,0,1-3.551,1.314,5.509,5.509,0,0,1-3.5-1.314,3.791,3.791,0,0,0-2.7-.987,18.116,18.116,0,0,0-1.863.226.569.569,0,0,1-.6-.434,8.884,8.884,0,0,0-.313-1.157C2.294,20.335.058,19.945,0,18.947a.51.51,0,0,1,.426-.531c3.337-.549,4.841-3.976,4.9-4.122l.011-.025a1.09,1.09,0,0,0,.118-.9C5.217,12.8,4.17,12.6,3.73,12.421c-1.137-.449-1.3-.965-1.228-1.319a1.235,1.235,0,0,1,1.583-.741,2.745,2.745,0,0,0,1.129.3.979.979,0,0,0,.478-.1c-.1-1.724-.341-4.187.273-5.562A6.535,6.535,0,0,1,12.03,1.082l.485,0a6.49,6.49,0,0,1,6.078,3.916c.613,1.374.372,3.827.273,5.564a.94.94,0,0,0,.412.1,2.865,2.865,0,0,0,1.059-.3,1.3,1.3,0,0,1,.982,0h0a1,1,0,0,1,.748.857c.009.467-.409.871-1.241,1.2-.1.04-.225.079-.357.121-.47.149-1.18.374-1.373.828a1.089,1.089,0,0,0,.118.9l.011.025c.062.145,1.564,3.571,4.9,4.122A.523.523,0,0,1,24.5,19.177Z" transform="translate(0 -1.078)" fill="#fff"/>
</svg>
