<svg xmlns="http://www.w3.org/2000/svg" width="20.057" height="23.086" viewBox="0 0 20.057 23.086">
  <path id="Icon_simple-tiktok" data-name="Icon simple-tiktok" d="M12.9.019C14.163,0,15.413.01,16.664,0a5.991,5.991,0,0,0,1.683,4.011,6.784,6.784,0,0,0,4.079,1.722V9.609a10.3,10.3,0,0,1-4.04-.933,11.884,11.884,0,0,1-1.558-.895c-.01,2.809.01,5.618-.019,8.417a7.347,7.347,0,0,1-1.3,3.79,7.166,7.166,0,0,1-5.685,3.088A7.014,7.014,0,0,1,5.9,22.085a7.254,7.254,0,0,1-3.511-5.493c-.019-.481-.029-.962-.01-1.433a7.242,7.242,0,0,1,8.4-6.426c.019,1.424-.038,2.847-.038,4.271a3.3,3.3,0,0,0-4.213,2.039,3.816,3.816,0,0,0-.135,1.549,3.274,3.274,0,0,0,3.367,2.761A3.232,3.232,0,0,0,12.421,17.8a2.219,2.219,0,0,0,.394-1.02c.1-1.722.058-3.434.067-5.156.01-3.876-.01-7.743.019-11.61Z" transform="translate(-2.369)" fill="#fff"/>
</svg>
