<svg xmlns="http://www.w3.org/2000/svg" width="32.868" height="29.216" viewBox="0 0 32.868 29.216">
  <path id="Icon_awesome-mail-bulk" data-name="Icon awesome-mail-bulk" d="M9.13,25.564c-1.461,0-2.922-1.278-3.652-1.826C1.826,21.182.73,20.269,0,19.721V27.39a1.826,1.826,0,0,0,1.826,1.826H16.434A1.826,1.826,0,0,0,18.26,27.39V19.721c-.73.548-1.826,1.461-5.478,4.017C12.052,24.286,10.591,25.564,9.13,25.564Zm7.3-10.956H1.826A1.826,1.826,0,0,0,0,16.434v.913c1.461,1.1,1.278,1.1,6.574,4.93.548.365,1.643,1.461,2.556,1.461s2.009-1.1,2.556-1.278c5.3-3.835,5.113-3.835,6.574-4.93v-1.1A1.826,1.826,0,0,0,16.434,14.608ZM31.042,9.13H12.782a1.826,1.826,0,0,0-1.826,1.826v1.826h5.478a3.657,3.657,0,0,1,3.635,3.3l.017-.013v7.669H31.042a1.826,1.826,0,0,0,1.826-1.826V10.956A1.826,1.826,0,0,0,31.042,9.13Zm-1.826,7.3H25.564V12.782h3.652ZM9.13,10.956A3.656,3.656,0,0,1,12.782,7.3H25.564V1.826A1.826,1.826,0,0,0,23.738,0H5.478A1.826,1.826,0,0,0,3.652,1.826V12.782H9.13Z" fill="#d17a52"/>
</svg>
