<svg xmlns="http://www.w3.org/2000/svg" width="59.808" height="31.047" viewBox="0 0 59.808 31.047">
  <g id="pay" transform="translate(0.28 0.28)">
    <rect id="pay-2" data-name="pay" width="59.248" height="30.487" rx="6.32" fill="#fff" stroke="#e7e7e7" stroke-width="0.56"/>
    <path id="svg_7" d="M35.056,22.426a2.37,2.37,0,0,1-1.883.9,2.655,2.655,0,0,1,.649-1.948,2.792,2.792,0,0,1,1.857-.954,2.824,2.824,0,0,1-.649,2.006m.649,1.032c-1.032-.052-1.948.591-2.409.591s-1.246-.558-2.071-.545a3.058,3.058,0,0,0-2.6,1.571c-1.117,1.948-.292,4.765.792,6.33.532.766,1.162,1.623,2,1.591s1.1-.506,2.052-.506,1.234.506,2.071.5,1.409-.773,1.948-1.552a7.141,7.141,0,0,0,.863-1.779,2.824,2.824,0,0,1-1.681-2.551,2.876,2.876,0,0,1,1.37-2.415,3.032,3.032,0,0,0-2.324-1.246M41.658,21.3V32.9h1.818V28.931h2.493a3.681,3.681,0,0,0,3.9-3.83,3.616,3.616,0,0,0-3.811-3.8Zm1.8,1.519h2.09a2.161,2.161,0,0,1,2.454,2.3,2.173,2.173,0,0,1-2.454,2.311h-2.09ZM53.143,33A2.967,2.967,0,0,0,55.8,31.509h0V32.9h1.675V27.126c0-1.668-1.337-2.753-3.4-2.753-1.948,0-3.33,1.091-3.376,2.6h1.63a1.571,1.571,0,0,1,1.7-1.182c1.1,0,1.714.513,1.714,1.454v.649l-2.246.13c-2.1.13-3.246.987-3.246,2.474A2.6,2.6,0,0,0,53.143,33Zm.474-1.376c-.922,0-1.571-.435-1.571-1.169S52.63,29.3,53.76,29.23l2.006-.13v.649A1.955,1.955,0,0,1,53.617,31.619Zm6.116,4.441c1.753,0,2.6-.649,3.3-2.7l3.168-8.881H64.381L62.245,31.34h0L60.09,24.478H58.2l3.051,8.44-.169.513a1.435,1.435,0,0,1-1.519,1.208,4.486,4.486,0,0,1-.526-.032v1.383a3.344,3.344,0,0,0,.695.058Z" transform="translate(-17.52 -12.09)"/>
  </g>
</svg>
