<svg xmlns="http://www.w3.org/2000/svg" xmlns:xlink="http://www.w3.org/1999/xlink" width="192.669" height="602" viewBox="0 0 192.669 602">
  <defs>
    <clipPath id="clip-path">
      <rect width="192.669" height="602" fill="none"/>
    </clipPath>
  </defs>
  <g id="Repeat_Grid_4" data-name="Repeat Grid 4" clip-path="url(#clip-path)">
    <g transform="translate(-216.469 -2453)">
      <g id="draw" transform="translate(216.469 2453)" opacity="0.05">
        <path id="Path_25" data-name="Path 25" d="M90.038,5.841,99.653,0,120.707,11.8V23.732l-10.345,5.233L110,17.525Z" transform="translate(-90.038 0.001)" fill="#332c32"/>
        <path id="Path_26" data-name="Path 26" d="M90.038,45.4l29.939,17.282-9.615,6.085L90.038,56.472Z" transform="translate(-90.038 -27.506)" fill="#332c32"/>
        <path id="Path_27" data-name="Path 27" d="M90.038,95.342l10.271-6.08V100.94l-10.271,6.694Z" transform="translate(-90.038 -54.084)" fill="#332c32"/>
      </g>
    </g>
    <g transform="translate(-176.469 -2453)">
      <g id="draw-2" data-name="draw" transform="translate(216.469 2453)" opacity="0.05">
        <path id="Path_25-2" data-name="Path 25" d="M90.038,5.841,99.653,0,120.707,11.8V23.732l-10.345,5.233L110,17.525Z" transform="translate(-90.038 0.001)" fill="#332c32"/>
        <path id="Path_26-2" data-name="Path 26" d="M90.038,45.4l29.939,17.282-9.615,6.085L90.038,56.472Z" transform="translate(-90.038 -27.506)" fill="#332c32"/>
        <path id="Path_27-2" data-name="Path 27" d="M90.038,95.342l10.271-6.08V100.94l-10.271,6.694Z" transform="translate(-90.038 -54.084)" fill="#332c32"/>
      </g>
    </g>
    <g transform="translate(-136.469 -2453)">
      <g id="draw-3" data-name="draw" transform="translate(216.469 2453)" opacity="0.05">
        <path id="Path_25-3" data-name="Path 25" d="M90.038,5.841,99.653,0,120.707,11.8V23.732l-10.345,5.233L110,17.525Z" transform="translate(-90.038 0.001)" fill="#332c32"/>
        <path id="Path_26-3" data-name="Path 26" d="M90.038,45.4l29.939,17.282-9.615,6.085L90.038,56.472Z" transform="translate(-90.038 -27.506)" fill="#332c32"/>
        <path id="Path_27-3" data-name="Path 27" d="M90.038,95.342l10.271-6.08V100.94l-10.271,6.694Z" transform="translate(-90.038 -54.084)" fill="#332c32"/>
      </g>
    </g>
    <g transform="translate(-96.469 -2453)">
      <g id="draw-4" data-name="draw" transform="translate(216.469 2453)" opacity="0.05">
        <path id="Path_25-4" data-name="Path 25" d="M90.038,5.841,99.653,0,120.707,11.8V23.732l-10.345,5.233L110,17.525Z" transform="translate(-90.038 0.001)" fill="#332c32"/>
        <path id="Path_26-4" data-name="Path 26" d="M90.038,45.4l29.939,17.282-9.615,6.085L90.038,56.472Z" transform="translate(-90.038 -27.506)" fill="#332c32"/>
        <path id="Path_27-4" data-name="Path 27" d="M90.038,95.342l10.271-6.08V100.94l-10.271,6.694Z" transform="translate(-90.038 -54.084)" fill="#332c32"/>
      </g>
    </g>
    <g transform="translate(-56.469 -2453)">
      <g id="draw-5" data-name="draw" transform="translate(216.469 2453)" opacity="0.05">
        <path id="Path_25-5" data-name="Path 25" d="M90.038,5.841,99.653,0,120.707,11.8V23.732l-10.345,5.233L110,17.525Z" transform="translate(-90.038 0.001)" fill="#332c32"/>
        <path id="Path_26-5" data-name="Path 26" d="M90.038,45.4l29.939,17.282-9.615,6.085L90.038,56.472Z" transform="translate(-90.038 -27.506)" fill="#332c32"/>
        <path id="Path_27-5" data-name="Path 27" d="M90.038,95.342l10.271-6.08V100.94l-10.271,6.694Z" transform="translate(-90.038 -54.084)" fill="#332c32"/>
      </g>
    </g>
    <g transform="translate(-216.469 -2385)">
      <g id="draw-6" data-name="draw" transform="translate(216.469 2453)" opacity="0.05">
        <path id="Path_25-6" data-name="Path 25" d="M90.038,5.841,99.653,0,120.707,11.8V23.732l-10.345,5.233L110,17.525Z" transform="translate(-90.038 0.001)" fill="#332c32"/>
        <path id="Path_26-6" data-name="Path 26" d="M90.038,45.4l29.939,17.282-9.615,6.085L90.038,56.472Z" transform="translate(-90.038 -27.506)" fill="#332c32"/>
        <path id="Path_27-6" data-name="Path 27" d="M90.038,95.342l10.271-6.08V100.94l-10.271,6.694Z" transform="translate(-90.038 -54.084)" fill="#332c32"/>
      </g>
    </g>
    <g transform="translate(-176.469 -2385)">
      <g id="draw-7" data-name="draw" transform="translate(216.469 2453)" opacity="0.05">
        <path id="Path_25-7" data-name="Path 25" d="M90.038,5.841,99.653,0,120.707,11.8V23.732l-10.345,5.233L110,17.525Z" transform="translate(-90.038 0.001)" fill="#332c32"/>
        <path id="Path_26-7" data-name="Path 26" d="M90.038,45.4l29.939,17.282-9.615,6.085L90.038,56.472Z" transform="translate(-90.038 -27.506)" fill="#332c32"/>
        <path id="Path_27-7" data-name="Path 27" d="M90.038,95.342l10.271-6.08V100.94l-10.271,6.694Z" transform="translate(-90.038 -54.084)" fill="#332c32"/>
      </g>
    </g>
    <g transform="translate(-136.469 -2385)">
      <g id="draw-8" data-name="draw" transform="translate(216.469 2453)" opacity="0.05">
        <path id="Path_25-8" data-name="Path 25" d="M90.038,5.841,99.653,0,120.707,11.8V23.732l-10.345,5.233L110,17.525Z" transform="translate(-90.038 0.001)" fill="#332c32"/>
        <path id="Path_26-8" data-name="Path 26" d="M90.038,45.4l29.939,17.282-9.615,6.085L90.038,56.472Z" transform="translate(-90.038 -27.506)" fill="#332c32"/>
        <path id="Path_27-8" data-name="Path 27" d="M90.038,95.342l10.271-6.08V100.94l-10.271,6.694Z" transform="translate(-90.038 -54.084)" fill="#332c32"/>
      </g>
    </g>
    <g transform="translate(-96.469 -2385)">
      <g id="draw-9" data-name="draw" transform="translate(216.469 2453)" opacity="0.05">
        <path id="Path_25-9" data-name="Path 25" d="M90.038,5.841,99.653,0,120.707,11.8V23.732l-10.345,5.233L110,17.525Z" transform="translate(-90.038 0.001)" fill="#332c32"/>
        <path id="Path_26-9" data-name="Path 26" d="M90.038,45.4l29.939,17.282-9.615,6.085L90.038,56.472Z" transform="translate(-90.038 -27.506)" fill="#332c32"/>
        <path id="Path_27-9" data-name="Path 27" d="M90.038,95.342l10.271-6.08V100.94l-10.271,6.694Z" transform="translate(-90.038 -54.084)" fill="#332c32"/>
      </g>
    </g>
    <g transform="translate(-56.469 -2385)">
      <g id="draw-10" data-name="draw" transform="translate(216.469 2453)" opacity="0.05">
        <path id="Path_25-10" data-name="Path 25" d="M90.038,5.841,99.653,0,120.707,11.8V23.732l-10.345,5.233L110,17.525Z" transform="translate(-90.038 0.001)" fill="#332c32"/>
        <path id="Path_26-10" data-name="Path 26" d="M90.038,45.4l29.939,17.282-9.615,6.085L90.038,56.472Z" transform="translate(-90.038 -27.506)" fill="#332c32"/>
        <path id="Path_27-10" data-name="Path 27" d="M90.038,95.342l10.271-6.08V100.94l-10.271,6.694Z" transform="translate(-90.038 -54.084)" fill="#332c32"/>
      </g>
    </g>
    <g transform="translate(-216.469 -2317)">
      <g id="draw-11" data-name="draw" transform="translate(216.469 2453)" opacity="0.05">
        <path id="Path_25-11" data-name="Path 25" d="M90.038,5.841,99.653,0,120.707,11.8V23.732l-10.345,5.233L110,17.525Z" transform="translate(-90.038 0.001)" fill="#332c32"/>
        <path id="Path_26-11" data-name="Path 26" d="M90.038,45.4l29.939,17.282-9.615,6.085L90.038,56.472Z" transform="translate(-90.038 -27.506)" fill="#332c32"/>
        <path id="Path_27-11" data-name="Path 27" d="M90.038,95.342l10.271-6.08V100.94l-10.271,6.694Z" transform="translate(-90.038 -54.084)" fill="#332c32"/>
      </g>
    </g>
    <g transform="translate(-176.469 -2317)">
      <g id="draw-12" data-name="draw" transform="translate(216.469 2453)" opacity="0.05">
        <path id="Path_25-12" data-name="Path 25" d="M90.038,5.841,99.653,0,120.707,11.8V23.732l-10.345,5.233L110,17.525Z" transform="translate(-90.038 0.001)" fill="#332c32"/>
        <path id="Path_26-12" data-name="Path 26" d="M90.038,45.4l29.939,17.282-9.615,6.085L90.038,56.472Z" transform="translate(-90.038 -27.506)" fill="#332c32"/>
        <path id="Path_27-12" data-name="Path 27" d="M90.038,95.342l10.271-6.08V100.94l-10.271,6.694Z" transform="translate(-90.038 -54.084)" fill="#332c32"/>
      </g>
    </g>
    <g transform="translate(-136.469 -2317)">
      <g id="draw-13" data-name="draw" transform="translate(216.469 2453)" opacity="0.05">
        <path id="Path_25-13" data-name="Path 25" d="M90.038,5.841,99.653,0,120.707,11.8V23.732l-10.345,5.233L110,17.525Z" transform="translate(-90.038 0.001)" fill="#332c32"/>
        <path id="Path_26-13" data-name="Path 26" d="M90.038,45.4l29.939,17.282-9.615,6.085L90.038,56.472Z" transform="translate(-90.038 -27.506)" fill="#332c32"/>
        <path id="Path_27-13" data-name="Path 27" d="M90.038,95.342l10.271-6.08V100.94l-10.271,6.694Z" transform="translate(-90.038 -54.084)" fill="#332c32"/>
      </g>
    </g>
    <g transform="translate(-96.469 -2317)">
      <g id="draw-14" data-name="draw" transform="translate(216.469 2453)" opacity="0.05">
        <path id="Path_25-14" data-name="Path 25" d="M90.038,5.841,99.653,0,120.707,11.8V23.732l-10.345,5.233L110,17.525Z" transform="translate(-90.038 0.001)" fill="#332c32"/>
        <path id="Path_26-14" data-name="Path 26" d="M90.038,45.4l29.939,17.282-9.615,6.085L90.038,56.472Z" transform="translate(-90.038 -27.506)" fill="#332c32"/>
        <path id="Path_27-14" data-name="Path 27" d="M90.038,95.342l10.271-6.08V100.94l-10.271,6.694Z" transform="translate(-90.038 -54.084)" fill="#332c32"/>
      </g>
    </g>
    <g transform="translate(-56.469 -2317)">
      <g id="draw-15" data-name="draw" transform="translate(216.469 2453)" opacity="0.05">
        <path id="Path_25-15" data-name="Path 25" d="M90.038,5.841,99.653,0,120.707,11.8V23.732l-10.345,5.233L110,17.525Z" transform="translate(-90.038 0.001)" fill="#332c32"/>
        <path id="Path_26-15" data-name="Path 26" d="M90.038,45.4l29.939,17.282-9.615,6.085L90.038,56.472Z" transform="translate(-90.038 -27.506)" fill="#332c32"/>
        <path id="Path_27-15" data-name="Path 27" d="M90.038,95.342l10.271-6.08V100.94l-10.271,6.694Z" transform="translate(-90.038 -54.084)" fill="#332c32"/>
      </g>
    </g>
    <g transform="translate(-216.469 -2249)">
      <g id="draw-16" data-name="draw" transform="translate(216.469 2453)" opacity="0.05">
        <path id="Path_25-16" data-name="Path 25" d="M90.038,5.841,99.653,0,120.707,11.8V23.732l-10.345,5.233L110,17.525Z" transform="translate(-90.038 0.001)" fill="#332c32"/>
        <path id="Path_26-16" data-name="Path 26" d="M90.038,45.4l29.939,17.282-9.615,6.085L90.038,56.472Z" transform="translate(-90.038 -27.506)" fill="#332c32"/>
        <path id="Path_27-16" data-name="Path 27" d="M90.038,95.342l10.271-6.08V100.94l-10.271,6.694Z" transform="translate(-90.038 -54.084)" fill="#332c32"/>
      </g>
    </g>
    <g transform="translate(-176.469 -2249)">
      <g id="draw-17" data-name="draw" transform="translate(216.469 2453)" opacity="0.05">
        <path id="Path_25-17" data-name="Path 25" d="M90.038,5.841,99.653,0,120.707,11.8V23.732l-10.345,5.233L110,17.525Z" transform="translate(-90.038 0.001)" fill="#332c32"/>
        <path id="Path_26-17" data-name="Path 26" d="M90.038,45.4l29.939,17.282-9.615,6.085L90.038,56.472Z" transform="translate(-90.038 -27.506)" fill="#332c32"/>
        <path id="Path_27-17" data-name="Path 27" d="M90.038,95.342l10.271-6.08V100.94l-10.271,6.694Z" transform="translate(-90.038 -54.084)" fill="#332c32"/>
      </g>
    </g>
    <g transform="translate(-136.469 -2249)">
      <g id="draw-18" data-name="draw" transform="translate(216.469 2453)" opacity="0.05">
        <path id="Path_25-18" data-name="Path 25" d="M90.038,5.841,99.653,0,120.707,11.8V23.732l-10.345,5.233L110,17.525Z" transform="translate(-90.038 0.001)" fill="#332c32"/>
        <path id="Path_26-18" data-name="Path 26" d="M90.038,45.4l29.939,17.282-9.615,6.085L90.038,56.472Z" transform="translate(-90.038 -27.506)" fill="#332c32"/>
        <path id="Path_27-18" data-name="Path 27" d="M90.038,95.342l10.271-6.08V100.94l-10.271,6.694Z" transform="translate(-90.038 -54.084)" fill="#332c32"/>
      </g>
    </g>
    <g transform="translate(-96.469 -2249)">
      <g id="draw-19" data-name="draw" transform="translate(216.469 2453)" opacity="0.05">
        <path id="Path_25-19" data-name="Path 25" d="M90.038,5.841,99.653,0,120.707,11.8V23.732l-10.345,5.233L110,17.525Z" transform="translate(-90.038 0.001)" fill="#332c32"/>
        <path id="Path_26-19" data-name="Path 26" d="M90.038,45.4l29.939,17.282-9.615,6.085L90.038,56.472Z" transform="translate(-90.038 -27.506)" fill="#332c32"/>
        <path id="Path_27-19" data-name="Path 27" d="M90.038,95.342l10.271-6.08V100.94l-10.271,6.694Z" transform="translate(-90.038 -54.084)" fill="#332c32"/>
      </g>
    </g>
    <g transform="translate(-56.469 -2249)">
      <g id="draw-20" data-name="draw" transform="translate(216.469 2453)" opacity="0.05">
        <path id="Path_25-20" data-name="Path 25" d="M90.038,5.841,99.653,0,120.707,11.8V23.732l-10.345,5.233L110,17.525Z" transform="translate(-90.038 0.001)" fill="#332c32"/>
        <path id="Path_26-20" data-name="Path 26" d="M90.038,45.4l29.939,17.282-9.615,6.085L90.038,56.472Z" transform="translate(-90.038 -27.506)" fill="#332c32"/>
        <path id="Path_27-20" data-name="Path 27" d="M90.038,95.342l10.271-6.08V100.94l-10.271,6.694Z" transform="translate(-90.038 -54.084)" fill="#332c32"/>
      </g>
    </g>
    <g transform="translate(-216.469 -2181)">
      <g id="draw-21" data-name="draw" transform="translate(216.469 2453)" opacity="0.05">
        <path id="Path_25-21" data-name="Path 25" d="M90.038,5.841,99.653,0,120.707,11.8V23.732l-10.345,5.233L110,17.525Z" transform="translate(-90.038 0.001)" fill="#332c32"/>
        <path id="Path_26-21" data-name="Path 26" d="M90.038,45.4l29.939,17.282-9.615,6.085L90.038,56.472Z" transform="translate(-90.038 -27.506)" fill="#332c32"/>
        <path id="Path_27-21" data-name="Path 27" d="M90.038,95.342l10.271-6.08V100.94l-10.271,6.694Z" transform="translate(-90.038 -54.084)" fill="#332c32"/>
      </g>
    </g>
    <g transform="translate(-176.469 -2181)">
      <g id="draw-22" data-name="draw" transform="translate(216.469 2453)" opacity="0.05">
        <path id="Path_25-22" data-name="Path 25" d="M90.038,5.841,99.653,0,120.707,11.8V23.732l-10.345,5.233L110,17.525Z" transform="translate(-90.038 0.001)" fill="#332c32"/>
        <path id="Path_26-22" data-name="Path 26" d="M90.038,45.4l29.939,17.282-9.615,6.085L90.038,56.472Z" transform="translate(-90.038 -27.506)" fill="#332c32"/>
        <path id="Path_27-22" data-name="Path 27" d="M90.038,95.342l10.271-6.08V100.94l-10.271,6.694Z" transform="translate(-90.038 -54.084)" fill="#332c32"/>
      </g>
    </g>
    <g transform="translate(-136.469 -2181)">
      <g id="draw-23" data-name="draw" transform="translate(216.469 2453)" opacity="0.05">
        <path id="Path_25-23" data-name="Path 25" d="M90.038,5.841,99.653,0,120.707,11.8V23.732l-10.345,5.233L110,17.525Z" transform="translate(-90.038 0.001)" fill="#332c32"/>
        <path id="Path_26-23" data-name="Path 26" d="M90.038,45.4l29.939,17.282-9.615,6.085L90.038,56.472Z" transform="translate(-90.038 -27.506)" fill="#332c32"/>
        <path id="Path_27-23" data-name="Path 27" d="M90.038,95.342l10.271-6.08V100.94l-10.271,6.694Z" transform="translate(-90.038 -54.084)" fill="#332c32"/>
      </g>
    </g>
    <g transform="translate(-96.469 -2181)">
      <g id="draw-24" data-name="draw" transform="translate(216.469 2453)" opacity="0.05">
        <path id="Path_25-24" data-name="Path 25" d="M90.038,5.841,99.653,0,120.707,11.8V23.732l-10.345,5.233L110,17.525Z" transform="translate(-90.038 0.001)" fill="#332c32"/>
        <path id="Path_26-24" data-name="Path 26" d="M90.038,45.4l29.939,17.282-9.615,6.085L90.038,56.472Z" transform="translate(-90.038 -27.506)" fill="#332c32"/>
        <path id="Path_27-24" data-name="Path 27" d="M90.038,95.342l10.271-6.08V100.94l-10.271,6.694Z" transform="translate(-90.038 -54.084)" fill="#332c32"/>
      </g>
    </g>
    <g transform="translate(-56.469 -2181)">
      <g id="draw-25" data-name="draw" transform="translate(216.469 2453)" opacity="0.05">
        <path id="Path_25-25" data-name="Path 25" d="M90.038,5.841,99.653,0,120.707,11.8V23.732l-10.345,5.233L110,17.525Z" transform="translate(-90.038 0.001)" fill="#332c32"/>
        <path id="Path_26-25" data-name="Path 26" d="M90.038,45.4l29.939,17.282-9.615,6.085L90.038,56.472Z" transform="translate(-90.038 -27.506)" fill="#332c32"/>
        <path id="Path_27-25" data-name="Path 27" d="M90.038,95.342l10.271-6.08V100.94l-10.271,6.694Z" transform="translate(-90.038 -54.084)" fill="#332c32"/>
      </g>
    </g>
    <g transform="translate(-216.469 -2113)">
      <g id="draw-26" data-name="draw" transform="translate(216.469 2453)" opacity="0.05">
        <path id="Path_25-26" data-name="Path 25" d="M90.038,5.841,99.653,0,120.707,11.8V23.732l-10.345,5.233L110,17.525Z" transform="translate(-90.038 0.001)" fill="#332c32"/>
        <path id="Path_26-26" data-name="Path 26" d="M90.038,45.4l29.939,17.282-9.615,6.085L90.038,56.472Z" transform="translate(-90.038 -27.506)" fill="#332c32"/>
        <path id="Path_27-26" data-name="Path 27" d="M90.038,95.342l10.271-6.08V100.94l-10.271,6.694Z" transform="translate(-90.038 -54.084)" fill="#332c32"/>
      </g>
    </g>
    <g transform="translate(-176.469 -2113)">
      <g id="draw-27" data-name="draw" transform="translate(216.469 2453)" opacity="0.05">
        <path id="Path_25-27" data-name="Path 25" d="M90.038,5.841,99.653,0,120.707,11.8V23.732l-10.345,5.233L110,17.525Z" transform="translate(-90.038 0.001)" fill="#332c32"/>
        <path id="Path_26-27" data-name="Path 26" d="M90.038,45.4l29.939,17.282-9.615,6.085L90.038,56.472Z" transform="translate(-90.038 -27.506)" fill="#332c32"/>
        <path id="Path_27-27" data-name="Path 27" d="M90.038,95.342l10.271-6.08V100.94l-10.271,6.694Z" transform="translate(-90.038 -54.084)" fill="#332c32"/>
      </g>
    </g>
    <g transform="translate(-136.469 -2113)">
      <g id="draw-28" data-name="draw" transform="translate(216.469 2453)" opacity="0.05">
        <path id="Path_25-28" data-name="Path 25" d="M90.038,5.841,99.653,0,120.707,11.8V23.732l-10.345,5.233L110,17.525Z" transform="translate(-90.038 0.001)" fill="#332c32"/>
        <path id="Path_26-28" data-name="Path 26" d="M90.038,45.4l29.939,17.282-9.615,6.085L90.038,56.472Z" transform="translate(-90.038 -27.506)" fill="#332c32"/>
        <path id="Path_27-28" data-name="Path 27" d="M90.038,95.342l10.271-6.08V100.94l-10.271,6.694Z" transform="translate(-90.038 -54.084)" fill="#332c32"/>
      </g>
    </g>
    <g transform="translate(-96.469 -2113)">
      <g id="draw-29" data-name="draw" transform="translate(216.469 2453)" opacity="0.05">
        <path id="Path_25-29" data-name="Path 25" d="M90.038,5.841,99.653,0,120.707,11.8V23.732l-10.345,5.233L110,17.525Z" transform="translate(-90.038 0.001)" fill="#332c32"/>
        <path id="Path_26-29" data-name="Path 26" d="M90.038,45.4l29.939,17.282-9.615,6.085L90.038,56.472Z" transform="translate(-90.038 -27.506)" fill="#332c32"/>
        <path id="Path_27-29" data-name="Path 27" d="M90.038,95.342l10.271-6.08V100.94l-10.271,6.694Z" transform="translate(-90.038 -54.084)" fill="#332c32"/>
      </g>
    </g>
    <g transform="translate(-56.469 -2113)">
      <g id="draw-30" data-name="draw" transform="translate(216.469 2453)" opacity="0.05">
        <path id="Path_25-30" data-name="Path 25" d="M90.038,5.841,99.653,0,120.707,11.8V23.732l-10.345,5.233L110,17.525Z" transform="translate(-90.038 0.001)" fill="#332c32"/>
        <path id="Path_26-30" data-name="Path 26" d="M90.038,45.4l29.939,17.282-9.615,6.085L90.038,56.472Z" transform="translate(-90.038 -27.506)" fill="#332c32"/>
        <path id="Path_27-30" data-name="Path 27" d="M90.038,95.342l10.271-6.08V100.94l-10.271,6.694Z" transform="translate(-90.038 -54.084)" fill="#332c32"/>
      </g>
    </g>
    <g transform="translate(-216.469 -2045)">
      <g id="draw-31" data-name="draw" transform="translate(216.469 2453)" opacity="0.05">
        <path id="Path_25-31" data-name="Path 25" d="M90.038,5.841,99.653,0,120.707,11.8V23.732l-10.345,5.233L110,17.525Z" transform="translate(-90.038 0.001)" fill="#332c32"/>
        <path id="Path_26-31" data-name="Path 26" d="M90.038,45.4l29.939,17.282-9.615,6.085L90.038,56.472Z" transform="translate(-90.038 -27.506)" fill="#332c32"/>
        <path id="Path_27-31" data-name="Path 27" d="M90.038,95.342l10.271-6.08V100.94l-10.271,6.694Z" transform="translate(-90.038 -54.084)" fill="#332c32"/>
      </g>
    </g>
    <g transform="translate(-176.469 -2045)">
      <g id="draw-32" data-name="draw" transform="translate(216.469 2453)" opacity="0.05">
        <path id="Path_25-32" data-name="Path 25" d="M90.038,5.841,99.653,0,120.707,11.8V23.732l-10.345,5.233L110,17.525Z" transform="translate(-90.038 0.001)" fill="#332c32"/>
        <path id="Path_26-32" data-name="Path 26" d="M90.038,45.4l29.939,17.282-9.615,6.085L90.038,56.472Z" transform="translate(-90.038 -27.506)" fill="#332c32"/>
        <path id="Path_27-32" data-name="Path 27" d="M90.038,95.342l10.271-6.08V100.94l-10.271,6.694Z" transform="translate(-90.038 -54.084)" fill="#332c32"/>
      </g>
    </g>
    <g transform="translate(-136.469 -2045)">
      <g id="draw-33" data-name="draw" transform="translate(216.469 2453)" opacity="0.05">
        <path id="Path_25-33" data-name="Path 25" d="M90.038,5.841,99.653,0,120.707,11.8V23.732l-10.345,5.233L110,17.525Z" transform="translate(-90.038 0.001)" fill="#332c32"/>
        <path id="Path_26-33" data-name="Path 26" d="M90.038,45.4l29.939,17.282-9.615,6.085L90.038,56.472Z" transform="translate(-90.038 -27.506)" fill="#332c32"/>
        <path id="Path_27-33" data-name="Path 27" d="M90.038,95.342l10.271-6.08V100.94l-10.271,6.694Z" transform="translate(-90.038 -54.084)" fill="#332c32"/>
      </g>
    </g>
    <g transform="translate(-96.469 -2045)">
      <g id="draw-34" data-name="draw" transform="translate(216.469 2453)" opacity="0.05">
        <path id="Path_25-34" data-name="Path 25" d="M90.038,5.841,99.653,0,120.707,11.8V23.732l-10.345,5.233L110,17.525Z" transform="translate(-90.038 0.001)" fill="#332c32"/>
        <path id="Path_26-34" data-name="Path 26" d="M90.038,45.4l29.939,17.282-9.615,6.085L90.038,56.472Z" transform="translate(-90.038 -27.506)" fill="#332c32"/>
        <path id="Path_27-34" data-name="Path 27" d="M90.038,95.342l10.271-6.08V100.94l-10.271,6.694Z" transform="translate(-90.038 -54.084)" fill="#332c32"/>
      </g>
    </g>
    <g transform="translate(-56.469 -2045)">
      <g id="draw-35" data-name="draw" transform="translate(216.469 2453)" opacity="0.05">
        <path id="Path_25-35" data-name="Path 25" d="M90.038,5.841,99.653,0,120.707,11.8V23.732l-10.345,5.233L110,17.525Z" transform="translate(-90.038 0.001)" fill="#332c32"/>
        <path id="Path_26-35" data-name="Path 26" d="M90.038,45.4l29.939,17.282-9.615,6.085L90.038,56.472Z" transform="translate(-90.038 -27.506)" fill="#332c32"/>
        <path id="Path_27-35" data-name="Path 27" d="M90.038,95.342l10.271-6.08V100.94l-10.271,6.694Z" transform="translate(-90.038 -54.084)" fill="#332c32"/>
      </g>
    </g>
    <g transform="translate(-216.469 -1977)">
      <g id="draw-36" data-name="draw" transform="translate(216.469 2453)" opacity="0.05">
        <path id="Path_25-36" data-name="Path 25" d="M90.038,5.841,99.653,0,120.707,11.8V23.732l-10.345,5.233L110,17.525Z" transform="translate(-90.038 0.001)" fill="#332c32"/>
        <path id="Path_26-36" data-name="Path 26" d="M90.038,45.4l29.939,17.282-9.615,6.085L90.038,56.472Z" transform="translate(-90.038 -27.506)" fill="#332c32"/>
        <path id="Path_27-36" data-name="Path 27" d="M90.038,95.342l10.271-6.08V100.94l-10.271,6.694Z" transform="translate(-90.038 -54.084)" fill="#332c32"/>
      </g>
    </g>
    <g transform="translate(-176.469 -1977)">
      <g id="draw-37" data-name="draw" transform="translate(216.469 2453)" opacity="0.05">
        <path id="Path_25-37" data-name="Path 25" d="M90.038,5.841,99.653,0,120.707,11.8V23.732l-10.345,5.233L110,17.525Z" transform="translate(-90.038 0.001)" fill="#332c32"/>
        <path id="Path_26-37" data-name="Path 26" d="M90.038,45.4l29.939,17.282-9.615,6.085L90.038,56.472Z" transform="translate(-90.038 -27.506)" fill="#332c32"/>
        <path id="Path_27-37" data-name="Path 27" d="M90.038,95.342l10.271-6.08V100.94l-10.271,6.694Z" transform="translate(-90.038 -54.084)" fill="#332c32"/>
      </g>
    </g>
    <g transform="translate(-136.469 -1977)">
      <g id="draw-38" data-name="draw" transform="translate(216.469 2453)" opacity="0.05">
        <path id="Path_25-38" data-name="Path 25" d="M90.038,5.841,99.653,0,120.707,11.8V23.732l-10.345,5.233L110,17.525Z" transform="translate(-90.038 0.001)" fill="#332c32"/>
        <path id="Path_26-38" data-name="Path 26" d="M90.038,45.4l29.939,17.282-9.615,6.085L90.038,56.472Z" transform="translate(-90.038 -27.506)" fill="#332c32"/>
        <path id="Path_27-38" data-name="Path 27" d="M90.038,95.342l10.271-6.08V100.94l-10.271,6.694Z" transform="translate(-90.038 -54.084)" fill="#332c32"/>
      </g>
    </g>
    <g transform="translate(-96.469 -1977)">
      <g id="draw-39" data-name="draw" transform="translate(216.469 2453)" opacity="0.05">
        <path id="Path_25-39" data-name="Path 25" d="M90.038,5.841,99.653,0,120.707,11.8V23.732l-10.345,5.233L110,17.525Z" transform="translate(-90.038 0.001)" fill="#332c32"/>
        <path id="Path_26-39" data-name="Path 26" d="M90.038,45.4l29.939,17.282-9.615,6.085L90.038,56.472Z" transform="translate(-90.038 -27.506)" fill="#332c32"/>
        <path id="Path_27-39" data-name="Path 27" d="M90.038,95.342l10.271-6.08V100.94l-10.271,6.694Z" transform="translate(-90.038 -54.084)" fill="#332c32"/>
      </g>
    </g>
    <g transform="translate(-56.469 -1977)">
      <g id="draw-40" data-name="draw" transform="translate(216.469 2453)" opacity="0.05">
        <path id="Path_25-40" data-name="Path 25" d="M90.038,5.841,99.653,0,120.707,11.8V23.732l-10.345,5.233L110,17.525Z" transform="translate(-90.038 0.001)" fill="#332c32"/>
        <path id="Path_26-40" data-name="Path 26" d="M90.038,45.4l29.939,17.282-9.615,6.085L90.038,56.472Z" transform="translate(-90.038 -27.506)" fill="#332c32"/>
        <path id="Path_27-40" data-name="Path 27" d="M90.038,95.342l10.271-6.08V100.94l-10.271,6.694Z" transform="translate(-90.038 -54.084)" fill="#332c32"/>
      </g>
    </g>
    <g transform="translate(-216.469 -1909)">
      <g id="draw-41" data-name="draw" transform="translate(216.469 2453)" opacity="0.05">
        <path id="Path_25-41" data-name="Path 25" d="M90.038,5.841,99.653,0,120.707,11.8V23.732l-10.345,5.233L110,17.525Z" transform="translate(-90.038 0.001)" fill="#332c32"/>
        <path id="Path_26-41" data-name="Path 26" d="M90.038,45.4l29.939,17.282-9.615,6.085L90.038,56.472Z" transform="translate(-90.038 -27.506)" fill="#332c32"/>
        <path id="Path_27-41" data-name="Path 27" d="M90.038,95.342l10.271-6.08V100.94l-10.271,6.694Z" transform="translate(-90.038 -54.084)" fill="#332c32"/>
      </g>
    </g>
    <g transform="translate(-176.469 -1909)">
      <g id="draw-42" data-name="draw" transform="translate(216.469 2453)" opacity="0.05">
        <path id="Path_25-42" data-name="Path 25" d="M90.038,5.841,99.653,0,120.707,11.8V23.732l-10.345,5.233L110,17.525Z" transform="translate(-90.038 0.001)" fill="#332c32"/>
        <path id="Path_26-42" data-name="Path 26" d="M90.038,45.4l29.939,17.282-9.615,6.085L90.038,56.472Z" transform="translate(-90.038 -27.506)" fill="#332c32"/>
        <path id="Path_27-42" data-name="Path 27" d="M90.038,95.342l10.271-6.08V100.94l-10.271,6.694Z" transform="translate(-90.038 -54.084)" fill="#332c32"/>
      </g>
    </g>
    <g transform="translate(-136.469 -1909)">
      <g id="draw-43" data-name="draw" transform="translate(216.469 2453)" opacity="0.05">
        <path id="Path_25-43" data-name="Path 25" d="M90.038,5.841,99.653,0,120.707,11.8V23.732l-10.345,5.233L110,17.525Z" transform="translate(-90.038 0.001)" fill="#332c32"/>
        <path id="Path_26-43" data-name="Path 26" d="M90.038,45.4l29.939,17.282-9.615,6.085L90.038,56.472Z" transform="translate(-90.038 -27.506)" fill="#332c32"/>
        <path id="Path_27-43" data-name="Path 27" d="M90.038,95.342l10.271-6.08V100.94l-10.271,6.694Z" transform="translate(-90.038 -54.084)" fill="#332c32"/>
      </g>
    </g>
    <g transform="translate(-96.469 -1909)">
      <g id="draw-44" data-name="draw" transform="translate(216.469 2453)" opacity="0.05">
        <path id="Path_25-44" data-name="Path 25" d="M90.038,5.841,99.653,0,120.707,11.8V23.732l-10.345,5.233L110,17.525Z" transform="translate(-90.038 0.001)" fill="#332c32"/>
        <path id="Path_26-44" data-name="Path 26" d="M90.038,45.4l29.939,17.282-9.615,6.085L90.038,56.472Z" transform="translate(-90.038 -27.506)" fill="#332c32"/>
        <path id="Path_27-44" data-name="Path 27" d="M90.038,95.342l10.271-6.08V100.94l-10.271,6.694Z" transform="translate(-90.038 -54.084)" fill="#332c32"/>
      </g>
    </g>
    <g transform="translate(-56.469 -1909)">
      <g id="draw-45" data-name="draw" transform="translate(216.469 2453)" opacity="0.05">
        <path id="Path_25-45" data-name="Path 25" d="M90.038,5.841,99.653,0,120.707,11.8V23.732l-10.345,5.233L110,17.525Z" transform="translate(-90.038 0.001)" fill="#332c32"/>
        <path id="Path_26-45" data-name="Path 26" d="M90.038,45.4l29.939,17.282-9.615,6.085L90.038,56.472Z" transform="translate(-90.038 -27.506)" fill="#332c32"/>
        <path id="Path_27-45" data-name="Path 27" d="M90.038,95.342l10.271-6.08V100.94l-10.271,6.694Z" transform="translate(-90.038 -54.084)" fill="#332c32"/>
      </g>
    </g>
  </g>
</svg>
