<svg xmlns="http://www.w3.org/2000/svg" width="59.808" height="31.047" viewBox="0 0 59.808 31.047">
  <g id="visa" transform="translate(-189.383 0.28)">
    <rect id="visa-2" data-name="visa" width="59.248" height="30.487" rx="6.32" transform="translate(189.663)" fill="#fff" stroke="#e7e7e7" stroke-width="0.56"/>
    <rect id="svg_33" width="32.591" height="2.921" transform="translate(202.991 22.567)" fill="#f6941c"/>
    <rect id="svg_34" width="32.591" height="2.921" transform="translate(202.991 5.194)" fill="#000664"/>
    <path id="svg_35" d="M339.551,24.987l-3.369,8.031h-2.194L332.325,26.6c-.1-.4-.182-.539-.493-.7a8.628,8.628,0,0,0-2.051-.688l.052-.234h3.545a.948.948,0,0,1,.948.818l.87,4.648,2.168-5.492h2.188Zm8.609,5.408c0-2.123-2.934-2.233-2.909-3.181,0-.286.279-.591.876-.649a3.772,3.772,0,0,1,2.052.357l.364-1.694a5.668,5.668,0,0,0-1.948-.357c-2.052,0-3.5,1.091-3.512,2.655,0,1.162,1.039,1.8,1.811,2.188s1.091.649,1.078.993c0,.539-.649.779-1.24.786a4.3,4.3,0,0,1-2.136-.506l-.338,1.759a6.252,6.252,0,0,0,2.311.428c2.181,0,3.616-1.091,3.623-2.759m5.421,2.6h1.915l-1.675-8.031h-1.772a.922.922,0,0,0-.883.591l-3.116,7.44h2.181l.435-1.2h2.668Zm-2.357-2.863,1.1-3.012.649,3.012Zm-8.732-5.194-1.72,8.031h-2.071l1.72-8.031Z" transform="translate(-123.354 -13.651)" fill="#000664"/>
  </g>
</svg>
