<svg id="Group_68002" data-name="Group 68002" xmlns="http://www.w3.org/2000/svg" xmlns:xlink="http://www.w3.org/1999/xlink" width="24.903" height="22.691" viewBox="0 0 24.903 22.691">
  <defs>
    <clipPath id="clip-path">
      <rect id="Rectangle_148067" data-name="Rectangle 148067" width="24.903" height="22.691" fill="none"/>
    </clipPath>
  </defs>
  <g id="Group_68001" data-name="Group 68001" clip-path="url(#clip-path)">
    <path id="Path_35807" data-name="Path 35807" d="M10.989,14.432c-2.2,2.518-4.368,4.957-6.482,7.44a1.864,1.864,0,0,1-1.758.805,18.207,18.207,0,0,0-1.862-.012l8.765-10.1L0,.013H2.941C4.33.013,5.719.035,7.106,0A1.132,1.132,0,0,1,8.137.52c1.629,2.131,3.278,4.247,4.921,6.368.154.2.313.394.5.634l4.313-4.944c.654-.75,1.3-1.506,1.967-2.245a.842.842,0,0,1,.493-.3C21.206,0,22.078.014,23.107.014L14.9,9.384l10,13.223c-.221.023-.387.056-.554.056-2.129,0-4.258.021-6.387-.018a1.331,1.331,0,0,1-.9-.452c-1.942-2.444-3.85-4.916-5.768-7.379-.083-.107-.17-.211-.308-.381m9.359,5.744a1.871,1.871,0,0,0-.125-.282q-6.557-8.6-13.121-17.2c-.092-.12-.233-.279-.357-.284C6.074,2.38,5.4,2.395,4.6,2.395L5.63,3.739q6.1,8,12.2,15.983a1.364,1.364,0,0,0,.837.434,13.185,13.185,0,0,0,1.677.02" transform="translate(0 0)"/>
  </g>
</svg>
