<svg xmlns="http://www.w3.org/2000/svg" xmlns:xlink="http://www.w3.org/1999/xlink" width="59.808" height="31.047" viewBox="0 0 59.808 31.047">
  <defs>
    <clipPath id="clip-path">
      <rect id="svg_2" width="27.722" height="11.472" fill="none"/>
    </clipPath>
  </defs>
  <g id="تمارا" transform="translate(0.28 0.28)">
    <rect id="svg_10" width="59.248" height="30.487" rx="6.32" fill="#fff" stroke="#e7e7e7" stroke-width="0.56"/>
    <g id="svg_39" transform="translate(8.888 9.972)" clip-path="url(#clip-path)">
      <path id="svg_40" d="M169.711,81.5a.428.428,0,0,0-.3.2c-.162.312-.286.649-.441.961a.3.3,0,0,0,.078.4,10.724,10.724,0,0,1,.915,1.117,1.026,1.026,0,0,1-.13,1.383,3.954,3.954,0,0,1-1.045.76c-.558.266-1.162.435-1.74.649a.3.3,0,0,0-.214.2.247.247,0,0,0,.162.312c.649.292,1.35.558,2.052.85.227-.344.454-.649.649-1a5.5,5.5,0,0,0,.325-5.629.415.415,0,0,0-.312-.2Zm23.937-2.357h0a.824.824,0,0,0-1.344.273.811.811,0,0,0,.182.9h0a.812.812,0,0,0,1.169,0,.825.825,0,0,0,.175-.9A.9.9,0,0,0,193.647,79.141Zm-3.428,0a1.039,1.039,0,0,0-.188.286l1.247,1.084a.682.682,0,0,0,.175-.13h0a.875.875,0,0,0-1.234-1.24Zm-18.555-.558s-.305.649-.448.967a1.1,1.1,0,0,0-.084.435c.052,1.143.1,2.285.182,3.428a2.8,2.8,0,0,0,1.727,2.532,6.408,6.408,0,0,0,2.357.545c1.026.058,2.052.091,3.084.1a24.554,24.554,0,0,0,5.07-.441,14.4,14.4,0,0,0,2.409-.649c.312-.169.292-.13.61-.045a10.323,10.323,0,0,0,3.382,0c.389-.117.747-.208.837-.48.357.571.558.857,1.175.8a6.493,6.493,0,0,0,1.3-.221,1.331,1.331,0,0,0,1.032-.935,3.5,3.5,0,0,0,.11-.649,3.246,3.246,0,0,0-.5-2.259.344.344,0,0,0-.39-.2c-.078,0-.2.13-.253.227-.156.305-.273.649-.422.928a.312.312,0,0,0,.084.416c.312.292.61.584.9.883-.649.071-.909.149-1.493.195s-1.656,0-1.948-.5a2.422,2.422,0,0,0-.714-.915,2.3,2.3,0,0,0-2.363,0,1.487,1.487,0,0,0-.812.993.416.416,0,0,1-.312.409,30.7,30.7,0,0,1-10.517.889,9.441,9.441,0,0,1-2.454-.539,1.461,1.461,0,0,1-1.006-1.532V78.732a.273.273,0,0,0-.247-.292h0c-.11,0-.253.253-.253.253Zm18.016,5.843h-2.727a1.4,1.4,0,0,1,1.3-1.123c1.6-.058,1.415,1.156,1.415,1.156Z" transform="translate(-166.815 -76.927)"/>
      <path id="svg_41" d="M167.983,78.749a.273.273,0,0,0-.247-.3h0c-.11,0-.253.253-.253.253s-.312.649-.448.974a1,1,0,0,0-.084.435c0,.558.045,1.123.071,1.681l.117,2.4q.039.734.078,1.48h.448a9.487,9.487,0,0,0,.318-1.662C167.983,83.261,167.983,79.755,167.983,78.749Z" transform="translate(-166.86 -76.931)"/>
    </g>
    <path id="svg_42" d="M227.809,82.813l-.078-.078a2.637,2.637,0,1,0-3.72,3.739l.078.071a2.6,2.6,0,0,0,3.72,0,2.642,2.642,0,0,0,.571-2.876A2.831,2.831,0,0,0,227.809,82.813Z" transform="translate(-177.715 -68.193)"/>
    <path id="svg_43" d="M213.095,82.946a2.707,2.707,0,0,0-.6.915l3.986,3.473a2.83,2.83,0,0,0,.558-.428l.084-.084a2.746,2.746,0,0,0,0-3.954,2.792,2.792,0,0,0-3.947,0Z" transform="translate(-173.947 -68.222)"/>
  </g>
</svg>
