<svg xmlns="http://www.w3.org/2000/svg" xmlns:xlink="http://www.w3.org/1999/xlink" width="59.808" height="31.047" viewBox="0 0 59.808 31.047">
  <defs>
    <clipPath id="clip-path">
      <rect id="svg_1" width="40.875" height="13.66" fill="none"/>
    </clipPath>
  </defs>
  <g id="مدي" transform="translate(-126.162 0.28)">
    <rect id="mada" width="59.248" height="30.487" rx="6.32" transform="translate(126.442)" fill="#fff" stroke="#e7e7e7" stroke-width="0.56"/>
    <g id="svg_17" transform="translate(135.589 8.511)" clip-path="url(#clip-path)">
      <rect id="svg_18" width="17.302" height="5.759" transform="translate(0 7.869)" fill="#76aa29"/>
    </g>
    <g id="svg_19" transform="translate(135.589 8.511)" clip-path="url(#clip-path)">
      <rect id="svg_20" width="17.302" height="5.772" fill="#2889ce"/>
    </g>
    <g id="svg_21" transform="translate(135.589 8.511)" clip-path="url(#clip-path)">
      <path id="svg_22" d="M272.5,31.411h-.143v2.006h-.117a2.715,2.715,0,0,0-.766-.136c-1.681,0-2.045,1.3-2.045,2.344a2.078,2.078,0,0,0,2.253,2.3,4.772,4.772,0,0,0,1.506-.208.649.649,0,0,0,.571-.734V31.21c-.409.084-.818.149-1.227.214m-.143,5.421h-.072a2.466,2.466,0,0,1-.578.071c-.448,0-.987-.227-.987-1.3,0-.558.091-1.3.941-1.3h0a2.454,2.454,0,0,1,.61.123h.065Z" transform="translate(-237.77 -24.387)" fill="#1d1f22"/>
    </g>
    <g id="svg_23" transform="translate(135.589 8.511)" clip-path="url(#clip-path)">
      <path id="svg_24" d="M279.5,34.35a5.668,5.668,0,0,0-1.714.3l-.422.13.136.974.428-.143a4.966,4.966,0,0,1,1.4-.24c.182,0,.753,0,.753.61v.26H279.3c-1.428,0-2.1.461-2.1,1.448,0,.837.617,1.344,1.643,1.344a5.292,5.292,0,0,0,1.136-.156h.175l1.22.221V35.915c0-1.039-.649-1.565-1.87-1.565m.591,3.629h-.071l-.253.065a2.291,2.291,0,0,1-.649.1c-.4,0-.649-.2-.649-.526,0-.221.1-.578.747-.578h.837Z" transform="translate(-240.5 -25.488)" fill="#1d1f22"/>
    </g>
    <g id="svg_25" transform="translate(135.589 8.511)" clip-path="url(#clip-path)">
      <path id="svg_26" d="M264.155,34.35a5.6,5.6,0,0,0-1.714.3l-.428.13.143.974.428-.143a4.966,4.966,0,0,1,1.4-.24c.188,0,.753,0,.753.61v.26h-.786c-1.428,0-2.1.461-2.1,1.448,0,.837.61,1.344,1.636,1.344a5.4,5.4,0,0,0,1.143-.156h.162c.4.078.818.143,1.221.234V35.928c0-1.052-.649-1.578-1.857-1.578m.578,3.629h-.071l-.253.065a2.221,2.221,0,0,1-.649.1c-.4,0-.649-.2-.649-.526,0-.221.1-.578.747-.578h.837Z" transform="translate(-235.115 -25.488)" fill="#1d1f22"/>
    </g>
    <g id="svg_31" transform="translate(135.589 8.511)" clip-path="url(#clip-path)">
      <path id="svg_32" d="M258.178,26.131h.065c1.428,0,2.1-.467,2.1-1.636a1.5,1.5,0,0,0-1.636-1.513h-1.3a.571.571,0,0,1-.649-.6c0-.253.1-.584.747-.584h2.883c.065-.37.091-.61.156-.98h-3c-1.4,0-2.1.591-2.1,1.565s.61,1.461,1.643,1.461h1.3a.652.652,0,1,1-.091,1.3H253.1c-.649,0-1.1-.377-1.1-1.227v-.591c0-.9.344-1.454,1.1-1.454h1.253c.058-.383.091-.649.143-.98H252.77a2.13,2.13,0,0,0-2.194,2.35v.649A2.026,2.026,0,0,0,252.77,26.1H258.2Z" transform="translate(-231.157 -20.742)" fill="#1d1f22"/>
    </g>
    <g id="svg_29" transform="translate(135.589 8.511)" clip-path="url(#clip-path)">
      <path id="svg_30" d="M275.374,20.695h-.032a2.428,2.428,0,0,0-1.876.649,1.3,1.3,0,0,0-.253.76v2.032c0,.175,0,.24-.046.253l-.039.084h-2.48V23.052h0a2.116,2.116,0,0,0-2.2-2.311h-1.253c-.058.357-.091.649-.143.98H268.3c.649,0,.993.558.993,1.409v1.435l-.091-.045a.929.929,0,0,0-.292-.045h-2.142c-.045.273-.091.649-.156.987h6.6l.714-.123a3.61,3.61,0,0,0,1.376.253,2.253,2.253,0,0,0,2.357-2.435,2.253,2.253,0,0,0-2.285-2.461m0,3.759a4.07,4.07,0,0,1-.792-.078H274.5V22.428a1.368,1.368,0,0,0,0-.279l-.045-.091.091-.032h.156a3.246,3.246,0,0,1,.7-.084h0c.838,0,.935.74.935,1.3,0,1.1-.519,1.3-.974,1.3" transform="translate(-236.785 -20.695)" fill="#1d1f22"/>
    </g>
    <g id="svg_27" transform="translate(135.589 8.511)" clip-path="url(#clip-path)">
      <path id="svg_28" d="M255.4,34.367a3.48,3.48,0,0,0-1.389.305h-.1a2.117,2.117,0,0,0-1.247-.305,5.336,5.336,0,0,0-1.474.221c-.435.13-.6.338-.6.74V38.99h1.37v-3.4h.065a1.947,1.947,0,0,1,.6-.11.545.545,0,0,1,.6.649v2.9h1.344V36.029a.76.76,0,0,0-.045-.3l-.039-.084.084-.045a1.759,1.759,0,0,1,.649-.143.545.545,0,0,1,.6.649V39h1.35V35.951c0-1.071-.591-1.584-1.785-1.584" transform="translate(-231.165 -25.493)" fill="#1d1f22"/>
    </g>
  </g>
</svg>
