<svg xmlns="http://www.w3.org/2000/svg" width="54" height="36" viewBox="0 0 54 36">
  <g id="Group_67843" data-name="Group 67843" transform="translate(-10810 2317)">
    <circle id="Ellipse_1225" data-name="Ellipse 1225" cx="18" cy="18" r="18" transform="translate(10810 -2317)" fill="#30341d"/>
    <circle id="Ellipse_1224" data-name="Ellipse 1224" cx="18" cy="18" r="18" transform="translate(10828 -2317)" fill="#30341d"/>
    <g id="Intersection_1" data-name="Intersection 1" transform="translate(10810 -2316.408)" fill="#30341d">
      <path d="M 27 33.01153945922852 C 24.49738121032715 31.50782203674316 22.39677429199219 29.39083099365234 20.91301918029785 26.87365341186523 C 19.33440971374512 24.1955451965332 18.5 21.12708473205566 18.5 18.00000381469727 C 18.5 14.87291431427002 19.33440971374512 11.80445384979248 20.91301918029785 9.126344680786133 C 22.39677429199219 6.609157562255859 24.49738121032715 4.492166519165039 27 2.988448858261108 C 29.50261878967285 4.492166519165039 31.60322570800781 6.609157562255859 33.08697891235352 9.126344680786133 C 34.66558837890625 11.80445384979248 35.5 14.87291431427002 35.5 18.00000381469727 C 35.5 21.12708473205566 34.66558837890625 24.1955451965332 33.08697891235352 26.87365341186523 C 31.60322570800781 29.39083099365234 29.50261878967285 31.50782203674316 27 33.01153945922852 Z" stroke="none"/>
      <path d="M 27 32.42509078979492 C 29.31804847717285 30.97548484802246 31.26589202880859 28.97846412658691 32.6562385559082 26.61975479125977 C 34.18954086303711 24.01851463317871 35 21.03785514831543 35 18.00000381469727 C 35 14.96214389801025 34.18954086303711 11.98148441314697 32.6562385559082 9.380244255065918 C 31.26589202880859 7.021533966064453 29.31804847717285 5.024504661560059 26.99999809265137 3.574896574020386 C 24.68194198608398 5.024503231048584 22.73409843444824 7.021524429321289 21.34375953674316 9.380244255065918 C 19.81045913696289 11.98148441314697 19 14.96214389801025 19 18.00000381469727 C 19 21.03785514831543 19.81045913696289 24.01851463317871 21.34375953674316 26.61975479125977 C 22.73409843444824 28.97846412658691 24.68194198608398 30.97548484802246 27 32.42509078979492 M 27 33.59195327758789 C 21.61941909790039 30.47982406616211 18 24.66299438476562 18 18.00000381469727 C 18 11.33700466156006 21.61941909790039 5.520164489746094 27 2.408034324645996 C 32.38056945800781 5.520164489746094 36 11.33700466156006 36 18.00000381469727 C 36 24.66299438476562 32.38056945800781 30.47982406616211 27 33.59195327758789 Z" stroke="none" fill="#fff"/>
    </g>
  </g>
</svg>
