<svg xmlns="http://www.w3.org/2000/svg" width="23.17" height="23.199" viewBox="0 0 23.17 23.199">
  <path id="call-icon" d="M3.316,7.5a1.707,1.707,0,0,1,.434-.927L7.226,3.1q.406-.348.608.116l2.81,5.272a.758.758,0,0,1-.145.9L9.225,10.656a1.441,1.441,0,0,0-.406.9,4.422,4.422,0,0,0,.9,2.23A19.047,19.047,0,0,0,11.484,16.1l.9.926c.271.271.617.6,1.044,1a17.488,17.488,0,0,0,2.1,1.564,4.7,4.7,0,0,0,2.3.97,1.261,1.261,0,0,0,.927-.377l1.507-1.506a.637.637,0,0,1,.868-.116l5.07,2.984a.423.423,0,0,1,.232.3.37.37,0,0,1-.116.333L22.84,25.661a1.7,1.7,0,0,1-.926.434,7.008,7.008,0,0,1-3.2-.391,14.485,14.485,0,0,1-3.3-1.579q-1.521-.984-2.824-2T10.5,20.389l-.753-.725q-.289-.289-.768-.8t-1.667-2a29.091,29.091,0,0,1-2.057-2.911,16.982,16.982,0,0,1-1.506-3.23A6.871,6.871,0,0,1,3.316,7.5Z" transform="translate(-3.267 -2.947)" fill="#fff"/>
</svg>
