<svg xmlns="http://www.w3.org/2000/svg" width="29.202" height="24.78" viewBox="0 0 29.202 24.78">
  <path id="My_Wishes_Button_icon" d="M0,7.87V6.648C.035,6.431.07,6.214.106,6A7.115,7.115,0,0,1,9.118.269,7.362,7.362,0,0,1,13.226,3.41c.123.179.237.364.371.57.147-.225.27-.427.406-.62a7.01,7.01,0,0,1,6.839-3.3,7.136,7.136,0,0,1,6.276,8.275,8.461,8.461,0,0,1-1.773,3.977A23.934,23.934,0,0,1,21.353,16.3c-2.121,1.74-4.274,3.44-6.414,5.158-.447.359-.892.719-1.333,1.075-.043-.027-.067-.039-.087-.055C11.445,20.817,9.366,19.166,7.3,17.5a36.737,36.737,0,0,1-4.846-4.446A9.737,9.737,0,0,1,.3,9.344C.165,8.862.1,8.362,0,7.87" transform="translate(1 1.026)" fill="none" stroke="#fff" stroke-width="2"/>
</svg>
