<svg xmlns="http://www.w3.org/2000/svg" width="27.092" height="31.01" viewBox="0 0 27.092 31.01">
  <g id="acount" transform="translate(-942.548 -167.577)">
    <path id="Path_670" data-name="Path 670" d="M46.783,89.873c-3.067,0-6.135.005-9.2,0a3.119,3.119,0,0,1-3.29-2.614,9.313,9.313,0,0,1,.162-2.995,11.953,11.953,0,0,1,6.971-8.742.658.658,0,0,1,.7.054,8.227,8.227,0,0,0,9.031-.093.609.609,0,0,1,.651-.094,11.962,11.962,0,0,1,7.431,9.829,6.824,6.824,0,0,1,.017,2.061,3.149,3.149,0,0,1-3.088,2.593c-.165.006-.331,0-.5,0H46.783" transform="translate(909.316 107.713)" fill="none" stroke="#707070" stroke-width="2"/>
    <path id="Path_671" data-name="Path 671" d="M60.78,46.222a5.891,5.891,0,1,1,5.882-5.931,5.91,5.91,0,0,1-5.882,5.931" transform="translate(895.115 134.137)" fill="none" stroke="#707070" stroke-width="2"/>
  </g>
</svg>
