<svg xmlns="http://www.w3.org/2000/svg" xmlns:xlink="http://www.w3.org/1999/xlink" width="54.265" height="54.257" viewBox="0 0 54.265 54.257">
  <defs>
    <clipPath id="clip-path">
      <rect id="Rectangle_147983" data-name="Rectangle 147983" width="54.265" height="54.257" fill="#d17a52"/>
    </clipPath>
  </defs>
  <g id="allorder-orange" clip-path="url(#clip-path)">
    <path id="Path_35796" data-name="Path 35796" d="M192.383,151.276a5.556,5.556,0,0,1-.806.644c-4.725,2.534-9.461,5.046-14.182,7.588a1.389,1.389,0,0,1-1.6-.049q-7.168-4.56-14.374-9.059a1.009,1.009,0,0,1-.521-.955q.012-6.357,0-12.714a1.165,1.165,0,0,1,.71-1.125q7.257-3.875,14.5-7.778a1.037,1.037,0,0,1,1.124.131q6.763,3.679,13.52,7.367a19.436,19.436,0,0,1,1.632,1.115Zm-29.872-13.394a2.9,2.9,0,0,0-.041.316c0,3.514-.009,7.029.015,10.543a.873.873,0,0,0,.386.594q4.638,2.967,9.3,5.9l3.5,2.216c.013-.247.03-.417.03-.587,0-3.674-.007-7.347.012-11.02a.811.811,0,0,0-.492-.818Q169.1,141.592,163,138.134c-.147-.083-.3-.154-.49-.252m28.2.294c-1.167.623-2.257,1.192-3.328,1.795-.117.066-.175.323-.177.493-.014,1.271-.026,2.543,0,3.814a1.16,1.16,0,0,1-.69,1.187,26.312,26.312,0,0,0-2.734,1.5c-1.191.8-1.953.392-1.853-1.088.064-.943.012-1.893.012-2.92-.256.124-.429.2-.594.289-1.162.631-2.317,1.277-3.488,1.892a.709.709,0,0,0-.439.731c.015,3.709.009,7.417.009,11.126v.521c.2-.089.345-.144.48-.215q6.209-3.256,12.419-6.507a.672.672,0,0,0,.417-.7c-.012-3.779-.007-7.559-.008-11.338,0-.157-.013-.314-.026-.587m-27.3-1.688a2.165,2.165,0,0,0,.211.165q6.353,3.595,12.714,7.175a.75.75,0,0,0,.61-.039c1.212-.648,2.41-1.325,3.611-1.994.131-.073.254-.161.382-.243-.042-.063-.053-.1-.079-.117q-6.5-3.554-13-7.1a.586.586,0,0,0-.474.016c-1.31.689-2.61,1.4-3.977,2.133m9.8-5.27a1.365,1.365,0,0,0,.169.151q6.415,3.531,12.835,7.053a.531.531,0,0,0,.428.032c1.069-.565,2.126-1.152,3.207-1.743-.07-.074-.1-.122-.142-.146q-6.432-3.5-12.87-6.989a.537.537,0,0,0-.429-.022c-1.052.532-2.093,1.085-3.2,1.664m-3.827,2.083c.205.116.341.2.48.272q6.489,3.513,12.983,7.016a1.227,1.227,0,0,1,.748,1.253c-.033,1.069-.009,2.14-.009,3.292.6-.319,1.135-.574,1.634-.892a.806.806,0,0,0,.33-.562c.032-1.076,0-2.154.023-3.23a.6.6,0,0,0-.376-.614c-1.042-.555-2.075-1.129-3.111-1.7q-5.146-2.826-10.3-5.645a.9.9,0,0,0-.661-.121c-.577.255-1.12.588-1.745.929" transform="translate(-138.119 -109.63)" fill="#d17a52"/>
    <path id="Path_35797" data-name="Path 35797" d="M.538,54.257A1.1,1.1,0,0,1,0,53.2Q.014,31.446.009,9.7c0-.821.244-1.065,1.08-1.066,3.02,0,6.04-.009,9.06.008A.886.886,0,0,0,11,8.182,8.334,8.334,0,0,1,14.145,5.33a.825.825,0,0,0,.364-.552A5.562,5.562,0,0,1,19.935,0a5.644,5.644,0,0,1,5.645,3.467,2.228,2.228,0,0,1,.247.749,1.669,1.669,0,0,0,1.069,1.5,7.055,7.055,0,0,1,2.663,2.6c.186.313.422.316.709.316q4.477,0,8.954,0c1.042,0,1.24.2,1.24,1.236,0,1.943.016,3.886-.016,5.828a1.394,1.394,0,0,1-.372.914.847.847,0,0,1-.818.038,1.162,1.162,0,0,1-.433-.817c-.04-1.642-.02-3.285-.02-4.927v-.6H30.647c.065.987.154,1.966.186,2.948.023.692-.267.957-.965.957q-9.643,0-19.286,0c-.694,0-.962-.256-.942-.97.027-.965.106-1.928.164-2.925H1.693V52.561H38.724c0-.27-.015-.546,0-.819a.8.8,0,0,1,.814-.856.891.891,0,0,1,.829.874,8.766,8.766,0,0,1-.018,1.639,2.765,2.765,0,0,1-.5.859ZM11.283,12.539h17.8c0-.131.007-.218,0-.3a6.5,6.5,0,0,0-4.052-5.622,1.094,1.094,0,0,1-.775-1.108,3.94,3.94,0,0,0-4.08-3.854A3.943,3.943,0,0,0,16.048,5.46a1.156,1.156,0,0,1-.779,1.169,6.827,6.827,0,0,0-3.336,3.195,5.818,5.818,0,0,0-.649,2.715" transform="translate(-0.001 0.001)" fill="#d17a52"/>
    <path id="Path_35798" data-name="Path 35798" d="M41.581,289.581c0,.952.006,1.9,0,2.857-.006.655-.279.937-.937.94q-2.672.014-5.343,0c-.665,0-.936-.275-.938-.933q-.01-2.91,0-5.82c0-.61.262-.878.868-.882q2.724-.016,5.449,0c.608,0,.895.31.9.927.009.97,0,1.94,0,2.91M39.906,287.4H36.028v4.3h3.878Z" transform="translate(-29.491 -245.283)" fill="#d17a52"/>
    <path id="Path_35799" data-name="Path 35799" d="M34.361,133.3c0-.953-.006-1.906,0-2.859.005-.7.265-.953.965-.955q2.647-.007,5.294,0c.69,0,.959.272.96.966q.008,2.859,0,5.718c0,.689-.27.949-.971.951q-2.647.007-5.294,0c-.7,0-.95-.259-.954-.962-.007-.953,0-1.906,0-2.859m5.542-2.208H36.028v4.3H39.9Z" transform="translate(-29.495 -111.151)" fill="#d17a52"/>
    <path id="Path_35800" data-name="Path 35800" d="M41.582,211.135c0,.935,0,1.871,0,2.806,0,.737-.258,1-.977,1q-2.647.006-5.294,0c-.693,0-.948-.261-.95-.967q-.008-2.859,0-5.717c0-.692.265-.947.969-.949q2.647-.007,5.294,0c.689,0,.952.272.956.969.006.953,0,1.906,0,2.859m-1.66-2.153H36.03v4.284h3.892Z" transform="translate(-29.493 -177.955)" fill="#d17a52"/>
    <path id="Path_35801" data-name="Path 35801" d="M102.494,150.414q2.831,0,5.662,0c.691,0,1.014.254,1.023.786.009.548-.339.849-1.035.85q-5.663.007-11.325,0c-.775,0-1.178-.444-.991-1.061a.812.812,0,0,1,.9-.578c1.923.007,3.845,0,5.768,0" transform="translate(-82.223 -129.117)" fill="#d17a52"/>
    <path id="Path_35802" data-name="Path 35802" d="M98.073,308.279q-2.568,0-5.137,0c-.693,0-1.022-.258-1.027-.783s.379-.846,1.049-.847q5.163,0,10.326,0c.779,0,1.163.429.98,1.058a.8.8,0,0,1-.9.573q-2.648,0-5.3,0" transform="translate(-78.898 -263.233)" fill="#d17a52"/>
    <path id="Path_35803" data-name="Path 35803" d="M99.476,230.479c-1.093,0-2.185,0-3.278,0-.6,0-.946-.314-.936-.828.01-.495.334-.789.918-.791q3.3-.01,6.608,0c.6,0,.942.324.935.835s-.322.781-.917.784c-1.11.006-2.22,0-3.33,0" transform="translate(-81.776 -196.454)" fill="#d17a52"/>
    <path id="Path_35804" data-name="Path 35804" d="M126.132,25.821A3.2,3.2,0,1,1,122.97,22.6a3.154,3.154,0,0,1,3.162,3.217m-3.194,1.542A1.515,1.515,0,0,0,124.5,25.8a1.566,1.566,0,1,0-1.566,1.562" transform="translate(-102.79 -19.403)" fill="#d17a52"/>
  </g>
</svg>
