<svg id="crosshair-orange" xmlns="http://www.w3.org/2000/svg" width="51.529" height="51.529" viewBox="0 0 51.529 51.529">
  <g id="Group_37194" data-name="Group 37194" transform="translate(15.029 15.029)">
    <path id="Path_29618" data-name="Path 29618" d="M17.735,28.47A10.735,10.735,0,1,1,28.47,17.735,10.747,10.747,0,0,1,17.735,28.47Zm0-19.323a8.588,8.588,0,1,0,8.588,8.588A8.6,8.6,0,0,0,17.735,9.147Z" transform="translate(-7 -7)" fill="#d17a52"/>
  </g>
  <g id="Group_37195" data-name="Group 37195" transform="translate(4.294 4.294)">
    <path id="Path_29619" data-name="Path 29619" d="M23.47,44.94A21.47,21.47,0,1,1,44.94,23.47,21.495,21.495,0,0,1,23.47,44.94Zm0-40.793A19.323,19.323,0,1,0,42.793,23.47,19.345,19.345,0,0,0,23.47,4.147Z" transform="translate(-2 -2)" fill="#d17a52"/>
  </g>
  <g id="Group_37196" data-name="Group 37196" transform="translate(24.691)">
    <path id="Path_29620" data-name="Path 29620" d="M12.574,10.735A1.074,1.074,0,0,1,11.5,9.662V1.074a1.074,1.074,0,1,1,2.147,0V9.662A1.074,1.074,0,0,1,12.574,10.735Z" transform="translate(-11.5)" fill="#d17a52"/>
  </g>
  <g id="Group_37197" data-name="Group 37197" transform="translate(24.691 40.793)">
    <path id="Path_29621" data-name="Path 29621" d="M12.574,29.735A1.074,1.074,0,0,1,11.5,28.662V20.074a1.074,1.074,0,1,1,2.147,0v8.588A1.074,1.074,0,0,1,12.574,29.735Z" transform="translate(-11.5 -19)" fill="#d17a52"/>
  </g>
  <g id="Group_37198" data-name="Group 37198" transform="translate(0 24.691)">
    <path id="Path_29622" data-name="Path 29622" d="M9.662,13.647H1.074a1.074,1.074,0,1,1,0-2.147H9.662a1.074,1.074,0,0,1,0,2.147Z" transform="translate(0 -11.5)" fill="#d17a52"/>
  </g>
  <g id="Group_37199" data-name="Group 37199" transform="translate(40.793 24.691)">
    <path id="Path_29623" data-name="Path 29623" d="M28.662,13.647H20.074a1.074,1.074,0,1,1,0-2.147h8.588a1.074,1.074,0,1,1,0,2.147Z" transform="translate(-19 -11.5)" fill="#d17a52"/>
  </g>
</svg>
