<svg xmlns="http://www.w3.org/2000/svg" xmlns:xlink="http://www.w3.org/1999/xlink" width="38.172" height="43.252" viewBox="0 0 38.172 43.252">
  <defs>
    <clipPath id="clip-path">
      <rect id="Rectangle_1" data-name="Rectangle 1" width="38.172" height="43.252"/>
    </clipPath>
  </defs>
  <g id="Group_1" data-name="Group 1" clip-path="url(#clip-path)">
    <path id="Path_1" data-name="Path 1" d="M7.428,0c.408.1.822.173,1.222.3a6.682,6.682,0,0,1,4.459,8.268c-.038.131-.068.264-.118.455a17.7,17.7,0,0,1,12.014.513c.145-.359.265-.7.417-1.03a6.69,6.69,0,0,1,12.736,3.232,6.957,6.957,0,0,1-1.108,3.325c-.777,1.223-1.537,2.456-2.32,3.675a.7.7,0,0,0-.079.734,12.987,12.987,0,0,1,.442,1.273c.152.489.02.832-.342.951-.4.131-.71-.073-.868-.567l-.214-.67c-.224.351-.408.644-.6.935a1.807,1.807,0,0,1-3.187,0q-1.931-3.047-3.834-6.111a.606.606,0,0,0-.6-.338c-.9.02-1.8,0-2.7.008a2.2,2.2,0,0,0-2.327,2.067,2.153,2.153,0,0,0,2.15,2.362,3.638,3.638,0,0,1,2.5,1.052,3.5,3.5,0,0,1,.992,2.268c.131,1.687.852,2.352,2.567,2.386a3.488,3.488,0,0,1,1.709,6.526,3.655,3.655,0,0,1-1.821.451c-.605,0-1.211-.014-1.815.012a2.206,2.206,0,0,0,.07,4.41c1.14.015,2.28.016,3.42-.008a.789.789,0,0,0,.51-.277,16,16,0,0,0,3.836-10.6c0-.52-.057-1.039-.078-1.559-.019-.46.211-.745.6-.76s.619.23.664.663A17.508,17.508,0,0,1,1.348,30.086,17.148,17.148,0,0,1,4,15.62c.064-.092.125-.186.2-.3q-.779-1.243-1.563-2.493c-.567-.906-1.16-1.8-1.695-2.721A6.676,6.676,0,0,1,5.719.074.956.956,0,0,0,5.908,0Zm2.747,13.736c.142.05.247.088.352.123a3.481,3.481,0,0,1-.773,6.778,5.562,5.562,0,0,0-.877.108A2.2,2.2,0,0,0,7.27,23.159,2.25,2.25,0,0,0,9.435,25.1a.771.771,0,0,0,.883-.569A6.679,6.679,0,0,1,22.99,28.513c-.373,1.889-1.612,3.318-2.579,4.889a.533.533,0,0,1-.8.086.584.584,0,0,1-.212-.78,2.871,2.871,0,0,1,.191-.328c.52-.836,1.071-1.655,1.556-2.51a5.412,5.412,0,0,0-4.588-8.079,5.2,5.2,0,0,0-4.824,2.719,5.168,5.168,0,0,0,.115,5.6c1.321,2.159,2.685,4.293,4.033,6.435.331.526.747.528,1.081.01.282-.437.551-.883.834-1.32a.658.658,0,0,1,.923-.309c.335.2.386.575.136.995a1.628,1.628,0,0,1-.157.25.56.56,0,0,0-.005.8,2.646,2.646,0,0,1-.171,3.146,2.7,2.7,0,0,1-3.09.812,2.594,2.594,0,0,1-1.678-2.661,10.506,10.506,0,0,1,.563-1.835l-2.383-3.789a2.21,2.21,0,0,0-.774,1.887,3.425,3.425,0,0,1-2.771,3.147c-.292.058-.592.075-.916.114,6.627,6.062,16.509,5.021,21.628-.044-.834,0-1.633.015-2.431,0a3.472,3.472,0,0,1-.094-6.936c.646-.03,1.295-.015,1.942-.017a2.294,2.294,0,0,0,1.558-.543,2.224,2.224,0,0,0-1.38-3.9,6.9,6.9,0,0,1-1.378-.14,3.392,3.392,0,0,1-2.51-3.183,2.237,2.237,0,0,0-1.673-2.3,7.181,7.181,0,0,0-.921-.1,3.48,3.48,0,0,1,.367-6.937c.854-.015,1.708,0,2.582,0-.111-.483-.244-.914-.3-1.355s-.031-.9-.077-1.346c-.01-.1-.153-.218-.262-.262a16.058,16.058,0,0,0-12.211-.1.641.641,0,0,0-.306.2c-.614.957-1.214,1.921-1.832,2.906M4.927,16.507c-.107.155-.2.279-.28.407a16.313,16.313,0,0,0,.7,18.636,1.853,1.853,0,0,0,1.94.948,4.065,4.065,0,0,1,.548-.01,2.117,2.117,0,0,0,2.05-1.934,3.851,3.851,0,0,1,1.373-3.027,7.116,7.116,0,0,1-1.468-5.174c-.168,0-.279,0-.39,0a3.476,3.476,0,0,1-.71-6.865,9.9,9.9,0,0,1,1-.119,2.181,2.181,0,0,0,1.962-2.081,2.209,2.209,0,0,0-1.816-2.3.491.491,0,0,0-.622.255c-.321.561-.664,1.111-1.031,1.643a1.792,1.792,0,0,1-2.973.027c-.089-.123-.174-.248-.284-.405M1.26,6.689a5.36,5.36,0,0,0,.833,2.878q2.025,3.237,4.06,6.468c.33.523.751.522,1.081,0q2.035-3.23,4.059-6.468a5.347,5.347,0,0,0,.8-3.385A5.429,5.429,0,0,0,1.26,6.689m35.647,4.662a5.407,5.407,0,0,0-5.124-5.417,5.188,5.188,0,0,0-4.932,2.6,5.052,5.052,0,0,0-.072,5.488c1.343,2.276,2.789,4.492,4.2,6.729a.547.547,0,0,0,1.011-.014c1.409-2.237,2.818-4.475,4.205-6.725a5.026,5.026,0,0,0,.714-2.656M15.179,37.759A1.423,1.423,0,0,0,17.4,39.475a1.342,1.342,0,0,0,.259-1.7,1.967,1.967,0,0,1-2.484-.014" transform="translate(0)"/>
    <path id="Path_2" data-name="Path 2" d="M76.719,142.773a3.922,3.922,0,1,1,3.958-3.869,3.929,3.929,0,0,1-3.958,3.869m.007-1.267a2.655,2.655,0,1,0,.06-5.309,2.655,2.655,0,1,0-.06,5.309" transform="translate(-60.327 -111.766)"/>
    <path id="Path_3" data-name="Path 3" d="M164.377,50.377a3.919,3.919,0,1,1,3.934-3.9,3.934,3.934,0,0,1-3.934,3.9m0-1.268a2.652,2.652,0,0,0,.031-5.3,2.652,2.652,0,1,0-.031,5.3" transform="translate(-132.919 -35.236)"/>
    <path id="Path_4" data-name="Path 4" d="M20.022,21.764a3.919,3.919,0,1,1,3.934-3.9,3.934,3.934,0,0,1-3.934,3.9m0-1.268a2.652,2.652,0,0,0,.031-5.3,2.652,2.652,0,1,0-.031,5.3" transform="translate(-13.345 -11.535)"/>
  </g>
</svg>
