<svg xmlns="http://www.w3.org/2000/svg" xmlns:xlink="http://www.w3.org/1999/xlink" width="36.777" height="36.772" viewBox="0 0 36.777 36.772">
  <defs>
    <clipPath id="clip-path">
      <rect id="Rectangle_2" data-name="Rectangle 2" width="36.777" height="36.772" fill="#707070"/>
    </clipPath>
  </defs>
  <g id="Group_3" data-name="Group 3" clip-path="url(#clip-path)">
    <path id="Path_4" data-name="Path 4" d="M182.236,143.682a3.766,3.766,0,0,1-.547.437c-3.2,1.717-6.412,3.42-9.611,5.142a.942.942,0,0,1-1.086-.033q-4.858-3.09-9.742-6.14a.684.684,0,0,1-.353-.647q.008-4.308,0-8.617a.789.789,0,0,1,.481-.763q4.918-2.627,9.827-5.271a.7.7,0,0,1,.762.088q4.583,2.493,9.163,4.993a13.172,13.172,0,0,1,1.106.756ZM161.991,134.6a1.965,1.965,0,0,0-.028.214c0,2.382-.006,4.764.01,7.146a.592.592,0,0,0,.261.4q3.143,2.011,6.3,4l2.371,1.5c.009-.168.02-.283.02-.4,0-2.49,0-4.979.008-7.469a.55.55,0,0,0-.333-.555q-4.144-2.327-8.278-4.67c-.1-.056-.2-.1-.332-.171m19.112.2c-.791.422-1.529.808-2.255,1.217-.079.045-.118.219-.12.334-.01.862-.018,1.724,0,2.585a.786.786,0,0,1-.468.8,17.833,17.833,0,0,0-1.853,1.019c-.807.543-1.324.265-1.256-.738.043-.639.008-1.283.008-1.979-.174.084-.291.135-.4.2-.788.428-1.571.865-2.364,1.282a.48.48,0,0,0-.3.5c.01,2.513.006,5.027.006,7.54v.353c.136-.061.234-.1.325-.146q4.208-2.207,8.417-4.41a.456.456,0,0,0,.283-.472c-.008-2.561,0-5.123-.006-7.684,0-.106-.009-.213-.018-.4m-18.5-1.144a1.468,1.468,0,0,0,.143.112q4.306,2.436,8.617,4.862a.509.509,0,0,0,.413-.027c.822-.439,1.633-.9,2.447-1.352.089-.05.172-.109.259-.165-.028-.043-.036-.07-.053-.079q-4.4-2.409-8.809-4.809a.4.4,0,0,0-.321.011c-.888.467-1.769.946-2.7,1.446m6.642-3.571a.927.927,0,0,0,.114.1q4.348,2.393,8.7,4.78a.36.36,0,0,0,.29.021c.724-.383,1.441-.781,2.174-1.181-.048-.05-.067-.083-.1-.1q-4.359-2.372-8.722-4.737a.364.364,0,0,0-.291-.015c-.713.361-1.419.736-2.168,1.128M166.65,131.5c.139.079.231.133.325.184q4.4,2.381,8.8,4.755a.832.832,0,0,1,.507.85c-.023.725-.006,1.45-.006,2.231.4-.216.769-.389,1.108-.6a.546.546,0,0,0,.224-.381c.022-.729,0-1.46.016-2.189a.407.407,0,0,0-.255-.416c-.706-.376-1.406-.765-2.108-1.15q-3.488-1.915-6.978-3.826a.608.608,0,0,0-.448-.082c-.391.173-.759.4-1.183.63" transform="translate(-145.459 -115.456)" fill="#707070"/>
    <path id="Path_5" data-name="Path 5" d="M.365,36.771A.746.746,0,0,1,0,36.052Q.01,21.312.006,6.571c0-.556.165-.722.732-.722,2.047,0,4.094-.006,6.14.005a.6.6,0,0,0,.579-.309,5.648,5.648,0,0,1,2.13-1.932.559.559,0,0,0,.246-.374A3.77,3.77,0,0,1,13.511,0a3.825,3.825,0,0,1,3.826,2.35,1.51,1.51,0,0,1,.167.508,1.131,1.131,0,0,0,.724,1.019,4.782,4.782,0,0,1,1.805,1.759c.126.212.286.214.48.214q3.034,0,6.069,0c.706,0,.84.134.84.838,0,1.317.011,2.634-.011,3.95a.945.945,0,0,1-.252.619.574.574,0,0,1-.554.026.787.787,0,0,1-.293-.554C26.285,9.615,26.3,8.5,26.3,7.388v-.4H20.771c.044.669.1,1.333.126,2,.016.469-.181.649-.654.649q-6.535,0-13.071,0c-.471,0-.652-.174-.638-.657.018-.654.072-1.307.111-1.982h-5.5v28.63h25.1c0-.183-.01-.37,0-.555a.543.543,0,0,1,.552-.58.6.6,0,0,1,.562.592,5.941,5.941,0,0,1-.012,1.111,1.874,1.874,0,0,1-.339.582ZM7.647,8.5H19.708c0-.089,0-.148,0-.206a4.4,4.4,0,0,0-2.746-3.81.741.741,0,0,1-.525-.751,2.67,2.67,0,0,0-2.765-2.612A2.672,2.672,0,0,0,10.877,3.7a.784.784,0,0,1-.528.792A4.627,4.627,0,0,0,8.088,6.657a3.943,3.943,0,0,0-.44,1.84" transform="translate(-0.001 0.001)" fill="#707070"/>
    <path id="Path_6" data-name="Path 6" d="M39.252,288.341c0,.645,0,1.291,0,1.936,0,.444-.189.635-.635.637q-1.811.009-3.621,0c-.45,0-.634-.187-.636-.633q-.007-1.972,0-3.944c0-.414.178-.6.588-.6q1.846-.011,3.693,0c.412,0,.606.21.61.628.006.657,0,1.315,0,1.972m-1.135-1.476H35.489v2.913h2.628Z" transform="translate(-31.059 -258.32)" fill="#707070"/>
    <path id="Path_7" data-name="Path 7" d="M34.36,132.07c0-.646,0-1.292,0-1.937,0-.471.18-.646.654-.647q1.794-.005,3.588,0c.467,0,.65.184.651.654q.005,1.937,0,3.875c0,.467-.183.643-.658.645q-1.794,0-3.588,0c-.472,0-.644-.176-.647-.652,0-.646,0-1.292,0-1.938m3.756-1.5H35.49v2.914h2.627Z" transform="translate(-31.062 -117.059)" fill="#707070"/>
    <path id="Path_8" data-name="Path 8" d="M39.254,209.9c0,.634,0,1.268,0,1.9,0,.5-.175.677-.662.678q-1.794,0-3.588,0c-.469,0-.642-.177-.644-.655q-.005-1.937,0-3.875c0-.469.18-.642.657-.643q1.794-.005,3.588,0c.467,0,.645.184.648.657,0,.646,0,1.292,0,1.937m-1.125-1.459H35.491v2.9h2.638Z" transform="translate(-31.06 -187.413)" fill="#707070"/>
    <path id="Path_9" data-name="Path 9" d="M100.332,150.413q1.919,0,3.838,0c.468,0,.687.172.694.533s-.23.575-.7.576q-3.838,0-7.675,0c-.525,0-.8-.3-.672-.719a.55.55,0,0,1,.608-.392c1.3,0,2.606,0,3.909,0" transform="translate(-86.593 -135.979)" fill="#707070"/>
    <path id="Path_10" data-name="Path 10" d="M96.087,307.752q-1.741,0-3.481,0c-.469,0-.693-.175-.7-.531s.257-.573.711-.574q3.5,0,7,0c.528,0,.788.291.664.717a.541.541,0,0,1-.608.389q-1.794,0-3.589,0" transform="translate(-83.091 -277.223)" fill="#707070"/>
    <path id="Path_11" data-name="Path 11" d="M98.118,229.955c-.74,0-1.481,0-2.221,0-.41,0-.641-.213-.634-.561s.226-.535.622-.536q2.239-.006,4.479,0c.406,0,.639.219.633.566s-.219.529-.621.532c-.752,0-1.5,0-2.257,0" transform="translate(-86.122 -206.896)" fill="#707070"/>
    <path id="Path_12" data-name="Path 12" d="M124.073,24.784A2.165,2.165,0,1,1,121.93,22.6a2.138,2.138,0,0,1,2.143,2.181m-2.165,1.045a1.027,1.027,0,0,0,1.061-1.058,1.061,1.061,0,1,0-1.061,1.058" transform="translate(-108.253 -20.435)" fill="#707070"/>
  </g>
</svg>
