<svg id="Group_4" data-name="Group 4" xmlns="http://www.w3.org/2000/svg" xmlns:xlink="http://www.w3.org/1999/xlink" width="40.712" height="44.096" viewBox="0 0 40.712 44.096">
  <defs>
    <clipPath id="clip-path">
      <rect id="Rectangle_2" data-name="Rectangle 2" width="40.712" height="44.096" fill="#707070" stroke="#707070" stroke-width="0.3"/>
    </clipPath>
  </defs>
  <g id="Group_3" data-name="Group 3" clip-path="url(#clip-path)">
    <path id="Path_3" data-name="Path 3" d="M67.665,94.116a3.169,3.169,0,0,1,2.11.778c.527.442,1.058.88,1.58,1.327a2.343,2.343,0,0,0,1.389.581c.8.061,1.607.119,2.4.237a3.133,3.133,0,0,1,2.632,2.787c.08.786.1,1.582.24,2.356a3.209,3.209,0,0,0,.54,1.215c.384.55.854,1.04,1.285,1.557a3.191,3.191,0,0,1,.024,4.288c-.4.486-.792.98-1.216,1.444a2.715,2.715,0,0,0-.7,1.752c-.034.584-.117,1.166-.139,1.75a1.368,1.368,0,0,0,.147.7c1.2,2.11,2.42,4.209,3.634,6.311.146.252.335.5.122.808s-.495.237-.794.2c-1.7-.2-3.4-.385-5.1-.6-.265-.033-.355.058-.447.274-.671,1.573-1.353,3.141-2.03,4.711-.117.272-.237.617-.58.552a1.047,1.047,0,0,1-.6-.479q-1.825-3.1-3.6-6.228c-.157-.274-.3-.448-.639-.332a.438.438,0,0,1-.261.013c-.583-.192-.8.172-1.045.607-1.1,1.948-2.227,3.881-3.348,5.817-.164.284-.279.652-.708.621-.4-.03-.475-.386-.6-.676-.663-1.528-1.328-3.056-1.98-4.589-.1-.236-.2-.324-.481-.288q-2.59.328-5.187.6a.791.791,0,0,1-.644-.206.841.841,0,0,1,.044-.709c1.2-2.126,2.438-4.233,3.642-6.357a1.655,1.655,0,0,0,.17-.82c-.013-.569-.1-1.137-.132-1.706A2.687,2.687,0,0,0,56.7,110.7c-.441-.488-.856-1-1.272-1.512a3.178,3.178,0,0,1,0-4.152c.416-.51.83-1.024,1.273-1.511a2.687,2.687,0,0,0,.686-1.712c.039-.613.095-1.225.16-1.836a3.2,3.2,0,0,1,3.1-3.011,17.376,17.376,0,0,0,1.965-.188,3.608,3.608,0,0,0,1.309-.532c.59-.4,1.109-.907,1.661-1.365a3.129,3.129,0,0,1,2.08-.765m-11.949,13-.117.056a8.549,8.549,0,0,0,.633,1.306c.411.584.907,1.109,1.37,1.656a3.153,3.153,0,0,1,.785,1.775c.072.786.138,1.574.224,2.359a2.1,2.1,0,0,0,1.956,1.921c.437.04.875.1,1.312.1a4.511,4.511,0,0,1,3.352,1.374,11.9,11.9,0,0,0,1,.85,2.1,2.1,0,0,0,2.877-.008q.782-.639,1.546-1.3a3.4,3.4,0,0,1,2.114-.849c.671-.036,1.342-.106,2.011-.173a2.1,2.1,0,0,0,1.948-1.929c.07-.625.131-1.252.166-1.879a3.69,3.69,0,0,1,.96-2.389c.435-.474.837-.978,1.242-1.478a2.1,2.1,0,0,0,0-2.81c-.454-.555-.92-1.1-1.381-1.649a3.1,3.1,0,0,1-.758-1.74c-.072-.786-.138-1.574-.224-2.359a2.045,2.045,0,0,0-1.741-1.878,9.646,9.646,0,0,0-1.527-.147,4.417,4.417,0,0,1-3.252-1.286,13.739,13.739,0,0,0-1.1-.936,2.117,2.117,0,0,0-2.879.008c-.541.448-1.078.9-1.614,1.354a3.233,3.233,0,0,1-1.915.779c-.686.046-1.37.113-2.055.175a2.118,2.118,0,0,0-2.038,1.985c-.065.6-.128,1.193-.158,1.792a3.719,3.719,0,0,1-.963,2.432c-.435.474-.832.982-1.244,1.477a2.093,2.093,0,0,0-.523,1.407M66,119.693c-.684-.573-1.331-1.1-1.96-1.645a2.517,2.517,0,0,0-1.551-.635c-.672-.041-1.342-.1-2.012-.171a3.318,3.318,0,0,1-2.416-1.41l-3.01,5.217c.243-.014.4-.015.557-.034,1.351-.16,2.7-.319,4.052-.487.753-.094.846-.051,1.138.628q.842,1.953,1.685,3.9c.049.114.113.222.2.384L66,119.693m14.291,1.367-3.017-5.228a3.326,3.326,0,0,1-2.371,1.4c-.7.075-1.4.139-2.1.182a2.327,2.327,0,0,0-1.4.544c-.682.573-1.365,1.145-2.069,1.735l3.327,5.759c.095-.2.158-.328.215-.458.575-1.326,1.161-2.647,1.715-3.981a.728.728,0,0,1,.88-.513c.854.116,1.711.209,2.567.307.718.083,1.438.16,2.253.251" transform="translate(-47.315 -83.072)" fill="#707070" stroke="#707070" stroke-width="0.3"/>
    <path id="Path_4" data-name="Path 4" d="M137.574,9.157c-.35.094-.7.188-1.055.284-.521.142-1.041.291-1.564.427-.491.128-.761-.059-.792-.573-.047-.759-.052-1.522-.116-2.279a1.922,1.922,0,0,0-.261-.8c-.384-.638-.816-1.248-1.221-1.875-.3-.466-.209-.752.3-.961.054-.022.111-.037.165-.058a10.029,10.029,0,0,0,2.34-.954A10.029,10.029,0,0,0,136.993.424c.454-.564.72-.566,1.17,0a6.145,6.145,0,0,1,.487.621,4.314,4.314,0,0,0,2.779,2.017,6.31,6.31,0,0,1,.9.337.544.544,0,0,1,.282.908c-.426.665-.879,1.313-1.294,1.984a1.578,1.578,0,0,0-.223.686c-.057.758-.073,1.52-.108,2.28-.025.562-.281.751-.833.6-.734-.2-1.465-.4-2.2-.605-.126-.035-.255-.062-.386-.094m.007-7.774c-.459.573-.864,1.109-1.3,1.614a1.771,1.771,0,0,1-.623.446c-.615.262-1.247.484-1.923.742.394.6.784,1.163,1.134,1.749a1.765,1.765,0,0,1,.23.73c.058.668.073,1.34.107,2.048.621-.169,1.219-.3,1.8-.5a1.869,1.869,0,0,1,1.2.007c.566.174,1.141.317,1.851.511,0-.714-.031-1.355.013-1.992a2.141,2.141,0,0,1,.292-.89c.328-.565.708-1.1,1.081-1.668-.65-.244-1.262-.446-1.847-.705a2.3,2.3,0,0,1-.757-.55c-.429-.477-.81-1-1.246-1.543" transform="translate(-116.857 0)" fill="#707070" stroke="#707070" stroke-width="0.3"/>
    <path id="Path_5" data-name="Path 5" d="M8.008,43.3A7.94,7.94,0,0,1,7,43.023a4.537,4.537,0,0,0-3.641.008,5.129,5.129,0,0,1-.673.192c-.634.17-.881,0-.919-.645-.044-.744-.054-1.491-.114-2.234a1.7,1.7,0,0,0-.237-.722c-.4-.648-.832-1.271-1.244-1.91-.3-.463-.2-.751.305-.957a1.272,1.272,0,0,1,.2-.077,6.015,6.015,0,0,0,3.906-2.836c.417-.651.719-.613,1.218,0a10.142,10.142,0,0,0,1.635,1.93,9.74,9.74,0,0,0,2.305.923c.7.265.783.524.379,1.14-.321.489-.617,1-.972,1.459a2.363,2.363,0,0,0-.481,1.547c.008.628-.051,1.256-.078,1.884-.015.347-.187.54-.582.577M1.334,37.566c.38.58.76,1.116,1.089,1.681a2.183,2.183,0,0,1,.271.85c.067.648.079,1.3.115,1.991.664-.18,1.278-.373,1.9-.505a2.346,2.346,0,0,1,.937,0c.624.13,1.235.321,1.992.524,0-.652.006-1.231,0-1.81a1.945,1.945,0,0,1,.4-1.222c.351-.478.656-.988,1-1.511-.643-.244-1.253-.45-1.839-.71a2.322,2.322,0,0,1-.759-.545c-.435-.481-.823-1-1.254-1.541-.441.551-.824,1.068-1.251,1.547a2.176,2.176,0,0,1-.722.527c-.6.265-1.221.476-1.875.725" transform="translate(0 -29.452)" fill="#707070" stroke="#707070" stroke-width="0.3"/>
    <path id="Path_6" data-name="Path 6" d="M266.4,43.444c-.727-.2-1.493-.385-2.245-.622a1.765,1.765,0,0,0-1.107-.008c-.669.208-1.347.386-2.025.566-.575.152-.818-.038-.847-.637a4.165,4.165,0,0,1-.031-.656,5.246,5.246,0,0,0-1.286-3.82c-.733-.985-.67-1.194.5-1.532a5.415,5.415,0,0,0,3.369-2.433,3.559,3.559,0,0,1,.408-.515.532.532,0,0,1,.921.012c.51.621,1,1.263,1.512,1.879a1.362,1.362,0,0,0,.513.376c.731.3,1.475.557,2.21.841.516.2.612.491.32.953a9.2,9.2,0,0,1-.7,1.057,3.753,3.753,0,0,0-.863,2.712,11.372,11.372,0,0,1-.055,1.314c-.024.326-.223.493-.586.514M259.751,37.7a10.493,10.493,0,0,1,1.274,2.1,10.215,10.215,0,0,1,.2,2.422,12.69,12.69,0,0,0,1.31-.359,2.862,2.862,0,0,1,2.13.006c.413.153.854.23,1.3.347.036-.692.041-1.322.112-1.945a2.479,2.479,0,0,1,.3-.93c.316-.553.692-1.072,1.065-1.638-.6-.226-1.134-.451-1.687-.632a1.991,1.991,0,0,1-1.039-.753c-.348-.479-.737-.927-1.129-1.413-.422.528-.781,1.03-1.2,1.477a2.973,2.973,0,0,1-.9.646c-.554.258-1.141.443-1.738.667" transform="translate(-228.059 -29.593)" fill="#707070" stroke="#707070" stroke-width="0.3"/>
    <path id="Path_7" data-name="Path 7" d="M111.378,151.148a8.24,8.24,0,1,1,8.275-8.208,8.255,8.255,0,0,1-8.275,8.208m5.756-3.974a7.1,7.1,0,0,0-.787-9.485,7.177,7.177,0,0,0-10.056.161,7.075,7.075,0,0,0-.623,9.314,6.18,6.18,0,0,1,2.484-3.189c-1-2.2-.719-3.979.817-5.216a3.878,3.878,0,0,1,4.765-.073,3.764,3.764,0,0,1,1.407,2.065,3.928,3.928,0,0,1-.511,3.208,6.2,6.2,0,0,1,2.5,3.215m-5.751,2.92a7.193,7.193,0,0,0,4.608-1.649.551.551,0,0,0,.227-.668,5.118,5.118,0,0,0-2.014-2.836.416.416,0,0,0-.571,0,3.79,3.79,0,0,1-4.467,0,.415.415,0,0,0-.571.005,5.083,5.083,0,0,0-2.01,2.838.525.525,0,0,0,.2.638,7.183,7.183,0,0,0,4.6,1.674m.032-11.133a2.824,2.824,0,1,0,2.807,2.822,2.8,2.8,0,0,0-2.807-2.822" transform="translate(-91.046 -118.864)" fill="#707070" stroke="#707070" stroke-width="0.3"/>
  </g>
</svg>
