<svg xmlns="http://www.w3.org/2000/svg" xmlns:xlink="http://www.w3.org/1999/xlink" width="36.597" height="24.903" viewBox="0 0 36.597 24.903">
  <defs>
    <clipPath id="clip-path">
      <rect id="Rectangle_8" data-name="Rectangle 8" width="36.597" height="24.903" fill="none"/>
    </clipPath>
  </defs>
  <g id="Group_15" data-name="Group 15" clip-path="url(#clip-path)">
    <path id="Path_12" data-name="Path 12" d="M0,1.863A2.189,2.189,0,0,1,1.2.269,3.339,3.339,0,0,1,2.433.012C6.912-.006,11.392,0,15.871,0H34.1A2.242,2.242,0,0,1,36.6,2.49V22.4a2.242,2.242,0,0,1-2.5,2.488c-10.459,0-20.919-.013-31.379.016A2.44,2.44,0,0,1,0,23.025Zm1.48,8.39c-.008.152-.018.269-.018.386q0,5.88,0,11.76c0,.784.243,1.029,1.02,1.03H34.111c.782,0,1.024-.243,1.024-1.026q0-5.88,0-11.76c0-.127-.012-.254-.019-.39Zm0-4.407H35.112c.008-.115.023-.219.023-.324,0-1.036,0-2.073,0-3.109,0-.685-.269-.953-.953-.953q-15.883,0-31.764,0c-.687,0-.951.267-.955.951,0,1.036,0,2.073,0,3.109,0,.1.014.209.023.325" transform="translate(0 0)" fill="#707070"/>
    <path id="Path_13" data-name="Path 13" d="M15.6,20.774h6.284a3.194,3.194,0,0,1,.427.016.716.716,0,0,1-.006,1.421,2.616,2.616,0,0,1-.357.013H9.313a2.5,2.5,0,0,1-.392-.018.715.715,0,0,1,.007-1.415,2.975,2.975,0,0,1,.427-.018H15.6" transform="translate(-2.453 -6.127)" fill="#707070"/>
    <path id="Path_14" data-name="Path 14" d="M12.673,26.38c-1.178,0-2.356,0-3.534,0a.743.743,0,0,1-.816-.637.717.717,0,0,1,.568-.789,2.454,2.454,0,0,1,.427-.025h6.748c.072,0,.143,0,.214,0a.75.75,0,0,1,.809.724.743.743,0,0,1-.809.724c-1.2.008-2.4,0-3.606,0" transform="translate(-2.453 -7.353)" fill="#707070"/>
  </g>
</svg>
