<svg xmlns="http://www.w3.org/2000/svg" xmlns:xlink="http://www.w3.org/1999/xlink" width="56.324" height="63.819" viewBox="0 0 56.324 63.819">
  <defs>
    <clipPath id="clip-path">
      <rect id="Rectangle_147982" data-name="Rectangle 147982" width="56.324" height="63.819" fill="#707070"/>
    </clipPath>
  </defs>
  <g id="Group_67890" data-name="Group 67890" clip-path="url(#clip-path)">
    <path id="Path_35792" data-name="Path 35792" d="M10.96,0c.6.144,1.213.255,1.8.436a9.86,9.86,0,0,1,6.579,12.2c-.056.193-.1.389-.174.672a26.121,26.121,0,0,1,17.726.757c.214-.53.391-1.036.616-1.519A9.872,9.872,0,0,1,56.3,17.315a10.265,10.265,0,0,1-1.634,4.907c-1.146,1.8-2.268,3.624-3.423,5.422a1.03,1.03,0,0,0-.117,1.084,19.163,19.163,0,0,1,.652,1.879c.224.721.029,1.227-.5,1.4-.585.194-1.047-.108-1.281-.837-.094-.294-.188-.588-.316-.988-.33.517-.6.95-.88,1.379a2.666,2.666,0,0,1-4.7,0q-2.849-4.5-5.657-9.017a.894.894,0,0,0-.887-.5c-1.329.029-2.658.007-3.987.012a3.244,3.244,0,0,0-3.434,3.05A3.177,3.177,0,0,0,33.306,28.6,5.368,5.368,0,0,1,37,30.152,5.164,5.164,0,0,1,38.459,33.5c.193,2.489,1.258,3.47,3.787,3.521a5.147,5.147,0,0,1,2.522,9.629,5.394,5.394,0,0,1-2.687.666c-.893.006-1.787-.02-2.679.017a3.255,3.255,0,0,0,.1,6.508c1.682.022,3.365.024,5.046-.012a1.164,1.164,0,0,0,.753-.408,23.615,23.615,0,0,0,5.66-15.635c0-.767-.084-1.533-.116-2.3-.028-.679.311-1.1.884-1.121.552-.022.913.339.98.979A25.834,25.834,0,0,1,1.988,44.392,25.3,25.3,0,0,1,5.895,23.048c.094-.136.185-.274.3-.448q-1.149-1.834-2.306-3.678c-.837-1.337-1.712-2.651-2.5-4.016A9.851,9.851,0,0,1,8.438.109,1.411,1.411,0,0,0,8.717,0Zm4.053,20.268c.21.073.364.129.519.181a5.136,5.136,0,0,1-1.14,10,8.207,8.207,0,0,0-1.294.16,3.242,3.242,0,0,0-2.371,3.561,3.32,3.32,0,0,0,3.194,2.861,1.137,1.137,0,0,0,1.3-.84,9.856,9.856,0,0,1,18.7,5.879c-.55,2.788-2.379,4.9-3.805,7.214a.787.787,0,0,1-1.175.127.862.862,0,0,1-.313-1.15,4.237,4.237,0,0,1,.281-.483c.767-1.234,1.58-2.441,2.3-3.7a7.985,7.985,0,0,0-6.769-11.921,7.671,7.671,0,0,0-7.118,4.012,7.625,7.625,0,0,0,.17,8.268c1.95,3.186,3.961,6.334,5.951,9.5.489.776,1.1.779,1.6.015.416-.645.814-1.3,1.231-1.948a.971.971,0,0,1,1.361-.455c.494.293.57.849.2,1.468a2.4,2.4,0,0,1-.231.369.827.827,0,0,0-.008,1.185,3.9,3.9,0,0,1-.253,4.642,3.983,3.983,0,0,1-4.559,1.2A3.828,3.828,0,0,1,20.3,56.477a15.5,15.5,0,0,1,.83-2.708l-3.516-5.591c-.811.694-1.029,1.247-1.141,2.785a5.054,5.054,0,0,1-4.089,4.643c-.431.086-.874.111-1.352.168,9.778,8.944,24.36,7.408,31.913-.065-1.231,0-2.41.022-3.587,0a5.123,5.123,0,0,1-.139-10.234c.953-.045,1.91-.022,2.865-.025a3.384,3.384,0,0,0,2.3-.8,3.281,3.281,0,0,0-2.036-5.759,10.179,10.179,0,0,1-2.033-.207,5.005,5.005,0,0,1-3.7-4.7,3.3,3.3,0,0,0-2.469-3.395,10.6,10.6,0,0,0-1.359-.153A5.135,5.135,0,0,1,33.324,20.2c1.26-.022,2.521,0,3.809,0-.164-.712-.36-1.349-.448-2s-.046-1.326-.113-1.985c-.014-.143-.226-.322-.387-.387a23.694,23.694,0,0,0-18.018-.142.946.946,0,0,0-.451.3c-.905,1.411-1.791,2.835-2.7,4.288M7.27,24.357c-.158.228-.29.412-.413.6a24.07,24.07,0,0,0,1.027,27.5c.777,1.019,1.553,1.64,2.862,1.4a6,6,0,0,1,.808-.015,3.123,3.123,0,0,0,3.025-2.853,5.683,5.683,0,0,1,2.026-4.466,10.5,10.5,0,0,1-2.165-7.634c-.248,0-.412,0-.575,0a5.129,5.129,0,0,1-1.047-10.129,14.607,14.607,0,0,1,1.48-.175,3.218,3.218,0,0,0,2.9-3.071,3.259,3.259,0,0,0-2.679-3.4.724.724,0,0,0-.918.377c-.473.828-.979,1.639-1.521,2.424a2.644,2.644,0,0,1-4.386.039c-.132-.181-.257-.367-.419-.6M1.859,9.87a7.909,7.909,0,0,0,1.229,4.247q2.988,4.776,5.99,9.543c.486.772,1.108.77,1.595,0q3-4.766,5.989-9.544A7.889,7.889,0,0,0,17.844,9.12,8.011,8.011,0,0,0,1.859,9.87m52.6,6.879A7.978,7.978,0,0,0,46.9,8.756a7.655,7.655,0,0,0-7.278,3.83,7.454,7.454,0,0,0-.106,8.1c1.982,3.359,4.115,6.628,6.195,9.928a.807.807,0,0,0,1.492-.021c2.079-3.3,4.157-6.6,6.2-9.923a7.416,7.416,0,0,0,1.053-3.92M22.4,55.714a2.1,2.1,0,0,0,3.283,2.533,1.98,1.98,0,0,0,.382-2.512,2.9,2.9,0,0,1-3.664-.021" transform="translate(0)" fill="#707070"/>
    <path id="Path_35793" data-name="Path 35793" d="M78.569,146.5a5.787,5.787,0,1,1,5.84-5.708,5.8,5.8,0,0,1-5.84,5.708m.01-1.869a3.917,3.917,0,1,0,.088-7.834,3.917,3.917,0,1,0-.088,7.834" transform="translate(-54.382 -100.752)" fill="#707070"/>
    <path id="Path_35794" data-name="Path 35794" d="M166.237,54.1a5.783,5.783,0,1,1,5.8-5.753,5.8,5.8,0,0,1-5.8,5.753m0-1.87a3.913,3.913,0,0,0,.046-7.827,3.913,3.913,0,1,0-.046,7.827" transform="translate(-119.82 -31.763)" fill="#707070"/>
    <path id="Path_35795" data-name="Path 35795" d="M21.882,25.492a5.783,5.783,0,1,1,5.8-5.753,5.8,5.8,0,0,1-5.8,5.753m0-1.871a3.913,3.913,0,0,0,.046-7.826,3.913,3.913,0,1,0-.046,7.826" transform="translate(-12.03 -10.398)" fill="#707070"/>
  </g>
</svg>
