<svg xmlns="http://www.w3.org/2000/svg" width="33.943" height="28.711" viewBox="0 0 33.943 28.711">
  <path id="My_Wishes_Button_icon" d="M0,9.242V7.807c.041-.255.082-.51.125-.765A8.356,8.356,0,0,1,10.708.315,8.645,8.645,0,0,1,15.532,4c.144.211.279.428.436.669.173-.264.317-.5.477-.728C18.4,1.166,21-.309,24.476.066a8.38,8.38,0,0,1,7.37,9.717,9.936,9.936,0,0,1-2.082,4.67,28.107,28.107,0,0,1-4.689,4.684c-2.491,2.043-5.02,4.04-7.532,6.057-.525.421-1.047.845-1.565,1.262-.051-.032-.079-.045-.1-.065C13.44,24.446,11,22.508,8.571,20.551A43.142,43.142,0,0,1,2.88,15.33,11.434,11.434,0,0,1,.354,10.973C.194,10.407.116,9.82,0,9.242" transform="translate(1 1.03)" fill="none" stroke="#707070" stroke-width="2"/>
</svg>
