<svg id="pointorange" xmlns="http://www.w3.org/2000/svg" xmlns:xlink="http://www.w3.org/1999/xlink" width="60.071" height="65.065" viewBox="0 0 60.071 65.065">
  <defs>
    <clipPath id="clip-path">
      <rect id="Rectangle_2" data-name="Rectangle 2" width="60.071" height="65.065" fill="#d17a52"/>
    </clipPath>
  </defs>
  <g id="Group_3" data-name="Group 3" clip-path="url(#clip-path)">
    <path id="Path_3" data-name="Path 3" d="M74.351,94.116a4.675,4.675,0,0,1,3.114,1.148c.778.652,1.561,1.3,2.332,1.958a3.457,3.457,0,0,0,2.05.857c1.183.09,2.371.175,3.543.35a4.622,4.622,0,0,1,3.884,4.112c.118,1.16.148,2.334.354,3.477a4.735,4.735,0,0,0,.8,1.792c.566.812,1.26,1.534,1.9,2.3a4.708,4.708,0,0,1,.035,6.328c-.59.717-1.169,1.445-1.795,2.13a4.005,4.005,0,0,0-1.034,2.585c-.05.862-.173,1.72-.206,2.582a2.019,2.019,0,0,0,.218,1.028c1.772,3.113,3.571,6.21,5.362,9.313.215.372.494.744.181,1.192-.3.432-.73.35-1.172.3-2.508-.3-5.019-.568-7.525-.88-.391-.049-.524.085-.66.4-.989,2.321-2,4.634-3,6.951-.173.4-.349.911-.856.815a1.545,1.545,0,0,1-.888-.707q-2.693-4.574-5.314-9.19c-.231-.405-.445-.662-.942-.49a.646.646,0,0,1-.384.019c-.861-.283-1.18.253-1.542.9-1.623,2.875-3.286,5.727-4.941,8.584-.242.419-.412.963-1.044.916-.593-.044-.7-.569-.887-1-.978-2.255-1.959-4.51-2.921-6.772-.148-.347-.293-.478-.71-.425q-3.822.485-7.654.882a1.167,1.167,0,0,1-.95-.3,1.241,1.241,0,0,1,.065-1.045c1.774-3.136,3.6-6.245,5.373-9.38a2.441,2.441,0,0,0,.251-1.209c-.019-.84-.145-1.677-.2-2.517a3.965,3.965,0,0,0-1.013-2.527c-.651-.72-1.262-1.478-1.876-2.231a4.69,4.69,0,0,1,0-6.126c.614-.753,1.225-1.511,1.878-2.23a3.965,3.965,0,0,0,1.013-2.526c.058-.9.14-1.808.236-2.71A4.727,4.727,0,0,1,64,98.321a25.641,25.641,0,0,0,2.9-.277,5.323,5.323,0,0,0,1.932-.785c.871-.592,1.636-1.338,2.45-2.014a4.617,4.617,0,0,1,3.069-1.128M56.721,113.3l-.173.082a12.614,12.614,0,0,0,.933,1.927c.606.862,1.338,1.637,2.021,2.444a4.652,4.652,0,0,1,1.159,2.619c.107,1.16.2,2.322.33,3.48a3.105,3.105,0,0,0,2.885,2.834c.645.059,1.29.146,1.936.149a6.657,6.657,0,0,1,4.946,2.028,17.555,17.555,0,0,0,1.482,1.254,3.1,3.1,0,0,0,4.244-.011q1.153-.942,2.281-1.916a5.023,5.023,0,0,1,3.119-1.253c.991-.053,1.979-.156,2.967-.255a3.1,3.1,0,0,0,2.874-2.846c.1-.922.193-1.847.244-2.773a5.444,5.444,0,0,1,1.416-3.524c.641-.7,1.235-1.444,1.833-2.182a3.1,3.1,0,0,0-.007-4.146c-.669-.819-1.358-1.622-2.038-2.432a4.574,4.574,0,0,1-1.119-2.568c-.106-1.16-.2-2.322-.331-3.48a3.018,3.018,0,0,0-2.569-2.772,14.232,14.232,0,0,0-2.253-.217,6.517,6.517,0,0,1-4.8-1.9,20.272,20.272,0,0,0-1.63-1.381,3.123,3.123,0,0,0-4.248.012c-.8.661-1.59,1.329-2.382,2a4.77,4.77,0,0,1-2.826,1.149c-1.012.068-2.022.167-3.032.259a3.125,3.125,0,0,0-3.007,2.929c-.1.879-.189,1.761-.233,2.644a5.487,5.487,0,0,1-1.422,3.589c-.642.7-1.228,1.449-1.836,2.179a3.088,3.088,0,0,0-.772,2.076M71.9,131.855c-1.01-.845-1.964-1.622-2.893-2.428a3.714,3.714,0,0,0-2.288-.938c-.991-.06-1.98-.154-2.968-.253a4.9,4.9,0,0,1-3.565-2.08l-4.441,7.7c.358-.021.592-.023.822-.05,1.993-.236,3.987-.47,5.979-.719,1.111-.139,1.248-.075,1.679.927q1.242,2.881,2.486,5.762c.073.168.167.328.29.566l4.9-8.485m21.086,2.018-4.451-7.713a4.907,4.907,0,0,1-3.5,2.069c-1.029.11-2.061.205-3.093.269a3.434,3.434,0,0,0-2.069.8c-1.006.846-2.014,1.689-3.053,2.56l4.909,8.5c.14-.3.234-.484.317-.676.848-1.956,1.713-3.905,2.53-5.875a1.074,1.074,0,0,1,1.3-.757c1.26.171,2.525.308,3.788.453,1.06.122,2.121.237,3.324.37" transform="translate(-44.324 -77.82)" fill="#d17a52"/>
    <path id="Path_4" data-name="Path 4" d="M140.037,13.512c-.517.139-1.037.277-1.557.419-.769.21-1.536.429-2.308.63-.725.189-1.122-.088-1.169-.845-.069-1.12-.076-2.245-.171-3.363a2.835,2.835,0,0,0-.385-1.184c-.567-.942-1.2-1.842-1.8-2.766-.445-.688-.308-1.109.437-1.417.08-.033.164-.055.244-.086a14.8,14.8,0,0,0,3.453-1.408,14.8,14.8,0,0,0,2.4-2.865c.669-.832,1.063-.835,1.726,0a9.069,9.069,0,0,1,.719.916,6.366,6.366,0,0,0,4.1,2.976,9.31,9.31,0,0,1,1.332.5.8.8,0,0,1,.416,1.339c-.629.981-1.3,1.937-1.909,2.928a2.328,2.328,0,0,0-.329,1.013c-.084,1.119-.108,2.242-.159,3.364-.038.83-.414,1.108-1.229.889-1.083-.29-2.161-.6-3.242-.893-.186-.051-.376-.092-.57-.139m.011-11.471c-.677.846-1.275,1.636-1.925,2.382a2.614,2.614,0,0,1-.92.658c-.908.387-1.84.715-2.838,1.094.581.887,1.157,1.716,1.674,2.58a2.6,2.6,0,0,1,.339,1.078c.086.986.108,1.977.158,3.021.916-.249,1.8-.449,2.652-.734a2.757,2.757,0,0,1,1.765.01c.835.257,1.684.468,2.731.754,0-1.053-.045-2,.02-2.939a3.159,3.159,0,0,1,.43-1.314c.483-.833,1.045-1.621,1.6-2.461-.959-.36-1.861-.657-2.726-1.04a3.386,3.386,0,0,1-1.117-.811c-.632-.7-1.2-1.471-1.838-2.277" transform="translate(-109.469 0)" fill="#d17a52"/>
    <path id="Path_5" data-name="Path 5" d="M11.816,48.026a11.715,11.715,0,0,1-1.493-.411,6.7,6.7,0,0,0-5.372.012,7.566,7.566,0,0,1-.994.283c-.936.251-1.3.005-1.356-.951-.065-1.1-.08-2.2-.169-3.3a2.506,2.506,0,0,0-.35-1.066C1.5,41.641.855,40.721.248,39.779c-.44-.683-.3-1.108.451-1.413a1.877,1.877,0,0,1,.3-.114,8.875,8.875,0,0,0,5.763-4.185c.615-.96,1.061-.9,1.8,0a14.965,14.965,0,0,0,2.412,2.848,14.371,14.371,0,0,0,3.4,1.362c1.028.391,1.156.773.559,1.682-.473.721-.91,1.47-1.434,2.153a3.487,3.487,0,0,0-.709,2.282c.011.926-.076,1.853-.115,2.78-.022.511-.275.8-.858.852M1.968,39.562c.561.856,1.121,1.646,1.606,2.481a3.221,3.221,0,0,1,.4,1.254c.1.956.116,1.92.169,2.938.98-.266,1.885-.551,2.81-.746a3.461,3.461,0,0,1,1.382,0c.921.192,1.823.474,2.939.774,0-.961.008-1.816,0-2.671a2.87,2.87,0,0,1,.584-1.8c.517-.7.968-1.458,1.473-2.229-.949-.361-1.849-.663-2.713-1.048a3.427,3.427,0,0,1-1.12-.8c-.642-.71-1.214-1.483-1.85-2.274C7,36.245,6.43,37.008,5.8,37.714a3.211,3.211,0,0,1-1.065.777c-.884.391-1.8.7-2.767,1.07" transform="translate(0 -27.59)" fill="#d17a52"/>
    <path id="Path_6" data-name="Path 6" d="M270.214,48.16c-1.072-.292-2.2-.569-3.312-.917a2.6,2.6,0,0,0-1.634-.011c-.987.307-1.988.57-2.987.834-.849.225-1.208-.055-1.249-.94a6.146,6.146,0,0,1-.045-.969,7.741,7.741,0,0,0-1.9-5.636c-1.081-1.453-.989-1.762.731-2.26a7.989,7.989,0,0,0,4.97-3.59,5.247,5.247,0,0,1,.6-.76.785.785,0,0,1,1.359.017c.753.917,1.47,1.863,2.231,2.773a2.009,2.009,0,0,0,.757.554c1.078.436,2.176.822,3.261,1.241.761.294.9.724.472,1.406a13.587,13.587,0,0,1-1.04,1.56,5.537,5.537,0,0,0-1.273,4,16.778,16.778,0,0,1-.081,1.939c-.036.482-.329.728-.864.758M260.4,39.681a15.485,15.485,0,0,1,1.88,3.1,15.074,15.074,0,0,1,.289,3.573,18.724,18.724,0,0,0,1.933-.529,4.223,4.223,0,0,1,3.142.009c.609.226,1.26.34,1.922.512.053-1.021.061-1.951.165-2.87a3.659,3.659,0,0,1,.442-1.372c.467-.816,1.021-1.581,1.572-2.417-.879-.333-1.673-.666-2.49-.933a2.938,2.938,0,0,1-1.533-1.11c-.513-.706-1.088-1.367-1.666-2.084-.623.778-1.152,1.52-1.769,2.179a4.387,4.387,0,0,1-1.323.953c-.817.38-1.684.653-2.565.984" transform="translate(-213.641 -27.722)" fill="#d17a52"/>
    <path id="Path_7" data-name="Path 7" d="M115.29,158.984A12.158,12.158,0,1,1,127.5,146.872a12.18,12.18,0,0,1-12.209,12.112m8.494-5.863a10.475,10.475,0,0,0-1.162-14,10.589,10.589,0,0,0-14.838.238,10.439,10.439,0,0,0-.919,13.743,9.118,9.118,0,0,1,3.665-4.705c-1.481-3.248-1.061-5.872,1.205-7.7a5.722,5.722,0,0,1,7.031-.108,5.554,5.554,0,0,1,2.076,3.047,5.8,5.8,0,0,1-.755,4.734,9.153,9.153,0,0,1,3.7,4.743M115.3,157.43A10.613,10.613,0,0,0,122.1,155a.813.813,0,0,0,.335-.986,7.552,7.552,0,0,0-2.971-4.185.614.614,0,0,0-.842,0,5.592,5.592,0,0,1-6.591-.006.612.612,0,0,0-.842.008,7.5,7.5,0,0,0-2.966,4.187.775.775,0,0,0,.293.942,10.6,10.6,0,0,0,6.786,2.47M115.345,141a4.166,4.166,0,1,0,4.141,4.164A4.139,4.139,0,0,0,115.345,141" transform="translate(-85.29 -111.35)" fill="#d17a52"/>
  </g>
</svg>
