<svg xmlns="http://www.w3.org/2000/svg" xmlns:xlink="http://www.w3.org/1999/xlink" width="54.264" height="51.108" viewBox="0 0 54.264 51.108">
  <defs>
    <clipPath id="clip-path">
      <rect id="Rectangle_147981" data-name="Rectangle 147981" width="54.264" height="51.108" fill="#d17a52"/>
    </clipPath>
  </defs>
  <g id="supportorange" clip-path="url(#clip-path)">
    <path id="Path_35789" data-name="Path 35789" d="M0,24.279c.085-.359.159-.72.256-1.076a7.425,7.425,0,0,1,7-5.472c.192-.006.384,0,.609,0A19.181,19.181,0,0,1,15.924,3.585,18.579,18.579,0,0,1,27.176,0,18.772,18.772,0,0,1,40.211,5.117,19.045,19.045,0,0,1,46.365,17.66c.731.09,1.421.126,2.09.265a7.331,7.331,0,0,1,5.782,7,50.862,50.862,0,0,1-.117,5.87A7.215,7.215,0,0,1,47.412,37c-.863.047-1.73.03-2.595.025a1.648,1.648,0,0,1-1.79-1.824q0-7.892,0-15.785a15.165,15.165,0,0,0-3.52-10.083c-4.339-5.15-9.916-7.09-16.416-5.381S12.733,10.1,11.449,16.714a15.29,15.29,0,0,0-.215,2.845c-.02,5.156-.009,10.311-.01,15.467,0,1.3-.4,1.857-1.672,2-3.985.462-7.4-.911-8.967-4.538A16.684,16.684,0,0,1,0,30.531V24.279" transform="translate(0 0)" fill="#d17a52"/>
    <path id="Path_35790" data-name="Path 35790" d="M158.422,319.746c-.706,0-1.412.012-2.117,0a3.386,3.386,0,0,1-.09-6.77c1.463-.045,2.93-.047,4.393,0a3.385,3.385,0,0,1-.069,6.767c-.705.016-1.412,0-2.117,0" transform="translate(-131.279 -268.643)" fill="#d17a52"/>
    <path id="Path_35791" data-name="Path 35791" d="M63.413,283.459v1.815a11.448,11.448,0,0,1-12.576-9.568h1.822c1.575,5.376,5.195,7.916,10.754,7.753" transform="translate(-43.641 -236.68)" fill="#d17a52"/>
  </g>
</svg>
