<svg xmlns="http://www.w3.org/2000/svg" xmlns:xlink="http://www.w3.org/1999/xlink" width="22.907" height="33" viewBox="0 0 22.907 33">
  <defs>
    <clipPath id="clip-path">
      <rect id="Rectangle_17597" data-name="Rectangle 17597" width="22.907" height="33" transform="translate(0 0)" fill="#d17a52"/>
    </clipPath>
  </defs>
  <g id="Group_37456" data-name="Group 37456" transform="translate(0 0.001)">
    <g id="Group_37455" data-name="Group 37455" transform="translate(0 -0.001)" clip-path="url(#clip-path)">
      <path id="Path_29701" data-name="Path 29701" d="M22.907,201.367a11.454,11.454,0,1,1-11.49-11.454,11.454,11.454,0,0,1,11.49,11.454M11.44,211.31a9.954,9.954,0,1,0-9.951-9.944,9.951,9.951,0,0,0,9.951,9.944" transform="translate(0 -184.866)" fill="#d17a52"/>
      <path id="Path_29702" data-name="Path 29702" d="M94.607,91.527a11.757,11.757,0,0,0-18.841-.006c.178-.313.332-.643.538-.936.5-.7,1.013-1.4,1.536-2.083a19.263,19.263,0,0,0,1.588-2.288A9.747,9.747,0,0,0,80,84.872a2.63,2.63,0,0,1,.263-.488.391.391,0,0,1,.354-.172q4.583,0,9.165,0a.414.414,0,0,1,.375.185,2.01,2.01,0,0,1,.249.48,10,10,0,0,0,1.8,3.169c.535.7,1.086,1.388,1.6,2.1.292.408.52.862.777,1.3a.527.527,0,0,1,.032.08" transform="translate(-73.753 -81.975)" fill="#d17a52"/>
      <path id="Path_29703" data-name="Path 29703" d="M76.887,881.539a11.758,11.758,0,0,0,18.832-.039c-.054.111-.092.193-.134.274a14.972,14.972,0,0,1-1.634,2.383,22.48,22.48,0,0,0-1.707,2.352,7.192,7.192,0,0,0-.689,1.49,3.33,3.33,0,0,1-.27.589.461.461,0,0,1-.442.237q-4.556-.006-9.112,0a.43.43,0,0,1-.4-.2,2.613,2.613,0,0,1-.269-.529,9.355,9.355,0,0,0-1.521-2.752c-.6-.8-1.231-1.589-1.821-2.4-.285-.392-.507-.829-.757-1.246-.029-.048-.049-.1-.073-.153" transform="translate(-74.844 -858.077)" fill="#d17a52"/>
      <path id="Path_29704" data-name="Path 29704" d="M267.559,2.014h-9.15c0-.039-.008-.077-.009-.115q0-.777,0-1.554c0-.249.1-.346.345-.346h8.475c.234,0,.337.1.338.326,0,.558,0,1.115,0,1.689" transform="translate(-251.534 0.001)" fill="#d17a52"/>
      <path id="Path_29705" data-name="Path 29705" d="M258.4,1166.008h9.145c0,.048.006.094.006.141q0,.757,0,1.514c0,.26-.1.362-.36.362h-8.436c-.259,0-.362-.1-.362-.361q0-.764,0-1.528c0-.039,0-.078.007-.129" transform="translate(-251.529 -1135.025)" fill="#d17a52"/>
      <path id="Path_29706" data-name="Path 29706" d="M107.7,582.057l-.587-1.217q-.5-1.034-1-2.069a.277.277,0,0,0-.157-.14c-.171-.078-.33-.182-.5-.271a.277.277,0,0,0-.152-.045q-2.5.37-4.99.747l-2.849.427a.221.221,0,0,1-.047-.011l.659-.22q3.552-1.18,7.1-2.361a.279.279,0,0,0,.125-.087,1.186,1.186,0,1,1,1.911,1.406.283.283,0,0,0-.027.184c.115.811.235,1.621.353,2.431q.089.61.177,1.22Zm-.853-4.559a.563.563,0,1,0-.553.565.563.563,0,0,0,.553-.565" transform="translate(-94.838 -561.007)" fill="#d17a52"/>
      <path id="Path_29707" data-name="Path 29707" d="M406.1,277.431a.66.66,0,0,1-.663-.68.678.678,0,0,1,.68-.684.7.7,0,0,1,.682.7.676.676,0,0,1-.7.663" transform="translate(-394.666 -268.732)" fill="#d17a52"/>
      <path id="Path_29708" data-name="Path 29708" d="M92.082,591.341a.668.668,0,0,1-.669-.678.684.684,0,0,1,.694-.686.7.7,0,0,1,.675.7.684.684,0,0,1-.7.667" transform="translate(-88.984 -574.3)" fill="#d17a52"/>
      <path id="Path_29709" data-name="Path 29709" d="M406.034,905.294a.665.665,0,0,1-.669-.676.678.678,0,0,1,.677-.686.69.69,0,0,1,.688.68.678.678,0,0,1-.695.682" transform="translate(-394.594 -879.913)" fill="#d17a52"/>
      <path id="Path_29710" data-name="Path 29710" d="M718.742,590.67a.689.689,0,0,1,.694-.687.682.682,0,0,1,.67.7.682.682,0,0,1-1.364-.008" transform="translate(-699.644 -574.307)" fill="#d17a52"/>
      <path id="Path_29711" data-name="Path 29711" d="M563.107,856.674l-.347.205-1.067-1.851.346-.207,1.068,1.853" transform="translate(-546.768 -832.107)" fill="#d17a52"/>
      <path id="Path_29712" data-name="Path 29712" d="M666.962,752.7l-.2.332-1.853-1.067.207-.347,1.85,1.082" transform="translate(-647.237 -731.646)" fill="#d17a52"/>
      <path id="Path_29713" data-name="Path 29713" d="M246.934,856.91l-.348-.2,1.083-1.853.332.2-1.067,1.852" transform="translate(-240.034 -832.138)" fill="#d17a52"/>
      <path id="Path_29714" data-name="Path 29714" d="M562.755,309.64l.347.19-1.067,1.852-.347-.19,1.067-1.853" transform="translate(-546.763 -301.412)" fill="#d17a52"/>
      <path id="Path_29715" data-name="Path 29715" d="M665.129,438.519l-.206-.332,1.852-1.067.205.332-1.851,1.066" transform="translate(-647.255 -425.506)" fill="#d17a52"/>
      <path id="Path_29716" data-name="Path 29716" d="M121.6,751.593l.19.347-1.852,1.068-.189-.333,1.852-1.083" transform="translate(-116.563 -731.622)" fill="#d17a52"/>
      <path id="Path_29717" data-name="Path 29717" d="M248.014,311.512l-.331.19L246.6,309.85l.347-.19,1.067,1.852" transform="translate(-240.047 -301.432)" fill="#d17a52"/>
      <path id="Path_29718" data-name="Path 29718" d="M121.784,438.164l-.189.332-1.852-1.067.189-.332,1.852,1.067" transform="translate(-116.561 -425.483)" fill="#d17a52"/>
    </g>
  </g>
</svg>
