<svg xmlns="http://www.w3.org/2000/svg" width="24.006" height="24.006" viewBox="0 0 24.006 24.006">
  <path id="Icon_awesome-caret-square-down" data-name="Icon awesome-caret-square-down" d="M24.006,4.822V23.684a2.573,2.573,0,0,1-2.572,2.572H2.572A2.573,2.573,0,0,1,0,23.684V4.822A2.573,2.573,0,0,1,2.572,2.25H21.434A2.573,2.573,0,0,1,24.006,4.822ZM4.957,12.351l6.591,6.591a.644.644,0,0,0,.911,0l6.591-6.591a.643.643,0,0,0-.455-1.1H5.412A.643.643,0,0,0,4.957,12.351Z" transform="translate(0 -2.25)" fill="#332c32"/>
</svg>
