<svg xmlns="http://www.w3.org/2000/svg" xmlns:xlink="http://www.w3.org/1999/xlink" width="29.73" height="31.77" viewBox="0 0 29.73 31.77">
  <defs>
    <clipPath id="clip-path">
      <rect id="Rectangle_17596" data-name="Rectangle 17596" width="29.73" height="31.77" fill="none"/>
    </clipPath>
  </defs>
  <g id="Group_37453" data-name="Group 37453" clip-path="url(#clip-path)">
    <path id="Path_29689" data-name="Path 29689" d="M27.526,33.359c-.734-1.091-4.729-1.722-4.729-1.722l-1.653-.419-2.026-1.51-8.872.63-.727.685L9.5,30.987l-2.569.651s-4,.63-4.735,1.722C.88,34.2-.24,44.7.044,44.739c.251.039,10.876.008,12.97,0,2.7.007,16.418.038,16.671,0,.283-.039-.837-10.535-2.161-11.38" transform="translate(0 -12.989)" fill="#6c676b"/>
    <path id="Path_29690" data-name="Path 29690" d="M31.1,33.359c-.734-1.091-4.729-1.722-4.729-1.722l-1.653-.419-2.026-1.51-8.872.63-.727.685-.015-.037-2.569.651s-.982.155-2.062.444a4.734,4.734,0,0,0-.187,2.346,1.261,1.261,0,0,0,.471.613c.068.1,6.763,6.8,9.685,9.7,4.614.01,14.628.028,14.844-.006.283-.039-.837-10.535-2.161-11.38" transform="translate(-3.574 -12.989)" fill="#d17a52"/>
    <path id="Path_29691" data-name="Path 29691" d="M27.629,3.162c0,1.747-2.44,3.163-5.45,3.163s-5.45-1.416-5.45-3.163S19.169,0,22.179,0s5.45,1.415,5.45,3.162" transform="translate(-7.314 0)" fill="#ebedec"/>
    <path id="Path_29692" data-name="Path 29692" d="M27.857,6.123A1.238,1.238,0,0,1,26.619,7.36H16.154a1.237,1.237,0,1,1,0-2.475H26.619a1.238,1.238,0,0,1,1.238,1.238" transform="translate(-6.521 -2.136)" fill="#b87658"/>
    <path id="Path_29693" data-name="Path 29693" d="M14.408,8.091V6.675c0-.342.892.179,1.993.179h9.531c1.1,0,1.994-.521,1.994-.179V8.091Z" transform="translate(-6.299 -2.868)" fill="#d17a52"/>
    <path id="Path_29694" data-name="Path 29694" d="M22.076,23.653a3.606,3.606,0,0,1-2.754-2.095C19,20.494,16.6,18.047,16.6,18.047l-.117,1.4c1.289,3.126,3.715,5.281,5.6,5.281A2.61,2.61,0,0,0,22.4,24.7c.111-.519.116-1.043-.32-1.043" transform="translate(-7.205 -7.89)" fill="#332c32"/>
    <path id="Path_29695" data-name="Path 29695" d="M26.156,23.653a3.606,3.606,0,0,0,2.754-2.095c.319-1.064,2.724-3.511,2.724-3.511l.117,1.4c-1.289,3.126-3.715,5.281-5.6,5.281a2.578,2.578,0,0,1-.311-.028c-.112-.519-.117-1.043.32-1.043" transform="translate(-11.268 -7.89)" fill="#332c32"/>
    <path id="Path_29696" data-name="Path 29696" d="M14.984,9.666c.854.334,2.774-.385,2.774-.385H11.683s.131,5.456-.741,7.218-3.246,7.529-2.681,9,2.452.452,3.713,2.035a14.126,14.126,0,0,0,3.409,2.827,8.67,8.67,0,0,0,0-3.731,34.507,34.507,0,0,1-.679-7.8c.226-1.017-.557-3.655-.783-5.577s.208-3.917,1.063-3.583" transform="translate(-3.574 -4.058)" fill="#ebedec"/>
    <path id="Path_29697" data-name="Path 29697" d="M34.49,16.5c-.872-1.762-.741-7.217-.741-7.217H27.674s1.92.719,2.774.384,1.288,1.661,1.062,3.583-1.009,4.56-.783,5.577a34.511,34.511,0,0,1-.679,7.8,8.657,8.657,0,0,0,0,3.731,14.141,14.141,0,0,0,3.409-2.826c1.261-1.583,3.148-.565,3.713-2.036s-1.809-7.235-2.681-9" transform="translate(-12.099 -4.058)" fill="#ebedec"/>
    <path id="Path_29698" data-name="Path 29698" d="M11.683,9.281s.131,5.456-.742,7.217-3.245,7.529-2.68,9,2.452.452,3.713,2.036a14.141,14.141,0,0,0,3.409,2.826,8.677,8.677,0,0,0,0-3.731,34.439,34.439,0,0,1-.678-7.8c.225-1.018-.557-3.655-.784-5.577s.207-3.917,1.062-3.583,2.774-.385,2.774-.385Z" transform="translate(-3.574 -4.058)" fill="#ebedec"/>
    <path id="Path_29699" data-name="Path 29699" d="M33.75,9.281s-.131,5.456.741,7.217,3.246,7.529,2.681,9-2.453.452-3.714,2.036a14.132,14.132,0,0,1-3.409,2.826,8.656,8.656,0,0,1,0-3.731,34.509,34.509,0,0,0,.679-7.8c-.226-1.018.557-3.655.783-5.577S31.3,9.332,30.449,9.666s-2.774-.385-2.774-.385Z" transform="translate(-12.099 -4.058)" fill="#ebedec"/>
    <path id="Path_29700" data-name="Path 29700" d="M26.731,27.263c0,.529-.621.958-1.386.958s-1.386-.429-1.386-.958.621-.958,1.386-.958,1.386.429,1.386.958" transform="translate(-10.475 -11.501)" fill="#332c32"/>
  </g>
</svg>
