<svg xmlns="http://www.w3.org/2000/svg" xmlns:xlink="http://www.w3.org/1999/xlink" width="41.309" height="10.264" viewBox="0 0 41.309 10.264">
  <defs>
    <clipPath id="clip-path">
      <rect id="Rectangle_17598" data-name="Rectangle 17598" width="41.309" height="10.264" fill="#d17a52"/>
    </clipPath>
  </defs>
  <g id="Group_37458" data-name="Group 37458" transform="translate(0 0.001)">
    <g id="Group_37457" data-name="Group 37457" transform="translate(0 0)" clip-path="url(#clip-path)">
      <path id="Path_29719" data-name="Path 29719" d="M41.17,4.122a.294.294,0,0,0-.386.068c-1.661,2.113-3.736,2.4-6.941.969C32.715,4.653,31.556,4,30.329,3.306c-1.276-.72-2.6-1.465-3.933-2.063A12.322,12.322,0,0,0,21.629,0a.294.294,0,0,0-.241.115,5.286,5.286,0,0,0-.733,1.323A5.322,5.322,0,0,0,19.922.115.294.294,0,0,0,19.68,0a12.327,12.327,0,0,0-4.767,1.243c-1.336.6-2.656,1.343-3.931,2.063C9.754,4,8.6,4.653,7.467,5.159,4.262,6.593,2.186,6.3.526,4.19a.294.294,0,0,0-.5.307A6.316,6.316,0,0,0,5.373,8.043c-.055.029-.11.057-.166.083l-.017.007a.295.295,0,0,0,.041.554A10.016,10.016,0,0,0,9.384,8.44a2.262,2.262,0,0,1-1.066.946,2.928,2.928,0,0,1-.364.133.294.294,0,0,0,.03.572A16.443,16.443,0,0,0,16.7,8.909a8,8,0,0,0,3.05-2.2,5.741,5.741,0,0,0,.906-1.6,5.766,5.766,0,0,0,.9,1.6,8.01,8.01,0,0,0,3.05,2.2,16.447,16.447,0,0,0,8.716,1.183.294.294,0,0,0,.029-.572,2.912,2.912,0,0,1-.363-.133,2.26,2.26,0,0,1-1.067-.946,10.017,10.017,0,0,0,4.152.247.294.294,0,0,0,.041-.554L36.1,8.126c-.057-.026-.112-.054-.166-.083A6.312,6.312,0,0,0,41.281,4.5a.3.3,0,0,0-.111-.376" transform="translate(0 0.001)" fill="#d17a52"/>
    </g>
  </g>
</svg>
