<svg id="Group_37452" data-name="Group 37452" xmlns="http://www.w3.org/2000/svg" xmlns:xlink="http://www.w3.org/1999/xlink" width="23.579" height="30.927" viewBox="0 0 23.579 30.927">
  <defs>
    <clipPath id="clip-path">
      <rect id="Rectangle_17595" data-name="Rectangle 17595" width="23.579" height="30.927" fill="#d17a52"/>
    </clipPath>
  </defs>
  <g id="Group_37451" data-name="Group 37451" clip-path="url(#clip-path)">
    <path id="Path_29685" data-name="Path 29685" d="M11.7,63.09c-2.734,0-5.482.164-8.195-.077-1.168-.1-2.273-1.026-3.378-1.628-.134-.073-.124-.47-.125-.717C0,55.329-.008,49.99.021,44.65a2.032,2.032,0,0,1,.449-1.08,4.714,4.714,0,0,1,4.972-2.06,2.022,2.022,0,0,0,2.181-1,1.547,1.547,0,0,1,1.089-.536c1.929-.053,3.86.01,5.788-.042a1.545,1.545,0,0,1,1.6.79,1.487,1.487,0,0,0,1.59.807,10.626,10.626,0,0,1,2.311.01,4.136,4.136,0,0,1,1.514.588c1.774,1.057,2.123,2.659,2.06,4.652-.142,4.531-.065,9.069-.025,13.6a1.643,1.643,0,0,1-.86,1.531,6.423,6.423,0,0,1-4.231,1.2c-2.246-.107-4.5-.027-6.753-.027m.112-19.343c-2.574,0-5.148-.006-7.722,0A2.5,2.5,0,0,0,1.946,45.8c.147,3.309.317,6.616.46,9.925a5.218,5.218,0,0,0,.981,2.961,1.326,1.326,0,0,0,.885.526c4.987.032,9.974.024,14.962.012.235,0,.614-.061.68-.206a9.288,9.288,0,0,0,1.1-2.81c.293-3.329.393-6.674.583-10.012a2.462,2.462,0,0,0-2.251-2.445c-2.51-.007-5.019,0-7.529,0M.252,44.328c0,5.431,0,10.668.01,15.906a.734.734,0,0,0,.249.555c.619.354,1.272.649,2.012,1.015,0-.339.008-.5,0-.657-.274-5.037-.56-10.074-.814-15.113-.046-.907-.681-1.211-1.457-1.707m22.963.072a2.019,2.019,0,0,0-1.408,1.982c-.088,2.889-.327,5.773-.494,8.659-.128,2.207-.237,4.416-.362,6.759a10.238,10.238,0,0,1,1.2-.551c.872-.268,1.1-.817,1.087-1.715-.057-3.375-.023-6.752-.023-10.129V44.4" transform="translate(0 -32.217)" fill="#d17a52"/>
    <path id="Path_29686" data-name="Path 29686" d="M51.473,22.13H45.519V18.364h5.954Zm-5.505-.367.307-.024c.066-1.034.132-2.068.2-3.193-.15.049-.486.1-.488.166-.033,1.016-.023,2.033-.023,3.05" transform="translate(-36.727 -14.817)" fill="#d17a52"/>
    <path id="Path_29687" data-name="Path 29687" d="M53.37,3.051C53.207.2,53.369-.034,55.443,0c1.4.024,1.567.41,1.316,3.049Z" transform="translate(-43.024 0.001)" fill="#d17a52"/>
    <path id="Path_29688" data-name="Path 29688" d="M12.71,84.339a13.935,13.935,0,0,1,8.475,1.313c3.139,1.541,6.336,2.453,10.035,1.68-.515,2.241.269,4.512-.973,6.561a1.143,1.143,0,0,1-1.139.641c-4.531-.02-9.063-.011-13.594-.011a2.034,2.034,0,0,1-2.335-2c-.212-2.685-.315-5.378-.469-8.188" transform="translate(-10.255 -67.909)" fill="#d17a52"/>
  </g>
</svg>
