<svg id="Group_37446" data-name="Group 37446" xmlns="http://www.w3.org/2000/svg" xmlns:xlink="http://www.w3.org/1999/xlink" width="48.428" height="20.251" viewBox="0 0 48.428 20.251">
  <defs>
    <clipPath id="clip-path">
      <rect id="Rectangle_17592" data-name="Rectangle 17592" width="48.428" height="20.251" fill="#332c32"/>
    </clipPath>
  </defs>
  <g id="Group_37445" data-name="Group 37445" clip-path="url(#clip-path)">
    <path id="Path_29670" data-name="Path 29670" d="M28.806,5.345A11.148,11.148,0,0,0,34.47,8.013c3.274.554,6.552,1.069,9.826,1.623a6.946,6.946,0,0,1,2.229.565,4.671,4.671,0,0,1,1.636,1.636,2.013,2.013,0,0,1-.312,2.4A5.713,5.713,0,0,1,46.6,15.275a28.169,28.169,0,0,1-9.48,3.315c-6.273,1.272-12.531.718-18.793-.109-1.893-.25-3.788-.474-5.614-.7-.11.147-.169.189-.171.234-.065,1.523-.817,1.923-1.986,2.018a37.783,37.783,0,0,1-9.3-.133c-.678-.113-.956-.438-1.029-1.247A49.207,49.207,0,0,1,.514,6.685a6.452,6.452,0,0,1,1.655-3.8c4.513,2.511,9.09,2.48,13.738,1.036a6.124,6.124,0,0,0,1.463-.762,2.033,2.033,0,0,0,.986-1.7c.1-1.285.765-1.79,1.788-1.25,2.161,1.139,4.271,2.421,6.4,3.655.475.276.931.6,1.419.913-.079.187-.145.315-.19.453a2.382,2.382,0,0,1-2.224,1.874,5.847,5.847,0,0,0-4.019,2.227,11.792,11.792,0,0,1,5.886-1.943c.176-.009.38-.262.5-.462.3-.484.565-1,.887-1.586M20.7,1.282c-.287.459-.582.725-.57.968s.319.5.5.741c.2-.218.532-.412.566-.662s-.241-.545-.492-1.047m2.006,1c-.293.514-.555.775-.558,1.039,0,.22.324.642.465.62a.867.867,0,0,0,.585-.582c.038-.235-.231-.54-.492-1.077m2.021,1.034c-.3.515-.591.8-.565,1.039A.949.949,0,0,0,24.73,5c.119.039.473-.373.485-.6.014-.264-.229-.548-.484-1.082" transform="translate(0 0)" fill="#332c32"/>
  </g>
</svg>
