<svg id="Group_37450" data-name="Group 37450" xmlns="http://www.w3.org/2000/svg" xmlns:xlink="http://www.w3.org/1999/xlink" width="31.815" height="25.448" viewBox="0 0 31.815 25.448">
  <defs>
    <clipPath id="clip-path">
      <rect id="Rectangle_17594" data-name="Rectangle 17594" width="31.815" height="25.448" fill="#332c32"/>
    </clipPath>
  </defs>
  <g id="Group_37449" data-name="Group 37449" clip-path="url(#clip-path)">
    <path id="Path_29681" data-name="Path 29681" d="M159.325,54.255c.636.278,1.266.574,1.914.822.161.062.381-.028.573-.048-.071-.178-.095-.408-.222-.526a16.159,16.159,0,0,0-1.9-1.643,4.268,4.268,0,0,1-1.756-3.128,19.016,19.016,0,0,1-.041-5.374c.047-.4.18-.689.645-.511a16.162,16.162,0,0,1,5.545,3.246,5.731,5.731,0,0,1,1.458,3.208q.223,1.054.519,2.091c.044.154.23.266.351.4.1-.149.264-.29.285-.449a16.881,16.881,0,0,1,.253-1.815c.13.29.264.578.39.87.964,2.237,1.911,4.481,2.892,6.71a4.113,4.113,0,0,1-2.021,5.549,4,4,0,0,1-5.352-2.324,37.675,37.675,0,0,0-3.53-7.078" transform="translate(-138.805 -38.542)" fill="#332c32"/>
    <path id="Path_29682" data-name="Path 29682" d="M54.6,60c1.137,1.364,2.291,2.787,3.49,4.17.548.632,1.189,1.183,1.782,1.778a4,4,0,0,1-5.435,5.879c-2.147-2-4.2-4.1-6.293-6.158l.121-.17c.553.175,1.1.373,1.663.512a1.7,1.7,0,0,0,.627-.1c-.1-.17-.166-.393-.313-.5C49.424,64.8,48.6,64.2,47.75,63.638a5.1,5.1,0,0,1-2.1-3.63c-.266-1.505-.306-3.051-.435-4.58-.038-.445.136-.724.63-.585a15.523,15.523,0,0,1,6.169,2.936,3.329,3.329,0,0,1,.844,1.254c.387.962.666,1.966,1.023,2.941.075.2.293.358.446.534a2.06,2.06,0,0,0,.26-.628c.034-.656.013-1.316.013-1.883" transform="translate(-39.789 -48.235)" fill="#332c32"/>
    <path id="Path_29683" data-name="Path 29683" d="M115.378,11.575A14.665,14.665,0,0,1,112,7.062a4.557,4.557,0,0,1,1.714-5.7A7.269,7.269,0,0,1,119.347.135a3.973,3.973,0,0,1,2.978,2.017c.778,1.536,1.374,3.164,2.026,4.7-1.185-.813-2.33-1.679-3.552-2.414a9.517,9.517,0,0,0-3.866-1.188.82.82,0,0,0-.978.558,10.888,10.888,0,0,0-.643,7.481c.026.094.044.191.066.287" transform="translate(-98.22 0.001)" fill="#332c32"/>
    <path id="Path_29684" data-name="Path 29684" d="M4.419,19.2C3.2,17.975,1.92,16.805.782,15.511a3.654,3.654,0,0,1-.714-3.07A6.945,6.945,0,0,1,4.027,7a4.406,4.406,0,0,1,5.6,1.281c1.041,1.374,1.883,2.9,2.813,4.358l-.173.145c-.2-.145-.394-.291-.592-.434a10.961,10.961,0,0,0-7.01-2c-.446.016-.616.25-.734.638a11.98,11.98,0,0,0,.417,7.641c.057.163.118.323.178.485Z" transform="translate(0 -5.724)" fill="#332c32"/>
  </g>
</svg>
