<svg id="Group_37448" data-name="Group 37448" xmlns="http://www.w3.org/2000/svg" xmlns:xlink="http://www.w3.org/1999/xlink" width="38.588" height="30.99" viewBox="0 0 38.588 30.99">
  <defs>
    <clipPath id="clip-path">
      <rect id="Rectangle_17593" data-name="Rectangle 17593" width="38.588" height="30.99" fill="#332c32"/>
    </clipPath>
  </defs>
  <g id="Group_37447" data-name="Group 37447" clip-path="url(#clip-path)">
    <path id="Path_29671" data-name="Path 29671" d="M22.4,97.206c.169-.116.3-.221.448-.305a24.268,24.268,0,0,1,8.049-3,10.848,10.848,0,0,1,2.759-.062A4.809,4.809,0,0,1,36.927,95.9c1.113,1.365,2.181,2.772,3.361,4.077a13.589,13.589,0,0,0,5.569,3.97,5.867,5.867,0,0,0,3.5.221,4.781,4.781,0,0,0,2.7-1.948,20.757,20.757,0,0,1,4.062,3.246,20.721,20.721,0,0,1,1.6,2,5.246,5.246,0,0,1,.62,1.206c.6,1.584.319,2.154-1.252,2.729a18.19,18.19,0,0,1-11.722.139,19.2,19.2,0,0,1-7.743-4,37.851,37.851,0,0,1-2.635-2.943l3.033-2.626-1.591-1.86-3.119,2.677-1.075-.665,3.349-2.9-1.6-1.859-3.67,3.16-.039.035c-1.031.916-1.034.926-2.309.425A14.7,14.7,0,0,1,22.4,97.206" transform="translate(-20.048 -83.954)" fill="#332c32"/>
    <path id="Path_29672" data-name="Path 29672" d="M10.45,12.654a2.084,2.084,0,0,1-.4-3.011,7.5,7.5,0,0,0,.726-1.606A18.805,18.805,0,0,1,13.6,2,5.213,5.213,0,0,1,15.824.223a2.641,2.641,0,0,1,3.318,1,6.991,6.991,0,0,1,.459.761c.938,1.776.936,1.777,2.75,2.615-.029.093-.058.189-.088.285-.277.876-.28.884-1.178.592a3.79,3.79,0,0,1-2.6-2.307,4.318,4.318,0,0,0-.747-1.187,1.016,1.016,0,0,0-1.262-.355,1.286,1.286,0,0,0-.756,1.217,3.932,3.932,0,0,0,3.428,3.829,9.518,9.518,0,0,0,2.288-.082,1.368,1.368,0,0,0,1.229-1.249,1.265,1.265,0,0,1,.892-1.068,7.284,7.284,0,0,1,4.179-.1,1.515,1.515,0,0,1,.826.67c.756,1.253,1.456,2.54,2.146,3.76a20.8,20.8,0,0,0-2.588,1.009,22.127,22.127,0,0,0-2.328,1.661c-.031-.033-.126-.127-.215-.228A5.691,5.691,0,0,0,20.75,9.106a21.45,21.45,0,0,0-7.517,2.117c-.939.412-1.83.937-2.784,1.432" transform="translate(-8.583 0)" fill="#332c32"/>
    <path id="Path_29673" data-name="Path 29673" d="M13.807,137.515c-1.3-1.846-2.71-3.251-4.964-3.534a12.325,12.325,0,0,1-6.163-2.81,17.727,17.727,0,0,1-2.11-2.1,2.806,2.806,0,0,1-.556-2.161A14.813,14.813,0,0,0,6.349,131.8a15.526,15.526,0,0,0,3.606,1.013,6.191,6.191,0,0,1,4.272,2.762,16.114,16.114,0,0,0,7.6,5.76,24.547,24.547,0,0,0,8.5,1.846,17.461,17.461,0,0,0,6.747-1.286c.146-.056.294-.109.443-.157.026-.008.064.017.252.074a14.546,14.546,0,0,1-1.57,1.056,16.009,16.009,0,0,1-7.013,1.71c-4.191.043-8.384.011-12.576.014-.355,0-.7-.015-.7-.488s.362-.485.712-.485c1.869,0,3.738,0,5.607,0,.423,0,.883.011.877-.544-.006-.524-.46-.515-.86-.515q-6.262,0-12.523,0c-.389,0-.954.151-.934-.508.019-.611.56-.451.93-.452,3.022-.009,6.043,0,9.065-.005.157,0,.353.051.463-.023.2-.131.466-.339.468-.516s-.266-.39-.46-.523c-.108-.075-.305-.023-.462-.023H11.357c-.1,0-.21,0-.314,0-.332.008-.557-.141-.55-.483s.239-.483.565-.483l2.83,0c.541,0,1.083,0,1.624,0,.376,0,.693-.108.693-.529s-.309-.534-.689-.533c-1.432.005-2.864,0-4.3,0h-6.6c-.157,0-.356.051-.461-.024a.869.869,0,0,1-.389-.5c-.011-.133.241-.319.411-.423.1-.063.273-.016.412-.016h9.218" transform="translate(0 -113.61)" fill="#332c32"/>
    <path id="Path_29674" data-name="Path 29674" d="M218.4,152.57a6.868,6.868,0,0,1,5.2-1.743.679.679,0,0,1,.28.123q1.219.764,2.434,1.536c.547.347.574.6.092,1.06a4.248,4.248,0,0,1-4.133,1,9.664,9.664,0,0,1-3.869-1.98" transform="translate(-195.513 -134.997)" fill="#332c32"/>
    <path id="Path_29675" data-name="Path 29675" d="M174.88,90.959a7.99,7.99,0,0,0-5.29,2.654l-.717-.944c.292-.292.567-.6.873-.866a6.888,6.888,0,0,1,3.341-1.631,1.6,1.6,0,0,1,1.794.788" transform="translate(-151.172 -80.684)" fill="#332c32"/>
    <path id="Path_29676" data-name="Path 29676" d="M180.351,108.67l-.807-.971a12.307,12.307,0,0,1,1.749-1.367,13.287,13.287,0,0,1,2.558-.99,1.407,1.407,0,0,1,1.644.781,7.946,7.946,0,0,0-5.144,2.547" transform="translate(-160.726 -94.251)" fill="#332c32"/>
    <path id="Path_29677" data-name="Path 29677" d="M192.4,123.708l-.846-.82a6.9,6.9,0,0,1,4.566-2.344,1.615,1.615,0,0,1,1.477.817,8,8,0,0,0-5.2,2.347" transform="translate(-171.474 -107.905)" fill="#332c32"/>
    <path id="Path_29678" data-name="Path 29678" d="M205.374,138.385l-.9-.784a6.977,6.977,0,0,1,4.392-2.11,1.87,1.87,0,0,1,1.881.838,7.972,7.972,0,0,0-5.376,2.057" transform="translate(-183.045 -121.273)" fill="#332c32"/>
    <path id="Path_29679" data-name="Path 29679" d="M78.149,287.261c-.8,0-1.606-.006-2.409,0-.356,0-.662-.079-.653-.488s.316-.489.67-.488q2.435.007,4.87,0c.335,0,.616.105.626.476.011.412-.285.5-.643.5-.82-.008-1.641,0-2.461,0" transform="translate(-67.217 -256.28)" fill="#332c32"/>
    <path id="Path_29680" data-name="Path 29680" d="M51.622,265.932c.138.007.307-.034.407.032a.8.8,0,0,1,.366.423c.023.134-.145.421-.256.436a3.7,3.7,0,0,1-1.111-.024c-.091-.015-.235-.4-.181-.462a4.03,4.03,0,0,1,.688-.523l.087.118" transform="translate(-45.507 -237.953)" fill="#332c32"/>
  </g>
</svg>
