<svg xmlns="http://www.w3.org/2000/svg" width="25.003" height="25" viewBox="0 0 25.003 25">
  <g id="Group_37669" data-name="Group 37669" transform="translate(-951.498 -364.5)">
    <path id="Path_4" data-name="Path 4" d="M0,11.455A6.355,6.355,0,0,1,.4,10.42a2.5,2.5,0,0,1,2.234-1.3c3.588-.016,7.176-.008,10.764-.006a.73.73,0,0,1,.765.721.737.737,0,0,1-.794.742q-5.247,0-10.5,0a1.246,1.246,0,0,0-1.4,1.413V27.245a1.245,1.245,0,0,0,1.4,1.4H18.141a1.241,1.241,0,0,0,1.389-1.38q0-5.2,0-10.4a1.724,1.724,0,0,1,.013-.316.73.73,0,0,1,1.449.116c.009.268,0,.537,0,.805,0,3.271-.016,6.541.007,9.812a2.718,2.718,0,0,1-2.288,2.791c-.022,0-.042.023-.062.035H2.343a.645.645,0,0,0-.11-.043A2.65,2.65,0,0,1,.127,28.227c-.053-.151-.086-.309-.127-.464V11.455" transform="translate(951.498 359.394)"/>
    <path id="Path_5" data-name="Path 5" d="M33.07,0a1.748,1.748,0,0,1,1.252.533c.431.432.865.861,1.294,1.3a1.7,1.7,0,0,1,0,2.52Q33.16,6.814,30.7,9.27q-2.952,2.952-5.9,5.906a1.41,1.41,0,0,1-.773.42c-1.062.2-2.12.421-3.181.628a.726.726,0,0,1-.9-.9c.217-1.108.432-2.217.666-3.322a1.061,1.061,0,0,1,.27-.5Q26.351,6.015,31.835.537A1.748,1.748,0,0,1,33.07,0M21.587,14.587c.733-.148,1.41-.28,2.084-.426a.548.548,0,0,0,.23-.166q4.323-4.319,8.644-8.642c.061-.061.118-.125.16-.17L30.939,3.418a1.236,1.236,0,0,1-.15.232Q26.652,7.793,22.5,11.927a1.885,1.885,0,0,0-.631,1.155c-.058.488-.182.968-.287,1.505M33.793,4.113c.276-.279.551-.555.822-.834a.237.237,0,0,0,.008-.367q-.677-.684-1.361-1.362a.229.229,0,0,0-.348-.016c-.29.281-.571.571-.846.848l1.725,1.731" transform="translate(940.328 364.5)" fill="#030303"/>
    <rect id="Rectangle_3" data-name="Rectangle 3" width="25.003" height="25" transform="translate(951.498 364.5)" fill="none"/>
  </g>
</svg>
