<svg xmlns="http://www.w3.org/2000/svg" width="25.082" height="25.077" viewBox="0 0 25.082 25.077">
  <path id="Icon_awesome-instagram" data-name="Icon awesome-instagram" d="M12.539,8.347a6.429,6.429,0,1,0,6.429,6.429A6.419,6.419,0,0,0,12.539,8.347Zm0,10.609a4.18,4.18,0,1,1,4.18-4.18,4.187,4.187,0,0,1-4.18,4.18ZM20.731,8.084a1.5,1.5,0,1,1-1.5-1.5A1.5,1.5,0,0,1,20.731,8.084Zm4.258,1.522a7.421,7.421,0,0,0-2.026-5.254,7.47,7.47,0,0,0-5.254-2.026c-2.07-.118-8.276-.118-10.346,0a7.459,7.459,0,0,0-5.254,2.02A7.445,7.445,0,0,0,.083,9.6c-.118,2.07-.118,8.276,0,10.346A7.421,7.421,0,0,0,2.108,25.2a7.48,7.48,0,0,0,5.254,2.026c2.07.118,8.276.118,10.346,0A7.421,7.421,0,0,0,22.963,25.2a7.47,7.47,0,0,0,2.026-5.254c.118-2.07.118-8.27,0-10.341ZM22.314,22.168a4.232,4.232,0,0,1-2.384,2.384c-1.651.655-5.568.5-7.392.5s-5.747.145-7.392-.5a4.232,4.232,0,0,1-2.384-2.384c-.655-1.651-.5-5.568-.5-7.392s-.145-5.747.5-7.392A4.232,4.232,0,0,1,5.147,5c1.651-.655,5.568-.5,7.392-.5s5.747-.145,7.392.5a4.232,4.232,0,0,1,2.384,2.384c.655,1.651.5,5.568.5,7.392S22.969,20.523,22.314,22.168Z" transform="translate(0.005 -2.238)" fill="#dbdbdb"/>
</svg>
