<svg xmlns="http://www.w3.org/2000/svg" width="30.874" height="25.075" viewBox="0 0 30.874 25.075">
  <path id="Icon_awesome-twitter" data-name="Icon awesome-twitter" d="M27.7,9.63c.02.274.02.549.02.823,0,8.365-6.367,18-18,18A17.881,17.881,0,0,1,0,25.616a13.091,13.091,0,0,0,1.528.078,12.672,12.672,0,0,0,7.856-2.7A6.339,6.339,0,0,1,3.467,18.6a7.979,7.979,0,0,0,1.2.1,6.692,6.692,0,0,0,1.665-.215,6.328,6.328,0,0,1-5.074-6.21V12.2a6.373,6.373,0,0,0,2.86.8A6.337,6.337,0,0,1,2.155,4.537,17.986,17.986,0,0,0,15.2,11.158a7.143,7.143,0,0,1-.157-1.45A6.334,6.334,0,0,1,26,5.379a12.458,12.458,0,0,0,4.016-1.528A6.311,6.311,0,0,1,27.23,7.338a12.685,12.685,0,0,0,3.644-.979A13.6,13.6,0,0,1,27.7,9.63Z" transform="translate(0 -3.381)" fill="#dbdbdb"/>
</svg>
