<svg xmlns="http://www.w3.org/2000/svg" width="21.787" height="25.078" viewBox="0 0 21.787 25.078">
  <path id="Icon_simple-tiktok" data-name="Icon simple-tiktok" d="M13.811.021C15.18,0,16.538.01,17.9,0a6.508,6.508,0,0,0,1.829,4.357,7.369,7.369,0,0,0,4.43,1.87v4.211a11.184,11.184,0,0,1-4.389-1.014,12.91,12.91,0,0,1-1.693-.972c-.01,3.051.01,6.1-.021,9.143a7.981,7.981,0,0,1-1.411,4.117,7.785,7.785,0,0,1-6.175,3.354A7.619,7.619,0,0,1,6.2,23.991,7.879,7.879,0,0,1,2.39,18.024c-.021-.522-.031-1.045-.01-1.557A7.866,7.866,0,0,1,11.5,9.488c.021,1.546-.042,3.093-.042,4.639a3.585,3.585,0,0,0-4.577,2.215,4.145,4.145,0,0,0-.146,1.682,3.556,3.556,0,0,0,3.657,3,3.51,3.51,0,0,0,2.894-1.682,2.411,2.411,0,0,0,.428-1.108c.1-1.87.063-3.73.073-5.6.01-4.211-.01-8.411.021-12.612Z" transform="translate(-2.369)" fill="#dbdbdb"/>
</svg>
