<svg xmlns="http://www.w3.org/2000/svg" width="23.185" height="27.696" viewBox="0 0 23.185 27.696">
  <path id="apple" d="M23.185,20.222a16.082,16.082,0,0,1-2.047,4.161q-2.147,3.262-4.277,3.262a7.692,7.692,0,0,1-2.33-.532,7.362,7.362,0,0,0-2.513-.532,6.406,6.406,0,0,0-2.363.549,6.013,6.013,0,0,1-2.2.566q-2.529,0-5.01-4.31A17.07,17.07,0,0,1,0,15.012,9.872,9.872,0,0,1,1.881,8.788a5.776,5.776,0,0,1,4.727-2.4,11.071,11.071,0,0,1,2.946.5,10.718,10.718,0,0,0,2.3.5,8.325,8.325,0,0,0,2.38-.566,9.4,9.4,0,0,1,2.88-.566,6.084,6.084,0,0,1,3.545,1.082A8.6,8.6,0,0,1,22.386,9a10.788,10.788,0,0,0-1.9,1.964,5.928,5.928,0,0,0-1.082,3.445,6.338,6.338,0,0,0,1.149,3.712,5.062,5.062,0,0,0,2.63,2.1ZM16.926.7a6.347,6.347,0,0,1-.482,2.263A6.829,6.829,0,0,1,14.9,5.26a4.719,4.719,0,0,1-1.8,1.2,9.3,9.3,0,0,1-1.731.283,7.586,7.586,0,0,1,1.3-4.277A6.631,6.631,0,0,1,16.827,0a1.543,1.543,0,0,1,.042.183,1.543,1.543,0,0,0,.042.183q0,.067.008.166T16.927.7Z"/>
</svg>
