<svg xmlns="http://www.w3.org/2000/svg" width="23.402" height="23.402" viewBox="0 0 23.402 23.402">
  <path id="facebook" d="M19.059,26.4V17.34H22.1l.456-3.531h-3.5V11.553c0-1.023.284-1.72,1.752-1.72h1.87V6.674a25.029,25.029,0,0,0-2.726-.14c-2.7,0-4.541,1.647-4.541,4.669v2.605H12.361v3.531h3.051V26.4H4.292A1.291,1.291,0,0,1,3,25.11V4.292A1.291,1.291,0,0,1,4.292,3H25.11A1.291,1.291,0,0,1,26.4,4.292V25.11A1.291,1.291,0,0,1,25.11,26.4Z" transform="translate(-3 -3)" fill="#4c5c92" fill-rule="evenodd"/>
</svg>
