<svg id="Group_37679" data-name="Group 37679" xmlns="http://www.w3.org/2000/svg" xmlns:xlink="http://www.w3.org/1999/xlink" width="14.875" height="18.186" viewBox="0 0 14.875 18.186">
  <defs>
    <clipPath id="clip-path">
      <rect id="Rectangle_1" data-name="Rectangle 1" width="14.875" height="18.186" fill="#fff"/>
    </clipPath>
  </defs>
  <g id="Group_1" data-name="Group 1" clip-path="url(#clip-path)">
    <path id="Path_1" data-name="Path 1" d="M34.914,246.354l1.692-1.693.3.321.41-2.178-.664.7-1.71-1.709,1.687-1.687,1,1.017c.058-.313.116-.616.167-.92a.159.159,0,0,0-.049-.113c-.185-.19-.373-.376-.568-.571.231-.23.461-.449.677-.681a.417.417,0,0,1,.36-.149c.231.013.463,0,.711,0-.033.182-.063.356-.1.53q-.222,1.177-.445,2.355-.332,1.76-.664,3.521-.366,1.948-.73,3.9c-.068.363-.123.73-.227,1.083a2,2,0,0,1-1.9,1.422c-1.89.007-3.781.01-5.671-.006a1.926,1.926,0,0,1-1.574-.878,2.659,2.659,0,0,1-.416-1.135c-.149-.819-.306-1.636-.461-2.454q-.284-1.507-.569-3.014-.281-1.491-.561-2.981-.215-1.144-.43-2.289a.359.359,0,0,1,0-.049,3.911,3.911,0,0,0,.5,0,.728.728,0,0,1,.716.3,7.224,7.224,0,0,0,.533.54c-.2.191-.387.374-.573.563a.17.17,0,0,0-.051.123c.05.3.109.6.166.905l1.008-1.018,1.679,1.679-1.7,1.7-.64-.681-.031.019.4,2.142.283-.314,1.718,1.72a.609.609,0,0,0-.082.06c-.437.436-.873.874-1.312,1.308a.176.176,0,0,0-.057.177c.083.429.162.858.248,1.286a.338.338,0,0,0,.087.161q.628.635,1.263,1.261a.247.247,0,0,0,.154.064c.322.006.644.007.966,0a.278.278,0,0,0,.173-.072c.438-.43.871-.866,1.3-1.3.034-.034.062-.074.1-.126.193.2.37.376.549.556.291.292.581.585.876.872a.264.264,0,0,0,.162.07q.488.01.977,0a.247.247,0,0,0,.154-.065c.366-.359.719-.732,1.093-1.082a.939.939,0,0,0,.309-.582c.051-.347.125-.69.193-1.034a.183.183,0,0,0-.056-.188c-.464-.457-.923-.919-1.386-1.381" transform="translate(-24.613 -233.327)" fill="#fff"/>
    <path id="Path_2" data-name="Path 2" d="M7.434,4.543h-7A.4.4,0,0,1,0,4.1q0-.578,0-1.157a.421.421,0,0,1,.464-.467c.55,0,1.1,0,1.651,0a.273.273,0,0,0,.159-.055Q3.641,1.3,5.006.18A.873.873,0,0,1,5.281.015a.433.433,0,0,1,.411.122q.782.638,1.566,1.273c.1.078.186.2.292.216s.227-.071.339-.119q1.138-.487,2.274-.977a.375.375,0,0,1,.391.041q1.281.917,2.564,1.831a.425.425,0,0,0,.225.071c.355.007.711,0,1.067,0a.42.42,0,0,1,.465.465q0,.59,0,1.179a.4.4,0,0,1-.422.421H7.434M5.373.948,3.524,2.467H7.247L5.373.948m6.654,1.529,0-.025c-.56-.4-1.12-.8-1.683-1.193a.168.168,0,0,0-.138-.013c-.4.166-.8.338-1.194.509l-.871.375c.12.1.225.192.34.272a.379.379,0,0,0,.2.072c1.078,0,2.156,0,3.234,0Z" transform="translate(0 0.001)" fill="#fff"/>
    <path id="Path_3" data-name="Path 3" d="M257.26,305.023l1.64-1.64,1.665,1.666-1.64,1.64-1.665-1.666" transform="translate(-251.482 -296.568)" fill="#fff"/>
    <path id="Path_4" data-name="Path 4" d="M157.406,408.084l-1.656-1.661,1.656-1.656,1.659,1.658-1.658,1.658" transform="translate(-152.252 -395.676)" fill="#fff"/>
    <path id="Path_5" data-name="Path 5" d="M359.749,407.647l-1.659-1.659,1.671-1.666,1.659,1.659-1.671,1.666" transform="translate(-350.047 -395.241)" fill="#fff"/>
    <path id="Path_6" data-name="Path 6" d="M258.673,505.314l1.663,1.669-1.663,1.66-1.666-1.663,1.665-1.665" transform="translate(-251.235 -493.964)" fill="#fff"/>
    <path id="Path_7" data-name="Path 7" d="M166.871,606.665l1.658,1.663-1.458,1.453-1.658-1.662,1.458-1.453" transform="translate(-161.698 -593.038)" fill="#fff"/>
    <path id="Path_8" data-name="Path 8" d="M359.354,609.688l-1.462-1.457,1.672-1.676,1.46,1.465-1.67,1.668" transform="translate(-349.853 -592.931)" fill="#fff"/>
    <path id="Path_9" data-name="Path 9" d="M155.389,239.783c.19-.189.4-.378.587-.592a.611.611,0,0,1,.544-.221c.433.018.867,0,1.3.008a.279.279,0,0,1,.173.07c.254.243.5.494.738.731l-1.673,1.673-1.67-1.67" transform="translate(-151.899 -233.602)" fill="#fff"/>
    <path id="Path_10" data-name="Path 10" d="M357.716,240.021c.257-.256.52-.52.787-.781a.158.158,0,0,1,.1-.029q.791,0,1.582,0a.167.167,0,0,1,.107.042c.261.256.52.516.771.767L359.39,241.7l-1.674-1.674" transform="translate(-349.681 -233.837)" fill="#fff"/>
  </g>
</svg>
