<svg xmlns="http://www.w3.org/2000/svg" width="30.252" height="30.245" viewBox="0 0 30.252 30.245">
  <path id="Icon_awesome-instagram" data-name="Icon awesome-instagram" d="M15.124,9.606a7.754,7.754,0,1,0,7.754,7.754A7.742,7.742,0,0,0,15.124,9.606Zm0,12.8a5.041,5.041,0,1,1,5.041-5.041A5.051,5.051,0,0,1,15.124,22.4ZM25,9.289A1.809,1.809,0,1,1,23.2,7.48,1.8,1.8,0,0,1,25,9.289Zm5.136,1.836A8.951,8.951,0,0,0,27.7,4.787,9.01,9.01,0,0,0,21.36,2.344c-2.5-.142-9.982-.142-12.479,0A9,9,0,0,0,2.544,4.78,8.98,8.98,0,0,0,.1,11.117C-.041,13.615-.041,21.1.1,23.6a8.951,8.951,0,0,0,2.443,6.337,9.021,9.021,0,0,0,6.337,2.443c2.5.142,9.982.142,12.479,0A8.951,8.951,0,0,0,27.7,29.933,9.01,9.01,0,0,0,30.14,23.6c.142-2.5.142-9.975,0-12.472ZM26.914,26.275a5.1,5.1,0,0,1-2.875,2.875c-1.991.79-6.715.607-8.915.607s-6.931.175-8.915-.607a5.1,5.1,0,0,1-2.875-2.875c-.79-1.991-.607-6.715-.607-8.915s-.175-6.931.607-8.915A5.1,5.1,0,0,1,6.209,5.57c1.991-.79,6.715-.607,8.915-.607s6.931-.175,8.915.607a5.1,5.1,0,0,1,2.875,2.875c.79,1.991.607,6.715.607,8.915S27.7,24.291,26.914,26.275Z" transform="translate(0.005 -2.238)" fill="#d17a52"/>
</svg>
