<svg xmlns="http://www.w3.org/2000/svg" width="37.237" height="30.244" viewBox="0 0 37.237 30.244">
  <path id="Icon_awesome-twitter" data-name="Icon awesome-twitter" d="M33.41,10.918c.024.331.024.662.024.992,0,10.089-7.679,21.714-21.714,21.714A21.567,21.567,0,0,1,0,30.2a15.79,15.79,0,0,0,1.843.094,15.284,15.284,0,0,0,9.475-3.261A7.645,7.645,0,0,1,4.182,21.74a9.624,9.624,0,0,0,1.441.118,8.071,8.071,0,0,0,2.008-.26,7.633,7.633,0,0,1-6.12-7.49v-.094a7.686,7.686,0,0,0,3.45.969A7.643,7.643,0,0,1,2.6,4.775a21.693,21.693,0,0,0,15.736,7.986,8.615,8.615,0,0,1-.189-1.748A7.639,7.639,0,0,1,31.354,5.791,15.026,15.026,0,0,0,36.2,3.948a7.611,7.611,0,0,1-3.355,4.206,15.3,15.3,0,0,0,4.395-1.181,16.405,16.405,0,0,1-3.828,3.946Z" transform="translate(0 -3.381)" fill="#d17a52"/>
</svg>
