<svg xmlns="http://www.w3.org/2000/svg" width="26.676" height="25.078" viewBox="0 0 26.676 25.078">
  <path id="Icon_awesome-snapchat-ghost" data-name="Icon awesome-snapchat-ghost" d="M26.616,20.738c-.271.633-1.419,1.1-3.51,1.423a9.773,9.773,0,0,0-.339,1.248.6.6,0,0,1-.632.462H22.12c-.489,0-1-.225-2.024-.225a4.123,4.123,0,0,0-2.931,1.073,5.868,5.868,0,0,1-3.857,1.428,5.984,5.984,0,0,1-3.8-1.428,4.118,4.118,0,0,0-2.93-1.072,19.679,19.679,0,0,0-2.024.246.618.618,0,0,1-.647-.471,9.651,9.651,0,0,0-.34-1.257C2.492,22,.063,21.573,0,20.489a.554.554,0,0,1,.463-.577c3.625-.6,5.258-4.319,5.326-4.477l.012-.027a1.184,1.184,0,0,0,.128-.977c-.263-.62-1.4-.842-1.878-1.031-1.236-.488-1.408-1.049-1.334-1.433a1.341,1.341,0,0,1,1.719-.805,2.981,2.981,0,0,0,1.227.328,1.063,1.063,0,0,0,.519-.113c-.106-1.872-.37-4.548.3-6.042a7.1,7.1,0,0,1,6.59-4.252l.527,0a7.049,7.049,0,0,1,6.6,4.254c.666,1.493.4,4.157.3,6.044a1.021,1.021,0,0,0,.448.111,3.112,3.112,0,0,0,1.15-.326,1.41,1.41,0,0,1,1.067,0h0a1.082,1.082,0,0,1,.812.931c.01.508-.444.946-1.348,1.3-.11.044-.245.086-.387.132-.51.162-1.282.407-1.491.9a1.183,1.183,0,0,0,.128.977c0,.009.009.018.012.027.068.158,1.7,3.879,5.326,4.477A.569.569,0,0,1,26.616,20.738Z" transform="translate(0 -1.078)" fill="#d17a52"/>
</svg>
