<svg xmlns="http://www.w3.org/2000/svg" width="26.277" height="30.246" viewBox="0 0 26.277 30.246">
  <path id="Icon_simple-tiktok" data-name="Icon simple-tiktok" d="M16.169.025C17.82,0,19.459.013,21.1,0A7.85,7.85,0,0,0,23.3,5.255a8.888,8.888,0,0,0,5.343,2.256V12.59a13.489,13.489,0,0,1-5.293-1.222A15.57,15.57,0,0,1,21.311,10.2c-.013,3.68.013,7.36-.025,11.027a9.626,9.626,0,0,1-1.7,4.965,9.389,9.389,0,0,1-7.448,4.045,9.189,9.189,0,0,1-5.142-1.3,9.5,9.5,0,0,1-4.6-7.2c-.025-.63-.038-1.26-.013-1.878a9.487,9.487,0,0,1,11-8.418c.025,1.865-.05,3.73-.05,5.6a4.324,4.324,0,0,0-5.52,2.672,5,5,0,0,0-.176,2.029,4.289,4.289,0,0,0,4.411,3.617,4.234,4.234,0,0,0,3.491-2.029,2.908,2.908,0,0,0,.517-1.336c.126-2.256.076-4.5.088-6.755.013-5.079-.013-10.145.025-15.211Z" transform="translate(-2.369)" fill="#d17a52"/>
</svg>
