<svg xmlns="http://www.w3.org/2000/svg" width="32.174" height="30.247" viewBox="0 0 32.174 30.247">
  <path id="Icon_awesome-snapchat-ghostornge" data-name="Icon awesome-snapchat-ghostornge" d="M32.1,24.79c-.327.764-1.712,1.325-4.233,1.717a11.787,11.787,0,0,0-.409,1.505.728.728,0,0,1-.762.557h-.019c-.59,0-1.207-.272-2.441-.272A4.973,4.973,0,0,0,20.7,29.591a7.077,7.077,0,0,1-4.652,1.722,7.217,7.217,0,0,1-4.579-1.722A4.967,4.967,0,0,0,7.937,28.3a23.735,23.735,0,0,0-2.441.3.746.746,0,0,1-.781-.568,11.64,11.64,0,0,0-.41-1.516c-1.3-.2-4.23-.713-4.3-2.02a.668.668,0,0,1,.558-.7c4.373-.72,6.342-5.209,6.424-5.4L7,18.361a1.428,1.428,0,0,0,.155-1.178c-.317-.748-1.689-1.016-2.266-1.244-1.49-.589-1.7-1.265-1.609-1.728a1.617,1.617,0,0,1,2.074-.971,3.6,3.6,0,0,0,1.48.4,1.283,1.283,0,0,0,.626-.136c-.128-2.258-.446-5.485.357-7.287a8.561,8.561,0,0,1,7.948-5.128l.635-.006a8.5,8.5,0,0,1,7.963,5.13c.8,1.8.487,5.014.358,7.29a1.231,1.231,0,0,0,.54.134,3.754,3.754,0,0,0,1.387-.393,1.7,1.7,0,0,1,1.287,0h0a1.305,1.305,0,0,1,.98,1.123c.012.612-.536,1.141-1.626,1.572-.133.052-.295.1-.467.159-.616.2-1.546.49-1.8,1.085a1.427,1.427,0,0,0,.155,1.178c.005.011.01.021.015.032.082.19,2.05,4.679,6.424,5.4A.686.686,0,0,1,32.1,24.79Z" transform="translate(0 -1.078)" fill="#d17a52"/>
</svg>
