<svg xmlns="http://www.w3.org/2000/svg" xmlns:xlink="http://www.w3.org/1999/xlink" width="135.41" height="78.416" viewBox="0 0 135.41 78.416">
  <defs>
    <filter id="svg_4" x="0" y="0" width="135.41" height="78.416" filterUnits="userSpaceOnUse">
      <feOffset dy="3" input="SourceAlpha"/>
      <feGaussianBlur stdDeviation="3" result="blur"/>
      <feFlood flood-opacity="0.161"/>
      <feComposite operator="in" in2="blur"/>
      <feComposite in="SourceGraphic"/>
    </filter>
    <clipPath id="clip-path">
      <rect id="svg_1" width="81.001" height="27.069" fill="none"/>
    </clipPath>
  </defs>
  <g id="mada" transform="translate(9 6)">
    <g transform="matrix(1, 0, 0, 1, -9, -6)" filter="url(#svg_4)">
      <rect id="svg_4-2" data-name="svg_4" width="117.41" height="60.416" rx="6.32" transform="translate(9 6)" fill="#fff"/>
    </g>
    <g id="svg_17" transform="translate(18.127 16.867)" clip-path="url(#clip-path)">
      <rect id="svg_18" width="34.286" height="11.412" transform="translate(0 15.593)" fill="#76aa29"/>
    </g>
    <g id="svg_19" transform="translate(18.127 16.867)" clip-path="url(#clip-path)">
      <rect id="svg_20" width="34.286" height="11.437" fill="#2889ce"/>
    </g>
    <g id="svg_21" transform="translate(18.127 16.867)" clip-path="url(#clip-path)">
      <path id="svg_22" d="M275.531,31.609h-.283v3.975h-.232a5.379,5.379,0,0,0-1.518-.27c-3.332,0-4.053,2.573-4.053,4.644a4.117,4.117,0,0,0,4.464,4.567,9.457,9.457,0,0,0,2.985-.412,1.287,1.287,0,0,0,1.132-1.454V31.21c-.811.167-1.621.3-2.432.425m-.283,10.743h-.142a4.887,4.887,0,0,1-1.145.142c-.888,0-1.956-.45-1.956-2.573,0-1.106.18-2.573,1.866-2.573h0a4.863,4.863,0,0,1,1.209.244h.129Z" transform="translate(-206.701 -17.688)" fill="#1d1f22"/>
    </g>
    <g id="svg_23" transform="translate(18.127 16.867)" clip-path="url(#clip-path)">
      <path id="svg_24" d="M281.767,34.35a11.233,11.233,0,0,0-3.4.592l-.836.257.27,1.93.849-.283a9.841,9.841,0,0,1,2.779-.476c.36,0,1.492,0,1.492,1.209v.515h-1.57c-2.83,0-4.155.913-4.155,2.869,0,1.66,1.222,2.663,3.255,2.663a10.486,10.486,0,0,0,2.251-.309h.347l2.419.437v-6.3c0-2.058-1.286-3.1-3.705-3.1m1.171,7.192H282.8l-.5.129a4.54,4.54,0,0,1-1.286.206c-.785,0-1.287-.4-1.287-1.042,0-.437.193-1.145,1.479-1.145h1.66Z" transform="translate(-204.472 -16.789)" fill="#1d1f22"/>
    </g>
    <g id="svg_25" transform="translate(18.127 16.867)" clip-path="url(#clip-path)">
      <path id="svg_26" d="M266.417,34.35a11.1,11.1,0,0,0-3.4.592l-.849.257.283,1.93.849-.283a9.841,9.841,0,0,1,2.766-.476c.373,0,1.492,0,1.492,1.209v.515h-1.557c-2.83,0-4.156.913-4.156,2.869,0,1.66,1.209,2.663,3.242,2.663a10.7,10.7,0,0,0,2.264-.309h.322c.8.154,1.621.283,2.419.463v-6.3c0-2.084-1.287-3.126-3.68-3.126m1.145,7.192h-.141l-.5.129a4.4,4.4,0,0,1-1.287.206c-.785,0-1.286-.4-1.286-1.042,0-.437.193-1.145,1.479-1.145h1.66Z" transform="translate(-208.87 -16.789)" fill="#1d1f22"/>
    </g>
    <g id="svg_27" transform="translate(18.127 16.867)" clip-path="url(#clip-path)">
      <path id="svg_28" d="M260.123,34.372a6.9,6.9,0,0,0-2.753.6h-.193a4.194,4.194,0,0,0-2.47-.6,10.574,10.574,0,0,0-2.92.437c-.862.257-1.2.669-1.2,1.467v7.256H253.3V36.791h.129a3.859,3.859,0,0,1,1.2-.219,1.081,1.081,0,0,1,1.184,1.287V43.6h2.663V37.666a1.506,1.506,0,0,0-.09-.592l-.077-.167.167-.09a3.486,3.486,0,0,1,1.287-.283,1.081,1.081,0,0,1,1.184,1.287v5.738h2.676V37.511c0-2.123-1.171-3.139-3.538-3.139" transform="translate(-212.097 -16.785)" fill="#1d1f22"/>
    </g>
    <g id="svg_29" transform="translate(18.127 16.867)" clip-path="url(#clip-path)">
      <path id="svg_30" d="M283.978,20.7h-.064a4.812,4.812,0,0,0-3.718,1.287,2.574,2.574,0,0,0-.5,1.505v4.027c0,.347,0,.476-.09.5l-.077.167h-4.915V25.374h0c-.064-2.959-1.827-4.58-4.361-4.58h-2.483c-.116.708-.18,1.287-.283,1.943h2.47c1.287,0,1.968,1.106,1.968,2.792v2.843l-.18-.09a1.84,1.84,0,0,0-.579-.09h-4.245c-.09.54-.18,1.287-.309,1.956h13.084l1.415-.244a7.153,7.153,0,0,0,2.728.5,4.464,4.464,0,0,0,4.67-4.825,4.465,4.465,0,0,0-4.529-4.876m0,7.449A8.065,8.065,0,0,1,282.41,28h-.155v-3.86a2.707,2.707,0,0,0,0-.553l-.09-.18.18-.064h.309a6.432,6.432,0,0,1,1.389-.167h0c1.66,0,1.853,1.467,1.853,2.573,0,2.174-1.029,2.573-1.93,2.573" transform="translate(-207.506 -20.704)" fill="#1d1f22"/>
    </g>
    <g id="svg_31" transform="translate(18.127 16.867)" clip-path="url(#clip-path)">
      <path id="svg_32" d="M265.649,31.344h.129c2.83,0,4.156-.926,4.156-3.242a2.972,2.972,0,0,0-3.242-3h-2.573a1.132,1.132,0,0,1-1.287-1.184c0-.5.193-1.158,1.479-1.158h5.712c.129-.733.18-1.209.309-1.943h-5.944c-2.766,0-4.156,1.171-4.156,3.1s1.209,2.895,3.255,2.895h2.573a1.293,1.293,0,1,1-.18,2.573H255.589c-1.287,0-2.187-.746-2.187-2.432V25.786c0-1.775.682-2.882,2.187-2.882h2.483c.116-.759.18-1.287.283-1.943h-3.422c-2.573,0-4.284,1.685-4.348,4.657v1.287a4.014,4.014,0,0,0,4.348,4.374H265.7Z" transform="translate(-212.103 -20.666)" fill="#1d1f22"/>
    </g>
  </g>
</svg>
