<svg xmlns="http://www.w3.org/2000/svg" width="175.64" height="25.078" viewBox="0 0 175.64 25.078">
  <g id="Media-icon-footer" transform="translate(0 0)">
    <path id="Icon_awesome-facebook-f" data-name="Icon awesome-facebook-f" d="M14.16,14.105l.7-4.538H10.5V6.622A2.269,2.269,0,0,1,13.06,4.17h1.98V.307A24.141,24.141,0,0,0,11.526,0C7.94,0,5.6,2.174,5.6,6.108V9.567H1.609v4.538H5.6V25.076H10.5V14.105Z" transform="translate(-1.609 0.001)" fill="#dbdbdb"/>
    <path id="Icon_awesome-instagram" data-name="Icon awesome-instagram" d="M12.539,8.347a6.429,6.429,0,1,0,6.429,6.429A6.419,6.419,0,0,0,12.539,8.347Zm0,10.609a4.18,4.18,0,1,1,4.18-4.18,4.187,4.187,0,0,1-4.18,4.18ZM20.731,8.084a1.5,1.5,0,1,1-1.5-1.5A1.5,1.5,0,0,1,20.731,8.084Zm4.258,1.522a7.421,7.421,0,0,0-2.026-5.254,7.47,7.47,0,0,0-5.254-2.026c-2.07-.118-8.276-.118-10.346,0a7.459,7.459,0,0,0-5.254,2.02A7.445,7.445,0,0,0,.083,9.6c-.118,2.07-.118,8.276,0,10.346A7.421,7.421,0,0,0,2.108,25.2a7.48,7.48,0,0,0,5.254,2.026c2.07.118,8.276.118,10.346,0A7.421,7.421,0,0,0,22.963,25.2a7.47,7.47,0,0,0,2.026-5.254c.118-2.07.118-8.27,0-10.341ZM22.314,22.168a4.232,4.232,0,0,1-2.384,2.384c-1.651.655-5.568.5-7.392.5s-5.747.145-7.392-.5a4.232,4.232,0,0,1-2.384-2.384c-.655-1.651-.5-5.568-.5-7.392s-.145-5.747.5-7.392A4.232,4.232,0,0,1,5.147,5c1.651-.655,5.568-.5,7.392-.5s5.747-.145,7.392.5a4.232,4.232,0,0,1,2.384,2.384c.655,1.651.5,5.568.5,7.392S22.969,20.523,22.314,22.168Z" transform="translate(27.315 -2.237)" fill="#dbdbdb"/>
    <path id="Icon_awesome-twitter" data-name="Icon awesome-twitter" d="M27.7,9.63c.02.274.02.549.02.823,0,8.365-6.367,18-18,18A17.881,17.881,0,0,1,0,25.616a13.091,13.091,0,0,0,1.528.078,12.672,12.672,0,0,0,7.856-2.7A6.339,6.339,0,0,1,3.467,18.6a7.979,7.979,0,0,0,1.2.1,6.692,6.692,0,0,0,1.665-.215,6.328,6.328,0,0,1-5.074-6.21V12.2a6.373,6.373,0,0,0,2.86.8A6.337,6.337,0,0,1,2.155,4.537,17.986,17.986,0,0,0,15.2,11.158a7.143,7.143,0,0,1-.157-1.45A6.334,6.334,0,0,1,26,5.379a12.458,12.458,0,0,0,4.016-1.528A6.311,6.311,0,0,1,27.23,7.338a12.685,12.685,0,0,0,3.644-.979A13.6,13.6,0,0,1,27.7,9.63Z" transform="translate(67.034 -3.38)" fill="#dbdbdb"/>
    <path id="Icon_simple-tiktok" data-name="Icon simple-tiktok" d="M13.811.021C15.18,0,16.538.01,17.9,0a6.508,6.508,0,0,0,1.829,4.357,7.369,7.369,0,0,0,4.43,1.87v4.211a11.184,11.184,0,0,1-4.389-1.014,12.91,12.91,0,0,1-1.693-.972c-.01,3.051.01,6.1-.021,9.143a7.981,7.981,0,0,1-1.411,4.117,7.785,7.785,0,0,1-6.175,3.354A7.619,7.619,0,0,1,6.2,23.991,7.879,7.879,0,0,1,2.39,18.024c-.021-.522-.031-1.045-.01-1.557A7.866,7.866,0,0,1,11.5,9.488c.021,1.546-.042,3.093-.042,4.639a3.585,3.585,0,0,0-4.577,2.215,4.145,4.145,0,0,0-.146,1.682,3.556,3.556,0,0,0,3.657,3,3.51,3.51,0,0,0,2.894-1.682,2.411,2.411,0,0,0,.428-1.108c.1-1.87.063-3.73.073-5.6.01-4.211-.01-8.411.021-12.612Z" transform="translate(110.596 0)" fill="#dbdbdb"/>
    <path id="Icon_awesome-snapchat-ghost" data-name="Icon awesome-snapchat-ghost" d="M26.616,20.738c-.271.633-1.419,1.1-3.51,1.423a9.773,9.773,0,0,0-.339,1.248.6.6,0,0,1-.632.462H22.12c-.489,0-1-.225-2.024-.225a4.123,4.123,0,0,0-2.931,1.073,5.868,5.868,0,0,1-3.857,1.428,5.984,5.984,0,0,1-3.8-1.428,4.118,4.118,0,0,0-2.93-1.072,19.679,19.679,0,0,0-2.024.246.618.618,0,0,1-.647-.471,9.651,9.651,0,0,0-.34-1.257C2.492,22,.063,21.573,0,20.489a.554.554,0,0,1,.463-.577c3.625-.6,5.258-4.319,5.326-4.477l.012-.027a1.184,1.184,0,0,0,.128-.977c-.263-.62-1.4-.842-1.878-1.031-1.236-.488-1.408-1.049-1.334-1.433a1.341,1.341,0,0,1,1.719-.805,2.981,2.981,0,0,0,1.227.328,1.063,1.063,0,0,0,.519-.113c-.106-1.872-.37-4.548.3-6.042a7.1,7.1,0,0,1,6.59-4.252l.527,0a7.049,7.049,0,0,1,6.6,4.254c.666,1.493.4,4.157.3,6.044a1.021,1.021,0,0,0,.448.111,3.112,3.112,0,0,0,1.15-.326,1.41,1.41,0,0,1,1.067,0h0a1.082,1.082,0,0,1,.812.931c.01.508-.444.946-1.348,1.3-.11.044-.245.086-.387.132-.51.162-1.282.407-1.491.9a1.183,1.183,0,0,0,.128.977c0,.009.009.018.012.027.068.158,1.7,3.879,5.326,4.477A.569.569,0,0,1,26.616,20.738Z" transform="translate(148.964 -1.078)" fill="#d17a52"/>
  </g>
</svg>
