<svg xmlns="http://www.w3.org/2000/svg" width="66.599" height="41.472" viewBox="0 0 66.599 41.472">
  <g id="visa" transform="translate(-26.227 -10.22)">
    <rect id="svg_33" width="66.599" height="5.97" transform="translate(26.227 45.721)" fill="#f6941c"/>
    <rect id="svg_34" width="66.599" height="5.97" transform="translate(26.227 10.22)" fill="#000664"/>
    <path id="svg_35" d="M349.746,25.109,342.861,41.52h-4.484l-3.4-13.107c-.212-.809-.371-1.1-1.008-1.433a17.63,17.63,0,0,0-4.192-1.406l.106-.478h7.244a1.937,1.937,0,0,1,1.937,1.672l1.778,9.5,4.431-11.224h4.471ZM367.338,36.16c0-4.338-6-4.564-5.943-6.5,0-.584.57-1.207,1.791-1.327a7.708,7.708,0,0,1,4.192.73l.743-3.463a11.583,11.583,0,0,0-3.98-.73c-4.192,0-7.151,2.229-7.177,5.426,0,2.375,2.123,3.688,3.7,4.471s2.229,1.327,2.2,2.03c0,1.1-1.327,1.592-2.534,1.605a8.8,8.8,0,0,1-4.365-1.035l-.69,3.6a12.776,12.776,0,0,0,4.723.876c4.458,0,7.39-2.229,7.4-5.638m11.078,5.307H382.4L378.973,25.1h-3.622a1.884,1.884,0,0,0-1.8,1.207l-6.368,15.2h4.458l.889-2.454h5.453Zm-4.816-5.851,2.255-6.156,1.327,6.156ZM355.823,25.042l-3.516,16.411h-4.232l3.516-16.411Z" transform="translate(-296.535 -2.339)" fill="#000664"/>
  </g>
</svg>
